<svg width="304" height="33" viewBox="0 0 304 33" fill="none" xmlns="http://www.w3.org/2000/svg">
<path d="M15.4971 9.00662C15.4971 9.00662 14.7377 9.70673 14.7247 11.7561V13.8988H11.9737V16.9284H14.7247V24.7568H17.8966V16.9284H20.626L21.0078 13.8988H17.8966V11.7561C17.9053 11.5185 18.0138 10.462 19.2895 10.4832H21.1467V7.62764H18.3653C18.3653 7.62764 16.6166 7.58521 15.5014 9.00238L15.4971 9.00662Z" fill="black"/>
<path d="M28.0719 26.242C27.6163 26.3735 27.3646 26.8699 27.1477 27.2518C26.9524 27.5997 26.5749 28.0071 26.5749 28.4144C26.5749 28.5459 26.7137 28.652 26.8439 28.6138C27.2475 28.5035 27.5469 28.041 27.8376 27.7652C28.1587 27.4597 28.5883 27.0863 28.5969 26.6281C28.5969 26.3693 28.3279 26.1656 28.0676 26.2377L28.0719 26.242Z" fill="black"/>
<path d="M32.9404 17.3274C34.9104 9.54564 26.6877 1.67482 19.207 0.291588C15.0935 -0.467915 10.8151 0.253401 7.30904 2.48948C4.29767 4.40733 1.21687 7.81449 0.835021 11.4211C0.826343 11.5017 0.852378 11.5653 0.887091 11.6205C-1.48643 17.5735 1.09971 25.0582 6.30236 28.8387C11.4616 32.5853 19.9447 33.8964 25.4337 29.9843C25.898 29.6534 25.5118 28.9957 24.9824 29.2376C24.7828 29.3267 24.5832 29.4158 24.388 29.5049C24.2882 29.3352 24.0799 29.2248 23.8195 29.3479C20.166 31.0409 15.0935 30.1838 11.4833 28.9278C11.0754 28.7878 10.7977 29.42 11.1882 29.6067C13.1105 30.519 15.202 31.0536 17.3455 31.1639C18.2394 31.2106 19.1376 31.1766 20.0314 31.0875C18.6689 31.4227 17.2631 31.5755 15.7487 31.4439C12.6722 31.1724 9.95592 30.0522 7.41318 28.389C4.43218 26.4414 2.39712 24.0695 1.43383 20.6751C0.596368 17.7347 0.552976 14.6373 1.47722 11.7266C1.51627 11.6969 1.55532 11.6629 1.57702 11.6162C1.73757 11.3192 1.89377 11.0265 2.04998 10.7379C1.13442 13.0419 0.865396 15.5962 1.27762 18.0317C2.05432 22.6524 4.71856 25.7031 8.63682 28.2107C9.10545 28.512 9.57842 27.7398 9.07941 27.4809C5.59941 25.6777 2.83971 21.5746 2.25393 17.8238C1.60739 13.6826 3.14779 9.79598 5.66884 6.49915C5.8858 6.21911 5.43019 5.90937 5.18285 6.13425C4.77063 6.51188 4.38879 6.91921 4.03298 7.34775C4.61009 6.49915 5.25662 5.70146 6.03333 4.95893C5.85542 5.2517 6.14181 5.69297 6.49762 5.46809C7.41318 4.89528 8.29837 4.28428 9.24864 3.75815C9.92555 3.38476 10.6458 3.08775 11.3401 2.74406C11.4529 2.77801 11.5831 2.78649 11.735 2.7483C16.7771 1.49661 21.7975 2.03547 25.7244 5.63781C25.8763 5.77783 26.0629 5.71419 26.1583 5.58689C26.1236 5.7651 26.2234 5.97725 26.4664 5.97725C26.8916 5.97725 26.8916 5.33656 26.4664 5.33656C26.3449 5.33656 26.2625 5.38747 26.2104 5.46385C26.2191 5.39171 26.1974 5.31534 26.1323 5.24321C24.8219 3.88968 23.1686 2.76103 21.3505 1.97183C26.6617 3.87271 31.0789 8.52307 31.7168 13.8905C31.3219 12.1763 30.5886 10.5173 29.5168 9.01951C29.2435 8.64188 28.6403 8.96859 28.8703 9.38441C30.2979 11.9387 30.9704 14.7306 31.0659 17.6244C31.1657 20.6454 29.9638 23.2252 28.3192 25.7158C28.15 25.9704 28.5405 26.2802 28.7531 26.068C28.8529 26.1189 28.9744 26.1189 29.0786 26.0256C31.4521 23.8616 33.1878 20.62 32.9534 17.374C32.9534 17.3571 32.9448 17.3401 32.9404 17.3231V17.3274Z" fill="black"/>
<path d="M9.88232 28.5925C9.77818 28.8302 9.91703 29.0678 10.16 29.1484C10.3379 29.2078 10.4985 29.2672 10.6851 29.2926C11.0062 29.3308 11.1277 28.9023 10.9324 28.7113C10.8066 28.5841 10.6373 28.495 10.4855 28.3974C10.2728 28.2573 9.97345 28.3804 9.87799 28.5968L9.88232 28.5925Z" fill="black"/>
<path d="M295.281 9.83002C294.617 10.2119 293.884 10.4962 293.103 10.6447C292.474 9.99126 291.584 9.58393 290.599 9.58393C288.703 9.58393 287.167 11.086 287.167 12.9402C287.167 13.2032 287.197 13.4578 287.254 13.7082C284.403 13.5681 281.873 12.2316 280.181 10.2034C279.886 10.6998 279.717 11.2727 279.717 11.8879C279.717 13.0505 280.32 14.0773 281.244 14.6798C280.68 14.6628 280.151 14.5101 279.691 14.2598C279.691 14.2767 279.691 14.2895 279.691 14.3022C279.691 15.9273 280.875 17.285 282.442 17.5905C282.155 17.6669 281.852 17.7093 281.539 17.7093C281.318 17.7093 281.105 17.6881 280.893 17.6457C281.331 18.9822 282.598 19.9497 284.099 19.9794C282.923 20.8789 281.444 21.4177 279.838 21.4177C279.56 21.4177 279.291 21.4008 279.018 21.3711C280.537 22.3258 282.337 22.8774 284.277 22.8774C290.591 22.8774 294.04 17.7645 294.04 13.3305C294.04 13.1863 294.04 13.042 294.032 12.8977C294.704 12.4225 295.286 11.8327 295.741 11.1623C295.125 11.4296 294.465 11.6079 293.771 11.6885C294.478 11.2727 295.021 10.615 295.281 9.83427V9.83002Z" fill="black"/>
<path d="M298.835 26.242C298.379 26.3735 298.128 26.8699 297.911 27.2518C297.716 27.5997 297.338 28.0071 297.338 28.4144C297.338 28.5459 297.477 28.652 297.607 28.6138C298.011 28.5035 298.31 28.041 298.601 27.7652C298.922 27.4597 299.351 27.0863 299.36 26.6281C299.36 26.3693 299.091 26.1656 298.831 26.2377L298.835 26.242Z" fill="black"/>
<path d="M303.704 17.3274C305.674 9.54564 297.451 1.67482 289.97 0.291588C285.857 -0.467915 281.578 0.253401 278.072 2.48948C275.061 4.40733 271.98 7.81449 271.598 11.4211C271.589 11.5017 271.616 11.5653 271.65 11.6205C269.277 17.5735 271.863 25.0582 277.066 28.8387C282.225 32.5853 290.708 33.8964 296.192 29.9843C296.657 29.6534 296.271 28.9957 295.741 29.2376C295.542 29.3267 295.342 29.4158 295.147 29.5049C295.047 29.3352 294.839 29.2248 294.583 29.3479C290.929 31.0409 285.857 30.1838 282.246 28.9278C281.839 28.7878 281.561 29.42 281.951 29.6067C283.874 30.519 285.965 31.0536 288.109 31.1639C289.003 31.2106 289.901 31.1766 290.795 31.0875C289.432 31.4227 288.026 31.5755 286.512 31.4439C283.435 31.1724 280.719 30.0522 278.176 28.389C275.195 26.4414 273.16 24.0695 272.197 20.6751C271.36 17.7347 271.316 14.6373 272.24 11.7266C272.279 11.6969 272.318 11.6629 272.34 11.6162C272.501 11.3192 272.657 11.0265 272.813 10.7379C271.898 13.0419 271.629 15.5962 272.041 18.0317C272.817 22.6524 275.482 25.7031 279.4 28.2107C279.869 28.512 280.342 27.7398 279.843 27.4809C276.363 25.6777 273.603 21.5746 273.017 17.8238C272.371 13.6826 273.911 9.79598 276.432 6.49915C276.649 6.21911 276.193 5.90937 275.946 6.13425C275.534 6.51188 275.152 6.91921 274.796 7.34775C275.373 6.49915 276.02 5.70146 276.796 4.95893C276.619 5.2517 276.905 5.69297 277.261 5.46809C278.176 4.89528 279.062 4.28428 280.012 3.75815C280.689 3.38476 281.409 3.08775 282.103 2.74406C282.216 2.77801 282.346 2.78649 282.498 2.7483C287.54 1.49661 292.561 2.03547 296.488 5.63781C296.639 5.77783 296.826 5.71419 296.921 5.58689C296.887 5.7651 296.987 5.97725 297.23 5.97725C297.655 5.97725 297.655 5.33656 297.23 5.33656C297.108 5.33656 297.026 5.38747 296.974 5.46385C296.982 5.39171 296.961 5.31534 296.895 5.24321C295.585 3.88968 293.932 2.76103 292.114 1.97183C297.425 3.87271 301.842 8.52307 302.48 13.8905C302.085 12.1763 301.352 10.5173 300.28 9.01951C300.007 8.64188 299.403 8.96859 299.633 9.38441C301.061 11.9387 301.734 14.7306 301.829 17.6244C301.929 20.6454 300.727 23.2252 299.082 25.7158C298.913 25.9704 299.304 26.2802 299.516 26.068C299.616 26.1189 299.738 26.1189 299.842 26.0256C302.215 23.8616 303.951 20.62 303.717 17.374C303.717 17.3571 303.708 17.3401 303.704 17.3231V17.3274Z" fill="black"/>
<path d="M280.645 28.5925C280.541 28.8302 280.68 29.0678 280.923 29.1484C281.101 29.2078 281.262 29.2672 281.448 29.2926C281.769 29.3308 281.891 28.9023 281.696 28.7113C281.57 28.5841 281.4 28.495 281.249 28.3974C281.036 28.2573 280.737 28.3804 280.641 28.5968L280.645 28.5925Z" fill="black"/>
<path d="M223.217 7.62775H216.495C213.514 7.62775 211.102 9.99112 211.102 12.9018V19.4743C211.102 22.3893 213.519 24.7484 216.495 24.7484H223.217C226.198 24.7484 228.61 22.385 228.61 19.4743V12.9018C228.61 9.98687 226.193 7.62775 223.217 7.62775ZM226.931 18.8421C226.931 21.197 224.978 23.1063 222.57 23.1063H217.137C214.729 23.1063 212.777 21.197 212.777 18.8421V13.5298C212.777 11.1749 214.729 9.26556 217.137 9.26556H222.57C224.978 9.26556 226.931 11.1749 226.931 13.5298V18.8421Z" fill="black"/>
<path d="M220.093 11.7096C217.546 11.7096 215.48 13.7292 215.48 16.2199C215.48 18.7106 217.546 20.7302 220.093 20.7302C222.64 20.7302 224.705 18.7106 224.705 16.2199C224.705 13.7292 222.64 11.7096 220.093 11.7096ZM220.093 18.9312C218.561 18.9312 217.316 17.7177 217.316 16.2199C217.316 14.7221 218.557 13.5044 220.093 13.5044C221.629 13.5044 222.865 14.7179 222.865 16.2199C222.865 17.7219 221.624 18.9312 220.093 18.9312Z" fill="black"/>
<path d="M224.384 10.4919C223.737 10.4919 223.212 11.0053 223.212 11.6375C223.212 12.2697 223.737 12.7831 224.384 12.7831C225.03 12.7831 225.556 12.2697 225.556 11.6375C225.556 11.0053 225.03 10.4919 224.384 10.4919Z" fill="black"/>
<path d="M231.149 26.242C230.693 26.3735 230.441 26.8699 230.224 27.2518C230.029 27.5997 229.652 28.0071 229.652 28.4144C229.652 28.5459 229.791 28.652 229.921 28.6138C230.324 28.5035 230.624 28.041 230.914 27.7652C231.235 27.4597 231.665 27.0863 231.674 26.6281C231.674 26.3693 231.405 26.1656 231.144 26.2377L231.149 26.242Z" fill="black"/>
<path d="M236.013 17.3274C237.983 9.54564 229.76 1.67482 222.279 0.291588C218.166 -0.467915 213.887 0.253401 210.381 2.48948C207.37 4.40733 204.289 7.81449 203.907 11.4211C203.899 11.5017 203.925 11.5653 203.959 11.6205C201.586 17.5735 204.172 25.0582 209.375 28.8387C214.534 32.5853 223.017 33.8964 228.502 29.9843C228.966 29.6534 228.58 28.9957 228.05 29.2376C227.851 29.3267 227.651 29.4158 227.456 29.5049C227.356 29.3352 227.148 29.2248 226.888 29.3479C223.234 31.0409 218.162 30.1838 214.551 28.9278C214.143 28.7878 213.866 29.42 214.256 29.6067C216.179 30.519 218.27 31.0536 220.414 31.1639C221.307 31.2106 222.206 31.1766 223.099 31.0875C221.737 31.4227 220.331 31.5755 218.817 31.4439C215.74 31.1724 213.024 30.0522 210.481 28.389C207.5 26.4414 205.465 24.0695 204.502 20.6751C203.664 17.7347 203.621 14.6373 204.545 11.7266C204.584 11.6969 204.623 11.6629 204.645 11.6162C204.806 11.3192 204.962 11.0265 205.118 10.7379C204.202 13.0419 203.933 15.5962 204.346 18.0317C205.122 22.6524 207.787 25.7031 211.705 28.2107C212.173 28.512 212.646 27.7398 212.147 27.4809C208.667 25.6777 205.908 21.5746 205.322 17.8238C204.675 13.6826 206.216 9.79598 208.737 6.49915C208.954 6.21911 208.498 5.90937 208.251 6.13425C207.839 6.51188 207.457 6.91921 207.101 7.34775C207.678 6.49915 208.325 5.70146 209.101 4.95893C208.923 5.2517 209.21 5.69297 209.566 5.46809C210.481 4.89528 211.366 4.28428 212.317 3.75815C212.994 3.38476 213.714 3.08775 214.408 2.74406C214.521 2.77801 214.651 2.78649 214.803 2.7483C219.845 1.49661 224.866 2.03547 228.792 5.63781C228.944 5.77783 229.131 5.71419 229.226 5.58689C229.192 5.7651 229.291 5.97725 229.534 5.97725C229.96 5.97725 229.96 5.33656 229.534 5.33656C229.413 5.33656 229.33 5.38747 229.278 5.46385C229.287 5.39171 229.27 5.31534 229.2 5.24321C227.89 3.88968 226.237 2.76103 224.419 1.97183C229.73 3.87271 234.147 8.52307 234.785 13.8905C234.39 12.1763 233.657 10.5173 232.585 9.01951C232.311 8.64188 231.708 8.96859 231.938 9.38441C233.366 11.9387 234.038 14.7306 234.134 17.6244C234.234 20.6454 233.032 23.2252 231.387 25.7158C231.218 25.9704 231.609 26.2802 231.821 26.068C231.921 26.1189 232.042 26.1189 232.147 26.0256C234.52 23.8616 236.256 20.62 236.021 17.374C236.021 17.3571 236.013 17.3401 236.008 17.3231L236.013 17.3274Z" fill="black"/>
<path d="M212.959 28.5925C212.854 28.8302 212.993 29.0678 213.236 29.1484C213.414 29.2078 213.575 29.2672 213.761 29.2926C214.082 29.3308 214.204 28.9023 214.009 28.7113C213.883 28.5841 213.714 28.495 213.562 28.3974C213.349 28.2573 213.05 28.3804 212.954 28.5968L212.959 28.5925Z" fill="black"/>
<path d="M145.06 23.259H148.392V12.7702H145.06V23.259ZM146.726 7.55552C145.659 7.55552 144.795 8.40413 144.795 9.44792C144.795 10.6529 145.945 11.5907 147.234 11.2724C147.885 11.1112 148.419 10.5935 148.592 9.95708C148.931 8.69266 147.963 7.55128 146.731 7.55128L146.726 7.55552ZM156.88 12.5114C155.257 12.5114 154.172 13.3812 153.725 14.2044H153.678V12.7702H150.48V23.259H153.812V18.0698C153.812 16.7035 154.077 15.3754 155.812 15.3754C157.548 15.3754 157.544 16.9411 157.544 18.1589V23.259H160.876V17.5054C160.876 14.6838 160.251 12.5114 156.876 12.5114H156.88Z" fill="black"/>
<path d="M163.458 26.242C163.002 26.3735 162.751 26.8699 162.534 27.2518C162.338 27.5997 161.961 28.0071 161.961 28.4144C161.961 28.5459 162.1 28.652 162.23 28.6138C162.633 28.5035 162.933 28.041 163.224 27.7652C163.545 27.4597 163.974 27.0863 163.983 26.6281C163.983 26.3693 163.714 26.1656 163.454 26.2377L163.458 26.242Z" fill="black"/>
<path d="M168.322 17.3274C170.292 9.54564 162.069 1.67482 154.589 0.291588C150.475 -0.467915 146.197 0.253401 142.691 2.48948C139.679 4.40733 136.598 7.81449 136.217 11.4211C136.208 11.5017 136.234 11.5653 136.269 11.6205C133.895 17.5735 136.481 25.0582 141.684 28.8387C146.843 32.5853 155.326 33.8964 160.811 29.9843C161.275 29.6534 160.889 28.9957 160.36 29.2376C160.16 29.3267 159.96 29.4158 159.765 29.5049C159.665 29.3352 159.457 29.2248 159.197 29.3479C155.543 31.0409 150.471 30.1838 146.861 28.9278C146.453 28.7878 146.175 29.42 146.565 29.6067C148.488 30.519 150.579 31.0536 152.723 31.1639C153.617 31.2106 154.515 31.1766 155.409 31.0875C154.046 31.4227 152.64 31.5755 151.126 31.4439C148.049 31.1724 145.333 30.0522 142.79 28.389C139.809 26.4414 137.774 24.0695 136.811 20.6751C135.974 17.7347 135.93 14.6373 136.854 11.7266C136.894 11.6969 136.933 11.6629 136.954 11.6162C137.115 11.3192 137.271 11.0265 137.427 10.7379C136.512 13.0419 136.243 15.5962 136.655 18.0317C137.432 22.6524 140.096 25.7031 144.014 28.2107C144.483 28.512 144.956 27.7398 144.457 27.4809C140.977 25.6777 138.217 21.5746 137.631 17.8238C136.985 13.6826 138.525 9.79598 141.046 6.49915C141.263 6.21911 140.807 5.90937 140.56 6.13425C140.148 6.51188 139.766 6.91921 139.41 7.34775C139.987 6.49915 140.634 5.70146 141.411 4.95893C141.233 5.2517 141.519 5.69297 141.875 5.46809C142.79 4.89528 143.676 4.28428 144.626 3.75815C145.303 3.38476 146.023 3.08775 146.717 2.74406C146.83 2.77801 146.96 2.78649 147.112 2.7483C152.154 1.49661 157.175 2.03547 161.102 5.63781C161.254 5.77783 161.44 5.71419 161.536 5.58689C161.501 5.7651 161.601 5.97725 161.844 5.97725C162.269 5.97725 162.269 5.33656 161.844 5.33656C161.722 5.33656 161.64 5.38747 161.588 5.46385C161.596 5.39171 161.575 5.31534 161.51 5.24321C160.199 3.88968 158.546 2.76103 156.728 1.97183C162.039 3.87271 166.456 8.52307 167.094 13.8905C166.699 12.1763 165.966 10.5173 164.894 9.01951C164.621 8.64188 164.018 8.96859 164.248 9.38441C165.675 11.9387 166.348 14.7306 166.443 17.6244C166.543 20.6454 165.341 23.2252 163.696 25.7158C163.527 25.9704 163.918 26.2802 164.13 26.068C164.23 26.1189 164.352 26.1189 164.456 26.0256C166.829 23.8616 168.565 20.62 168.331 17.374C168.331 17.3571 168.322 17.3401 168.318 17.3231L168.322 17.3274Z" fill="black"/>
<path d="M145.268 28.5925C145.164 28.8302 145.303 29.0678 145.546 29.1484C145.724 29.2078 145.884 29.2672 146.071 29.2926C146.392 29.3308 146.514 28.9023 146.318 28.7113C146.193 28.5841 146.023 28.495 145.871 28.3974C145.659 28.2573 145.359 28.3804 145.264 28.5968L145.268 28.5925Z" fill="black"/>
<path d="M91.9137 9.41404C91.7878 9.41404 91.6533 9.44373 91.5188 9.50314L76.8351 15.0403C75.8328 15.4391 75.8458 15.9823 76.6572 16.2199L80.4279 17.374H80.4496L81.7384 21.5364C81.9163 21.9946 81.8251 22.1813 82.3242 22.1813C82.706 22.1813 82.8709 22.0074 83.0878 21.8079C83.2224 21.6806 84.0034 20.9381 84.8842 20.1022L84.906 20.081L88.694 22.8135C88.9587 22.9536 89.193 23.013 89.397 22.9917C89.7441 22.9663 89.9958 22.7032 90.1129 22.1813L92.6166 10.6572C92.8249 9.83834 92.43 9.38858 91.9137 9.41404Z" fill="black"/>
<path d="M95.7671 26.2376C95.3115 26.3691 95.0598 26.8655 94.8429 27.2474C94.6476 27.5953 94.2701 28.0027 94.2701 28.41C94.2701 28.5415 94.4089 28.6476 94.5391 28.6094C94.9427 28.4991 95.2421 28.0366 95.5328 27.7608C95.8539 27.4553 96.2835 27.0819 96.2921 26.6237C96.2921 26.3648 96.0231 26.1612 95.7628 26.2333L95.7671 26.2376Z" fill="black"/>
<path d="M100.631 17.3274C102.601 9.54564 94.3785 1.67482 86.8978 0.291589C82.7843 -0.467914 78.5059 0.253399 74.9998 2.48948C71.9884 4.40733 68.9077 7.81449 68.5258 11.4211C68.5171 11.5017 68.5432 11.5653 68.5779 11.6205C66.2044 17.5735 68.7905 25.0582 73.9931 28.8387C79.1524 32.5853 87.6354 33.8964 93.1201 29.9843C93.5844 29.6534 93.1982 28.9957 92.6689 29.2376C92.4693 29.3267 92.2697 29.4158 92.0744 29.5049C91.9746 29.3352 91.7663 29.2248 91.506 29.3479C87.8524 31.0409 82.7799 30.1838 79.1698 28.9278C78.7619 28.7878 78.4842 29.42 78.8747 29.6067C80.7969 30.519 82.8884 31.0536 85.032 31.1639C85.9258 31.2106 86.824 31.1766 87.7179 31.0875C86.3554 31.4227 84.9495 31.5755 83.4351 31.4439C80.3587 31.1724 77.6424 30.0522 75.0996 28.389C72.1186 26.4414 70.0836 24.0696 69.1203 20.6751C68.2828 17.7347 68.2394 14.6373 69.1637 11.7266C69.2027 11.6969 69.2418 11.6629 69.2635 11.6162C69.424 11.3192 69.5802 11.0265 69.7364 10.7379C68.8209 13.0419 68.5518 15.5962 68.9641 18.0317C69.7408 22.6524 72.405 25.7031 76.3233 28.2107C76.7919 28.512 77.2649 27.7398 76.7659 27.4809C73.2859 25.6777 70.5262 21.5746 69.9404 17.8238C69.2938 13.6826 70.8342 9.79599 73.3553 6.49915C73.5722 6.21911 73.1166 5.90936 72.8693 6.13424C72.4571 6.51187 72.0752 6.91921 71.7194 7.34776C72.2965 6.49915 72.9431 5.70146 73.7198 4.95893C73.5419 5.2517 73.8283 5.69298 74.1841 5.4681C75.0996 4.89529 75.9848 4.28429 76.9351 3.75815C77.612 3.38477 78.3323 3.08775 79.0266 2.74406C79.1394 2.77801 79.2696 2.7865 79.4214 2.74831C84.4635 1.49661 89.4839 2.03548 93.4109 5.63781C93.5627 5.77783 93.7493 5.71419 93.8448 5.5869C93.8101 5.76511 93.9099 5.97725 94.1529 5.97725C94.5781 5.97725 94.5781 5.33655 94.1529 5.33655C94.0314 5.33655 93.9489 5.38747 93.8968 5.46385C93.9055 5.39172 93.8882 5.31535 93.8187 5.24322C92.5083 3.88969 90.8551 2.76103 89.037 1.97183C94.3481 3.87271 98.7654 8.52307 99.4032 13.8905C99.0084 12.1763 98.2751 10.5173 97.2033 9.01951C96.9299 8.64188 96.3268 8.96859 96.5568 9.38441C97.9843 11.9387 98.6569 14.7306 98.7524 17.6244C98.8522 20.6454 97.6502 23.2252 96.0057 25.7159C95.8364 25.9704 96.227 26.2802 96.4396 26.068C96.5394 26.1189 96.6609 26.1189 96.765 26.0256C99.1385 23.8616 100.874 20.62 100.64 17.374C100.64 17.3571 100.631 17.3401 100.627 17.3231L100.631 17.3274Z" fill="black"/>
<path d="M77.5775 28.5884C77.4734 28.826 77.6122 29.0636 77.8552 29.1442C78.0331 29.2036 78.1937 29.263 78.3803 29.2885C78.7014 29.3267 78.8229 28.8981 78.6276 28.7072C78.5018 28.5799 78.3325 28.4908 78.1807 28.3932C77.968 28.2532 77.6686 28.3762 77.5732 28.5926L77.5775 28.5884Z" fill="black"/>
</svg>
