<svg width="16" height="15" viewBox="0 0 16 15" fill="none" xmlns="http://www.w3.org/2000/svg">
<path d="M9.62679 7.92209V7.92044C9.53567 7.92707 9.06601 7.95523 8.01818 7.95523C7.18157 7.95523 6.59263 7.93038 6.38555 7.92044V7.92292C3.16503 7.78128 0.76123 7.2205 0.76123 6.54956C0.76123 5.87945 3.16503 5.31867 6.38555 5.17454V7.36463C6.59595 7.37954 7.19897 7.41516 8.03226 7.41516C9.03205 7.41516 9.53319 7.37374 9.62679 7.36546V5.1762C12.8407 5.3195 15.2387 5.88028 15.2387 6.54956C15.2387 7.2205 12.8407 7.77962 9.62679 7.92209ZM9.62679 4.94841V2.98859H14.1113V0H1.901V2.98859H6.38555V4.94758C2.74093 5.1149 0 5.8372 0 6.70197C0 7.56674 2.74093 8.28821 6.38555 8.45636V14.7367H9.62679V8.45471C13.2656 8.28739 15.9999 7.56592 15.9999 6.70197C15.9999 5.83803 13.2656 5.11656 9.62679 4.94841Z" fill="white"/>
</svg>
