<svg width="12" height="75" viewBox="0 0 12 75" fill="none" xmlns="http://www.w3.org/2000/svg">
<path style="mix-blend-mode:screen" d="M3.52945 58.9751C4.17901 58.9751 4.70559 58.4486 4.70559 57.799C4.70559 57.1494 4.17901 56.6228 3.52945 56.6228C2.87988 56.6228 2.35325 57.1494 2.35325 57.799C2.35325 58.4486 2.87988 58.9751 3.52945 58.9751Z" fill="url(#paint0_radial_95_6463)"/>
<path style="mix-blend-mode:screen" d="M2.94188 73.8239C2.94188 74.475 2.41676 75 1.76568 75C1.1146 75 0.58954 74.475 0.58954 73.8239C0.58954 73.1728 1.1146 72.6477 1.76568 72.6477C2.41676 72.6477 2.94188 73.1728 2.94188 73.8239Z" fill="url(#paint1_radial_95_6463)"/>
<path style="mix-blend-mode:screen" d="M9.20076 71.2616C9.85032 71.2616 10.3769 70.735 10.3769 70.0855C10.3769 69.4359 9.85032 68.9093 9.20076 68.9093C8.55119 68.9093 8.02462 69.4359 8.02462 70.0855C8.02462 70.735 8.55119 71.2616 9.20076 71.2616Z" fill="url(#paint2_radial_95_6463)"/>
<path style="mix-blend-mode:screen" d="M11.552 52.4014C11.552 52.7374 11.279 52.9894 10.964 52.9894C10.6489 52.9894 10.3759 52.7164 10.3759 52.4014C10.3759 52.0863 10.6489 51.8133 10.964 51.8133C11.279 51.8133 11.552 52.0863 11.552 52.4014Z" fill="url(#paint3_radial_95_6463)"/>
<path style="mix-blend-mode:screen" d="M9.20076 44.2523C9.20076 44.5884 8.92772 44.8404 8.61269 44.8404C8.29765 44.8404 8.02462 44.5674 8.02462 44.2523C8.02462 43.9373 8.29765 43.6643 8.61269 43.6643C8.92772 43.6643 9.20076 43.9373 9.20076 44.2523Z" fill="url(#paint4_radial_95_6463)"/>
<path style="mix-blend-mode:screen" d="M4.11696 29.6767C4.11696 30.0128 3.84393 30.2648 3.52889 30.2648C3.21385 30.2648 2.94082 29.9918 2.94082 29.6767C2.94082 29.3617 3.21385 29.0886 3.52889 29.0886C3.84393 29.0886 4.11696 29.3617 4.11696 29.6767Z" fill="url(#paint5_radial_95_6463)"/>
<path style="mix-blend-mode:screen" d="M9.78538 11.8033C9.78538 12.1394 9.51235 12.3914 9.19731 12.3914C8.88227 12.3914 8.60924 12.1184 8.60924 11.8033C8.60924 11.4883 8.88227 11.2153 9.19731 11.2153C9.51235 11.2153 9.78538 11.4883 9.78538 11.8033Z" fill="url(#paint6_radial_95_6463)"/>
<path style="mix-blend-mode:screen" d="M4.11696 47.2558C4.11696 47.5918 3.84393 47.8438 3.52889 47.8438C3.21385 47.8438 2.94082 47.5708 2.94082 47.2558C2.94082 46.9407 3.21385 46.6677 3.52889 46.6677C3.84393 46.6677 4.11696 46.9407 4.11696 47.2558Z" fill="url(#paint7_radial_95_6463)"/>
<path style="mix-blend-mode:screen" d="M8.59156 35.9144C8.59156 36.2504 8.31853 36.5025 8.00349 36.5025C7.68846 36.5025 7.41543 36.2294 7.41543 35.9144C7.41543 35.5993 7.68846 35.3263 8.00349 35.3263C8.31853 35.3263 8.59156 35.5993 8.59156 35.9144Z" fill="url(#paint8_radial_95_6463)"/>
<path style="mix-blend-mode:screen" d="M8.59156 64.4359C8.59156 64.772 8.31853 65.024 8.00349 65.024C7.68846 65.024 7.41543 64.751 7.41543 64.4359C7.41543 64.1209 7.68846 63.8479 8.00349 63.8479C8.31853 63.8479 8.59156 64.1209 8.59156 64.4359Z" fill="url(#paint9_radial_95_6463)"/>
<path style="mix-blend-mode:screen" d="M2.47785 63.4907C2.47785 63.7007 2.3098 63.8478 2.12078 63.8478C1.93175 63.8478 1.76371 63.6797 1.76371 63.4907C1.76371 63.3017 1.93175 63.1337 2.12078 63.1337C2.3098 63.1337 2.47785 63.3017 2.47785 63.4907Z" fill="url(#paint10_radial_95_6463)"/>
<path style="mix-blend-mode:screen" d="M9.32332 58.009C9.32332 58.219 9.15534 58.366 8.96632 58.366C8.77729 58.366 8.60924 58.198 8.60924 58.009C8.60924 57.82 8.77729 57.6519 8.96632 57.6519C9.15534 57.6519 9.32332 57.82 9.32332 58.009Z" fill="url(#paint11_radial_95_6463)"/>
<path style="mix-blend-mode:screen" d="M3.29725 19.7845C3.29725 19.9945 3.12926 20.1415 2.94024 20.1415C2.75121 20.1415 2.58317 19.9735 2.58317 19.7845C2.58317 19.5954 2.75121 19.4274 2.94024 19.4274C3.12926 19.4274 3.29725 19.5954 3.29725 19.7845Z" fill="url(#paint12_radial_95_6463)"/>
<path style="mix-blend-mode:screen" d="M2.94024 11.5724C3.13743 11.5724 3.29725 11.4126 3.29725 11.2154C3.29725 11.0182 3.13743 10.8583 2.94024 10.8583C2.74305 10.8583 2.58317 11.0182 2.58317 11.2154C2.58317 11.4126 2.74305 11.5724 2.94024 11.5724Z" fill="url(#paint13_radial_95_6463)"/>
<path style="mix-blend-mode:screen" d="M5.85978 68.5524C5.85978 68.7624 5.69173 68.9094 5.50271 68.9094C5.31368 68.9094 5.1457 68.7414 5.1457 68.5524C5.1457 68.3634 5.31368 68.1954 5.50271 68.1954C5.69173 68.1954 5.85978 68.3634 5.85978 68.5524Z" fill="url(#paint14_radial_95_6463)"/>
<path style="mix-blend-mode:screen" d="M0.71408 52.1703C0.71408 52.3804 0.546095 52.5274 0.357072 52.5274C0.168049 52.5274 0 52.3593 0 52.1703C0 51.9813 0.168049 51.8133 0.357072 51.8133C0.546095 51.8133 0.71408 51.9813 0.71408 52.1703Z" fill="url(#paint15_radial_95_6463)"/>
<path style="mix-blend-mode:screen" d="M2.12111 40.9341C2.12111 41.1441 1.95307 41.2911 1.76404 41.2911C1.57502 41.2911 1.40703 41.1231 1.40703 40.9341C1.40703 40.7451 1.57502 40.577 1.76404 40.577C1.95307 40.577 2.12111 40.7451 2.12111 40.9341Z" fill="url(#paint16_radial_95_6463)"/>
<path style="mix-blend-mode:screen" d="M6.95043 0.35704C6.95043 0.567065 6.78244 0.71408 6.59342 0.71408C6.4044 0.71408 6.23635 0.546063 6.23635 0.35704C6.23635 0.168017 6.4044 0 6.59342 0C6.78244 0 6.95043 0.168017 6.95043 0.35704Z" fill="url(#paint17_radial_95_6463)"/>
<path style="mix-blend-mode:screen" d="M6.23767 53.8716C6.43486 53.8716 6.59474 53.7118 6.59474 53.5146C6.59474 53.3174 6.43486 53.1576 6.23767 53.1576C6.04048 53.1576 5.88066 53.3174 5.88066 53.5146C5.88066 53.7118 6.04048 53.8716 6.23767 53.8716Z" fill="url(#paint18_radial_95_6463)"/>
<path style="mix-blend-mode:screen" d="M2.94024 36.8595C3.13743 36.8595 3.29725 36.6997 3.29725 36.5025C3.29725 36.3053 3.13743 36.1454 2.94024 36.1454C2.74305 36.1454 2.58317 36.3053 2.58317 36.5025C2.58317 36.6997 2.74305 36.8595 2.94024 36.8595Z" fill="url(#paint19_radial_95_6463)"/>
<path style="mix-blend-mode:screen" d="M8.96665 23.8589C8.96665 24.0689 8.7986 24.216 8.60958 24.216C8.42056 24.216 8.25257 24.0479 8.25257 23.8589C8.25257 23.6699 8.42056 23.5019 8.60958 23.5019C8.7986 23.5019 8.96665 23.6699 8.96665 23.8589Z" fill="url(#paint20_radial_95_6463)"/>
<defs>
<radialGradient id="paint0_radial_95_6463" cx="0" cy="0" r="1" gradientUnits="userSpaceOnUse" gradientTransform="translate(3.52942 57.799) scale(1.17617 1.17615)">
<stop stop-color="white"/>
<stop offset="0.14" stop-color="#18FFFF"/>
<stop offset="0.18" stop-color="#16F3F3"/>
<stop offset="0.24" stop-color="#14D6D6"/>
<stop offset="0.33" stop-color="#0FA6A6"/>
<stop offset="0.44" stop-color="#096363"/>
<stop offset="0.56" stop-color="#010F0F"/>
<stop offset="0.58"/>
</radialGradient>
<radialGradient id="paint1_radial_95_6463" cx="0" cy="0" r="1" gradientUnits="userSpaceOnUse" gradientTransform="translate(1.74471 73.8239) scale(1.17617 1.17614)">
<stop stop-color="white"/>
<stop offset="0.14" stop-color="#18FFFF"/>
<stop offset="0.18" stop-color="#16F3F3"/>
<stop offset="0.24" stop-color="#14D6D6"/>
<stop offset="0.33" stop-color="#0FA6A6"/>
<stop offset="0.44" stop-color="#096363"/>
<stop offset="0.56" stop-color="#010F0F"/>
<stop offset="0.58"/>
</radialGradient>
<radialGradient id="paint2_radial_95_6463" cx="0" cy="0" r="1" gradientUnits="userSpaceOnUse" gradientTransform="translate(9.20076 70.0855) scale(1.05012)">
<stop stop-color="white"/>
<stop offset="0.14" stop-color="#18FFFF"/>
<stop offset="0.18" stop-color="#16F3F3"/>
<stop offset="0.24" stop-color="#14D6D6"/>
<stop offset="0.33" stop-color="#0FA6A6"/>
<stop offset="0.44" stop-color="#096363"/>
<stop offset="0.56" stop-color="#010F0F"/>
<stop offset="0.58"/>
</radialGradient>
<radialGradient id="paint3_radial_95_6463" cx="0" cy="0" r="1" gradientUnits="userSpaceOnUse" gradientTransform="translate(10.964 52.4014) scale(0.588069)">
<stop stop-color="white"/>
<stop offset="0.14" stop-color="#18FFFF"/>
<stop offset="0.18" stop-color="#16F3F3"/>
<stop offset="0.24" stop-color="#14D6D6"/>
<stop offset="0.33" stop-color="#0FA6A6"/>
<stop offset="0.44" stop-color="#096363"/>
<stop offset="0.56" stop-color="#010F0F"/>
<stop offset="0.58"/>
</radialGradient>
<radialGradient id="paint4_radial_95_6463" cx="0" cy="0" r="1" gradientUnits="userSpaceOnUse" gradientTransform="translate(8.59168 44.2523) scale(0.588069)">
<stop stop-color="white"/>
<stop offset="0.14" stop-color="#18FFFF"/>
<stop offset="0.18" stop-color="#16F3F3"/>
<stop offset="0.24" stop-color="#14D6D6"/>
<stop offset="0.33" stop-color="#0FA6A6"/>
<stop offset="0.44" stop-color="#096363"/>
<stop offset="0.56" stop-color="#010F0F"/>
<stop offset="0.58"/>
</radialGradient>
<radialGradient id="paint5_radial_95_6463" cx="0" cy="0" r="1" gradientUnits="userSpaceOnUse" gradientTransform="translate(3.52889 29.6767) scale(0.588069 0.588085)">
<stop stop-color="white"/>
<stop offset="0.14" stop-color="#18FFFF"/>
<stop offset="0.18" stop-color="#16F3F3"/>
<stop offset="0.24" stop-color="#14D6D6"/>
<stop offset="0.33" stop-color="#0FA6A6"/>
<stop offset="0.44" stop-color="#096363"/>
<stop offset="0.56" stop-color="#010F0F"/>
<stop offset="0.58"/>
</radialGradient>
<radialGradient id="paint6_radial_95_6463" cx="0" cy="0" r="1" gradientUnits="userSpaceOnUse" gradientTransform="translate(9.19731 11.8033) scale(0.588069)">
<stop stop-color="white"/>
<stop offset="0.14" stop-color="#18FFFF"/>
<stop offset="0.18" stop-color="#16F3F3"/>
<stop offset="0.24" stop-color="#14D6D6"/>
<stop offset="0.33" stop-color="#0FA6A6"/>
<stop offset="0.44" stop-color="#096363"/>
<stop offset="0.56" stop-color="#010F0F"/>
<stop offset="0.58"/>
</radialGradient>
<radialGradient id="paint7_radial_95_6463" cx="0" cy="0" r="1" gradientUnits="userSpaceOnUse" gradientTransform="translate(3.52889 47.2558) scale(0.588069)">
<stop stop-color="white"/>
<stop offset="0.14" stop-color="#18FFFF"/>
<stop offset="0.18" stop-color="#16F3F3"/>
<stop offset="0.24" stop-color="#14D6D6"/>
<stop offset="0.33" stop-color="#0FA6A6"/>
<stop offset="0.44" stop-color="#096363"/>
<stop offset="0.56" stop-color="#010F0F"/>
<stop offset="0.58"/>
</radialGradient>
<radialGradient id="paint8_radial_95_6463" cx="0" cy="0" r="1" gradientUnits="userSpaceOnUse" gradientTransform="translate(8.00349 35.9144) scale(0.588069 0.588085)">
<stop stop-color="white"/>
<stop offset="0.14" stop-color="#18FFFF"/>
<stop offset="0.18" stop-color="#16F3F3"/>
<stop offset="0.24" stop-color="#14D6D6"/>
<stop offset="0.33" stop-color="#0FA6A6"/>
<stop offset="0.44" stop-color="#096363"/>
<stop offset="0.56" stop-color="#010F0F"/>
<stop offset="0.58"/>
</radialGradient>
<radialGradient id="paint9_radial_95_6463" cx="0" cy="0" r="1" gradientUnits="userSpaceOnUse" gradientTransform="translate(8.00349 64.4359) scale(0.588069)">
<stop stop-color="white"/>
<stop offset="0.14" stop-color="#18FFFF"/>
<stop offset="0.18" stop-color="#16F3F3"/>
<stop offset="0.24" stop-color="#14D6D6"/>
<stop offset="0.33" stop-color="#0FA6A6"/>
<stop offset="0.44" stop-color="#096363"/>
<stop offset="0.56" stop-color="#010F0F"/>
<stop offset="0.58"/>
</radialGradient>
<radialGradient id="paint10_radial_95_6463" cx="0" cy="0" r="1" gradientUnits="userSpaceOnUse" gradientTransform="translate(2.12078 63.4907) scale(0.357072 0.35704)">
<stop stop-color="white"/>
<stop offset="0.14" stop-color="#18FFFF"/>
<stop offset="0.18" stop-color="#16F3F3"/>
<stop offset="0.24" stop-color="#14D6D6"/>
<stop offset="0.33" stop-color="#0FA6A6"/>
<stop offset="0.44" stop-color="#096363"/>
<stop offset="0.56" stop-color="#010F0F"/>
<stop offset="0.58"/>
</radialGradient>
<radialGradient id="paint11_radial_95_6463" cx="0" cy="0" r="1" gradientUnits="userSpaceOnUse" gradientTransform="translate(8.96628 58.009) scale(0.35704)">
<stop stop-color="white"/>
<stop offset="0.14" stop-color="#18FFFF"/>
<stop offset="0.18" stop-color="#16F3F3"/>
<stop offset="0.24" stop-color="#14D6D6"/>
<stop offset="0.33" stop-color="#0FA6A6"/>
<stop offset="0.44" stop-color="#096363"/>
<stop offset="0.56" stop-color="#010F0F"/>
<stop offset="0.58"/>
</radialGradient>
<radialGradient id="paint12_radial_95_6463" cx="0" cy="0" r="1" gradientUnits="userSpaceOnUse" gradientTransform="translate(2.94021 19.7845) scale(0.35704)">
<stop stop-color="white"/>
<stop offset="0.14" stop-color="#18FFFF"/>
<stop offset="0.18" stop-color="#16F3F3"/>
<stop offset="0.24" stop-color="#14D6D6"/>
<stop offset="0.33" stop-color="#0FA6A6"/>
<stop offset="0.44" stop-color="#096363"/>
<stop offset="0.56" stop-color="#010F0F"/>
<stop offset="0.58"/>
</radialGradient>
<radialGradient id="paint13_radial_95_6463" cx="0" cy="0" r="1" gradientUnits="userSpaceOnUse" gradientTransform="translate(2.94021 11.2154) scale(0.35704)">
<stop stop-color="white"/>
<stop offset="0.14" stop-color="#18FFFF"/>
<stop offset="0.18" stop-color="#16F3F3"/>
<stop offset="0.24" stop-color="#14D6D6"/>
<stop offset="0.33" stop-color="#0FA6A6"/>
<stop offset="0.44" stop-color="#096363"/>
<stop offset="0.56" stop-color="#010F0F"/>
<stop offset="0.58"/>
</radialGradient>
<radialGradient id="paint14_radial_95_6463" cx="0" cy="0" r="1" gradientUnits="userSpaceOnUse" gradientTransform="translate(5.50274 68.5524) scale(0.35704)">
<stop stop-color="white"/>
<stop offset="0.14" stop-color="#18FFFF"/>
<stop offset="0.18" stop-color="#16F3F3"/>
<stop offset="0.24" stop-color="#14D6D6"/>
<stop offset="0.33" stop-color="#0FA6A6"/>
<stop offset="0.44" stop-color="#096363"/>
<stop offset="0.56" stop-color="#010F0F"/>
<stop offset="0.58"/>
</radialGradient>
<radialGradient id="paint15_radial_95_6463" cx="0" cy="0" r="1" gradientUnits="userSpaceOnUse" gradientTransform="translate(0.35704 52.1703) scale(0.35704)">
<stop stop-color="white"/>
<stop offset="0.14" stop-color="#18FFFF"/>
<stop offset="0.18" stop-color="#16F3F3"/>
<stop offset="0.24" stop-color="#14D6D6"/>
<stop offset="0.33" stop-color="#0FA6A6"/>
<stop offset="0.44" stop-color="#096363"/>
<stop offset="0.56" stop-color="#010F0F"/>
<stop offset="0.58"/>
</radialGradient>
<radialGradient id="paint16_radial_95_6463" cx="0" cy="0" r="1" gradientUnits="userSpaceOnUse" gradientTransform="translate(1.74307 40.9341) scale(0.35704 0.357056)">
<stop stop-color="white"/>
<stop offset="0.14" stop-color="#18FFFF"/>
<stop offset="0.18" stop-color="#16F3F3"/>
<stop offset="0.24" stop-color="#14D6D6"/>
<stop offset="0.33" stop-color="#0FA6A6"/>
<stop offset="0.44" stop-color="#096363"/>
<stop offset="0.56" stop-color="#010F0F"/>
<stop offset="0.58"/>
</radialGradient>
<radialGradient id="paint17_radial_95_6463" cx="0" cy="0" r="1" gradientUnits="userSpaceOnUse" gradientTransform="translate(6.59339 0.35704) scale(0.35704)">
<stop stop-color="white"/>
<stop offset="0.14" stop-color="#18FFFF"/>
<stop offset="0.18" stop-color="#16F3F3"/>
<stop offset="0.24" stop-color="#14D6D6"/>
<stop offset="0.33" stop-color="#0FA6A6"/>
<stop offset="0.44" stop-color="#096363"/>
<stop offset="0.56" stop-color="#010F0F"/>
<stop offset="0.58"/>
</radialGradient>
<radialGradient id="paint18_radial_95_6463" cx="0" cy="0" r="1" gradientUnits="userSpaceOnUse" gradientTransform="translate(6.2377 53.5146) scale(0.35704)">
<stop stop-color="white"/>
<stop offset="0.14" stop-color="#18FFFF"/>
<stop offset="0.18" stop-color="#16F3F3"/>
<stop offset="0.24" stop-color="#14D6D6"/>
<stop offset="0.33" stop-color="#0FA6A6"/>
<stop offset="0.44" stop-color="#096363"/>
<stop offset="0.56" stop-color="#010F0F"/>
<stop offset="0.58"/>
</radialGradient>
<radialGradient id="paint19_radial_95_6463" cx="0" cy="0" r="1" gradientUnits="userSpaceOnUse" gradientTransform="translate(2.94021 36.5025) scale(0.35704 0.357056)">
<stop stop-color="white"/>
<stop offset="0.14" stop-color="#18FFFF"/>
<stop offset="0.18" stop-color="#16F3F3"/>
<stop offset="0.24" stop-color="#14D6D6"/>
<stop offset="0.33" stop-color="#0FA6A6"/>
<stop offset="0.44" stop-color="#096363"/>
<stop offset="0.56" stop-color="#010F0F"/>
<stop offset="0.58"/>
</radialGradient>
<radialGradient id="paint20_radial_95_6463" cx="0" cy="0" r="1" gradientUnits="userSpaceOnUse" gradientTransform="translate(8.58861 23.8589) scale(0.35704)">
<stop stop-color="white"/>
<stop offset="0.14" stop-color="#18FFFF"/>
<stop offset="0.18" stop-color="#16F3F3"/>
<stop offset="0.24" stop-color="#14D6D6"/>
<stop offset="0.33" stop-color="#0FA6A6"/>
<stop offset="0.44" stop-color="#096363"/>
<stop offset="0.56" stop-color="#010F0F"/>
<stop offset="0.58"/>
</radialGradient>
</defs>
</svg>
