<svg width="17" height="24" viewBox="0 0 17 24" fill="none" xmlns="http://www.w3.org/2000/svg">
<path fill-rule="evenodd" clip-rule="evenodd" d="M15.7166 7.24347C15.4689 4.67297 13.2499 3.8112 10.4482 3.56575L10.4482 2.42417e-05L8.27715 0.000396708L8.27728 3.47214C7.70729 3.47207 7.12405 3.48334 6.5446 3.4949L6.54492 0.000173872L4.37566 0.000111017L4.37486 3.56481C3.90495 3.57441 3.44348 3.58314 2.99351 3.58343L2.99323 3.57238L-0.00031873 3.57136L0.000251746 5.88944C0.000251746 5.88944 1.60303 5.85888 1.57639 5.8884C2.45552 5.88866 2.74223 6.3989 2.82488 6.83947L2.82507 10.9016C2.88574 10.9019 2.96488 10.9044 3.05448 10.9167L2.82579 10.9168L2.82466 16.6076C2.78608 16.8843 2.62345 17.3254 2.00923 17.3265C2.037 17.3511 0.431495 17.3261 0.431495 17.3261L0.000396876 19.9187L2.82548 19.9184C3.14448 19.9188 3.46038 19.9222 3.77281 19.9256L3.77285 19.9256C3.97519 19.9278 4.17608 19.93 4.37542 19.9313L4.37648 23.5382L6.54457 23.5386L6.54509 19.9703C7.1398 19.9827 7.7159 19.9874 8.27833 19.9869L8.27739 23.5387L10.4478 23.5384L10.4485 19.9385C14.0974 19.7292 16.6519 18.8097 16.968 15.384C17.2241 12.6249 15.9267 11.3936 13.8552 10.8956C15.1133 10.2537 15.9001 9.12465 15.7161 7.24362L15.7166 7.24347ZM12.6793 14.9547C12.6798 17.4284 8.79328 17.3738 7.01659 17.3489C6.85749 17.3467 6.71531 17.3447 6.59435 17.3448L6.5949 12.5666C6.74278 12.5666 6.92237 12.5624 7.12582 12.5576C8.94673 12.5146 12.6784 12.4265 12.6798 14.9546L12.6793 14.9547ZM6.95208 10.3836C8.43542 10.4078 11.6687 10.4608 11.6693 8.21337C11.6696 5.91428 8.55899 5.99692 7.03981 6.03728C6.86903 6.04182 6.71835 6.04582 6.59447 6.04585L6.59435 10.3794C6.6966 10.3794 6.8171 10.3814 6.95208 10.3836Z" fill="#F4FFFC"/>
</svg>
