<svg width="98" height="98" viewBox="0 0 98 98" fill="none" xmlns="http://www.w3.org/2000/svg">
<g clip-path="url(#clip0_0_40)">
<path d="M94.6207 80.2585H3.37928C1.51288 80.2585 0 78.7456 0 76.8792V16.0516C0 14.1852 1.51288 12.6724 3.37928 12.6724H94.6207C96.4871 12.6724 98 14.1852 98 16.0516V76.8792C98 78.7456 96.4871 80.2585 94.6207 80.2585Z" fill="#464655"/>
<path d="M92.9309 17.7415H5.06897V65.0517H92.9309V17.7415Z" fill="#959CB3"/>
<path d="M0 70.1206V76.8792C0 78.7456 1.51288 80.2584 3.37928 80.2584H94.6207C96.4871 80.2584 98 78.7456 98 76.8792V70.1206H0Z" fill="#C7CFE2"/>
<path d="M62.5173 93.7758H35.4827L37.1724 80.2585H60.8275L62.5173 93.7758Z" fill="#AFB9D2"/>
<path d="M61.25 83.638L60.8276 80.2585H37.1724L36.75 83.638H61.25Z" fill="#959CB3"/>
<path d="M49 77.7241C50.3997 77.7241 51.5344 76.5894 51.5344 75.1897C51.5344 73.79 50.3997 72.6553 49 72.6553C47.6003 72.6553 46.4656 73.79 46.4656 75.1897C46.4656 76.5894 47.6003 77.7241 49 77.7241Z" fill="#959CB3"/>
<path d="M62.5173 95.4657H35.4827C34.5496 95.4657 33.793 94.709 33.793 93.7759C33.793 92.8428 34.5496 92.0862 35.4827 92.0862H62.5171C63.4502 92.0862 64.2068 92.8428 64.2068 93.7759C64.2068 94.709 63.4504 95.4657 62.5173 95.4657Z" fill="#C7CFE2"/>
<path d="M81.1034 65.0517H16.8966V4.22416C16.8966 3.29105 17.6532 2.53442 18.5863 2.53442H79.4139C80.347 2.53442 81.1036 3.29105 81.1036 4.22416V65.0517H81.1034Z" fill="#EFF2FA"/>
<path d="M74.3449 22.8104H23.6552C22.7221 22.8104 21.9655 22.0537 21.9655 21.1206V9.29325C21.9655 8.36014 22.7221 7.60352 23.6552 7.60352H74.3449C75.278 7.60352 76.0347 8.36014 76.0347 9.29325V21.1208C76.0345 22.0539 75.278 22.8104 74.3449 22.8104Z" fill="#F7ABAF"/>
<path d="M73.5 32.9482H24.5C23.1002 32.9482 21.9656 31.8134 21.9656 30.4138C21.9656 29.0141 23.1004 27.8794 24.5 27.8794H73.5C74.8997 27.8794 76.0344 29.0142 76.0344 30.4138C76.0344 31.8134 74.8997 32.9482 73.5 32.9482Z" fill="#FF6464"/>
<path d="M74.3449 41.3966H52.3793C51.4462 41.3966 50.6896 40.6399 50.6896 39.7068C50.6896 38.7737 51.4462 38.0171 52.3793 38.0171H74.3449C75.278 38.0171 76.0346 38.7737 76.0346 39.7068C76.0344 40.6399 75.278 41.3966 74.3449 41.3966Z" fill="#AFB9D2"/>
<path d="M45.6208 41.3966H23.6552C22.7221 41.3966 21.9655 40.6399 21.9655 39.7068C21.9655 38.7737 22.7221 38.0171 23.6552 38.0171H45.6208C46.5539 38.0171 47.3105 38.7737 47.3105 39.7068C47.3103 40.6399 46.5539 41.3966 45.6208 41.3966Z" fill="#AFB9D2"/>
<path d="M74.3449 48.1551H52.3793C51.4462 48.1551 50.6896 47.3985 50.6896 46.4654C50.6896 45.5323 51.4462 44.7756 52.3793 44.7756H74.3449C75.278 44.7756 76.0346 45.5323 76.0346 46.4654C76.0344 47.3987 75.278 48.1551 74.3449 48.1551Z" fill="#C7CFE2"/>
<path d="M45.6208 48.1551H23.6552C22.7221 48.1551 21.9655 47.3985 21.9655 46.4654C21.9655 45.5323 22.7221 44.7756 23.6552 44.7756H45.6208C46.5539 44.7756 47.3105 45.5323 47.3105 46.4654C47.3103 47.3987 46.5539 48.1551 45.6208 48.1551Z" fill="#C7CFE2"/>
<path d="M74.3449 54.9139H52.3793C51.4462 54.9139 50.6896 54.1573 50.6896 53.2242C50.6896 52.2911 51.4462 51.5344 52.3793 51.5344H74.3449C75.278 51.5344 76.0346 52.2911 76.0346 53.2242C76.0344 54.1573 75.278 54.9139 74.3449 54.9139Z" fill="#C7CFE2"/>
<path d="M74.3449 61.6724H52.3793C51.4462 61.6724 50.6896 60.9158 50.6896 59.9827C50.6896 59.0496 51.4462 58.293 52.3793 58.293H74.3449C75.278 58.293 76.0346 59.0496 76.0346 59.9827C76.0344 60.9158 75.278 61.6724 74.3449 61.6724Z" fill="#C7CFE2"/>
<path d="M45.6208 54.9139H23.6552C22.7221 54.9139 21.9655 54.1573 21.9655 53.2242C21.9655 52.2911 22.7221 51.5344 23.6552 51.5344H45.6208C46.5539 51.5344 47.3105 52.2911 47.3105 53.2242C47.3103 54.1573 46.5539 54.9139 45.6208 54.9139Z" fill="#C7CFE2"/>
<path d="M47.3102 65.0518H21.9656V59.8804C21.9656 59.0039 22.6761 58.2932 23.5527 58.2932H45.7233C46.5997 58.2932 47.3104 59.0037 47.3104 59.8804V65.0518H47.3102Z" fill="#E4EAF6"/>
<path d="M84.4827 48.155H77.7241V90.3965H84.4827V48.155Z" fill="#FF6464"/>
<path d="M81.1034 48.155H77.7241V90.3965H81.1034V48.155Z" fill="#D2555A"/>
<path d="M77.7241 48.1552L80.6117 36.605C80.7397 36.0929 81.4673 36.0929 81.5953 36.605L84.4827 48.1552H77.7241Z" fill="#FFE6A1"/>
<path d="M80.6117 36.605L79.4137 41.3966H82.793L81.595 36.605C81.4671 36.0929 80.7398 36.0929 80.6117 36.605Z" fill="#FF6464"/>
<path d="M82.7931 95.4655H79.4139C78.4808 95.4655 77.7241 94.7089 77.7241 93.7758V90.3965H84.4827V93.7758C84.4827 94.7089 83.7262 95.4655 82.7931 95.4655Z" fill="#FFE6A1"/>
<path d="M81.1034 93.7758V90.3965H77.7241V93.7758C77.7241 94.7089 78.4808 95.4655 79.4139 95.4655H82.7931C81.86 95.4655 81.1034 94.7089 81.1034 93.7758Z" fill="#FFDC9B"/>
</g>
<defs>
<clipPath id="clip0_0_40">
<rect width="98" height="98" fill="white"/>
</clipPath>
</defs>
</svg>
