<svg width="16" height="25" viewBox="0 0 16 25" fill="none" xmlns="http://www.w3.org/2000/svg">
<path d="M16 24.9517V18.7969H0V24.9517H16Z" fill="#8981EF"/>
<path d="M8 0C6.41774 0 4.87103 0.487795 3.55544 1.4017C2.23984 2.31561 1.21446 3.61459 0.608964 5.13436C0.00346251 6.65413 -0.154959 8.32645 0.153723 9.93983C0.462404 11.5532 1.22434 13.0352 2.34316 14.1984C3.46198 15.3616 4.88744 16.1537 6.43929 16.4746C7.99113 16.7956 9.59967 16.6308 11.0615 16.0013C12.5233 15.3718 13.7727 14.3058 14.6518 12.938C15.5308 11.5703 16 9.96222 16 8.31722C16 6.11136 15.1571 3.99584 13.6569 2.43606C12.1566 0.876275 10.1217 0 8 0ZM8 12.1293L4.33333 8.31722L8 4.50516L11.6667 8.31722L8 12.1293Z" fill="#291CCB"/>
</svg>
