<svg width="98" height="98" viewBox="0 0 98 98" fill="none" xmlns="http://www.w3.org/2000/svg">
<g clip-path="url(#clip0_0_612)">
<path d="M94.6207 80.2585H3.37928C1.51288 80.2585 0 78.7456 0 76.8792V16.0516C0 14.1852 1.51288 12.6724 3.37928 12.6724H94.6207C96.4871 12.6724 98 14.1852 98 16.0516V76.8792C98 78.7456 96.4871 80.2585 94.6207 80.2585Z" fill="#464655"/>
<path d="M92.9313 17.7415H5.06934V65.0517H92.9313V17.7415Z" fill="#959CB3"/>
<path d="M0 70.1206V76.8792C0 78.7456 1.51288 80.2584 3.37928 80.2584H94.6207C96.4871 80.2584 98 78.7456 98 76.8792V70.1206H0Z" fill="#C7CFE2"/>
<path d="M62.517 93.7758H35.4824L37.1722 80.2585H60.8273L62.517 93.7758Z" fill="#AFB9D2"/>
<path d="M61.25 83.638L60.8276 80.2585H37.1724L36.75 83.638H61.25Z" fill="#959CB3"/>
<path d="M49.0002 77.7241C50.3999 77.7241 51.5346 76.5894 51.5346 75.1897C51.5346 73.79 50.3999 72.6553 49.0002 72.6553C47.6005 72.6553 46.4658 73.79 46.4658 75.1897C46.4658 76.5894 47.6005 77.7241 49.0002 77.7241Z" fill="#959CB3"/>
<path d="M62.5173 95.4657H35.4827C34.5496 95.4657 33.793 94.709 33.793 93.7759C33.793 92.8428 34.5496 92.0862 35.4827 92.0862H62.5171C63.4502 92.0862 64.2068 92.8428 64.2068 93.7759C64.2068 94.709 63.4504 95.4657 62.5173 95.4657Z" fill="#C7CFE2"/>
<path d="M81.1033 65.0517H16.8965V4.22416C16.8965 3.29105 17.6531 2.53442 18.5862 2.53442H79.4138C80.3469 2.53442 81.1035 3.29105 81.1035 4.22416V65.0517H81.1033Z" fill="#EFF2FA"/>
<path d="M74.3453 22.8104H23.6556C22.7224 22.8104 21.9658 22.0537 21.9658 21.1206V9.29325C21.9658 8.36014 22.7224 7.60352 23.6556 7.60352H74.3453C75.2784 7.60352 76.035 8.36014 76.035 9.29325V21.1208C76.0348 22.0539 75.2784 22.8104 74.3453 22.8104Z" fill="#F7ABAF"/>
<path d="M73.5002 32.9482H24.5002C23.1005 32.9482 21.9658 31.8134 21.9658 30.4138C21.9658 29.0141 23.1007 27.8794 24.5002 27.8794H73.5002C74.9 27.8794 76.0346 29.0142 76.0346 30.4138C76.0346 31.8134 74.9 32.9482 73.5002 32.9482Z" fill="#FF6464"/>
<path d="M74.3458 41.3966H52.3802C51.4471 41.3966 50.6904 40.6399 50.6904 39.7068C50.6904 38.7737 51.4471 38.0171 52.3802 38.0171H74.3458C75.2789 38.0171 76.0355 38.7737 76.0355 39.7068C76.0353 40.6399 75.2789 41.3966 74.3458 41.3966Z" fill="#AFB9D2"/>
<path d="M45.6211 41.3966H23.6556C22.7224 41.3966 21.9658 40.6399 21.9658 39.7068C21.9658 38.7737 22.7224 38.0171 23.6556 38.0171H45.6211C46.5542 38.0171 47.3109 38.7737 47.3109 39.7068C47.3107 40.6399 46.5542 41.3966 45.6211 41.3966Z" fill="#AFB9D2"/>
<path d="M74.3458 48.1551H52.3802C51.4471 48.1551 50.6904 47.3985 50.6904 46.4654C50.6904 45.5323 51.4471 44.7756 52.3802 44.7756H74.3458C75.2789 44.7756 76.0355 45.5323 76.0355 46.4654C76.0353 47.3987 75.2789 48.1551 74.3458 48.1551Z" fill="#C7CFE2"/>
<path d="M45.6211 48.1551H23.6556C22.7224 48.1551 21.9658 47.3985 21.9658 46.4654C21.9658 45.5323 22.7224 44.7756 23.6556 44.7756H45.6211C46.5542 44.7756 47.3109 45.5323 47.3109 46.4654C47.3107 47.3987 46.5542 48.1551 45.6211 48.1551Z" fill="#C7CFE2"/>
<path d="M74.3458 54.9139H52.3802C51.4471 54.9139 50.6904 54.1573 50.6904 53.2242C50.6904 52.2911 51.4471 51.5344 52.3802 51.5344H74.3458C75.2789 51.5344 76.0355 52.2911 76.0355 53.2242C76.0353 54.1573 75.2789 54.9139 74.3458 54.9139Z" fill="#C7CFE2"/>
<path d="M74.3458 61.6724H52.3802C51.4471 61.6724 50.6904 60.9158 50.6904 59.9827C50.6904 59.0496 51.4471 58.293 52.3802 58.293H74.3458C75.2789 58.293 76.0355 59.0496 76.0355 59.9827C76.0353 60.9158 75.2789 61.6724 74.3458 61.6724Z" fill="#C7CFE2"/>
<path d="M45.6211 54.9139H23.6556C22.7224 54.9139 21.9658 54.1573 21.9658 53.2242C21.9658 52.2911 22.7224 51.5344 23.6556 51.5344H45.6211C46.5542 51.5344 47.3109 52.2911 47.3109 53.2242C47.3107 54.1573 46.5542 54.9139 45.6211 54.9139Z" fill="#C7CFE2"/>
<path d="M47.3105 65.0518H21.9658V59.8804C21.9658 59.0039 22.6763 58.2932 23.553 58.2932H45.7235C46.6 58.2932 47.3107 59.0037 47.3107 59.8804V65.0518H47.3105Z" fill="#E4EAF6"/>
<path d="M84.4832 48.155H77.7246V90.3965H84.4832V48.155Z" fill="#FF6464"/>
<path d="M81.1039 48.155H77.7246V90.3965H81.1039V48.155Z" fill="#D2555A"/>
<path d="M77.7246 48.1552L80.6122 36.605C80.7402 36.0929 81.4678 36.0929 81.5958 36.605L84.4832 48.1552H77.7246Z" fill="#FFE6A1"/>
<path d="M80.6121 36.605L79.4141 41.3966H82.7933L81.5953 36.605C81.4675 36.0929 80.7401 36.0929 80.6121 36.605Z" fill="#FF6464"/>
<path d="M82.7936 95.4655H79.4143C78.4812 95.4655 77.7246 94.7089 77.7246 93.7758V90.3965H84.4832V93.7758C84.4832 94.7089 83.7267 95.4655 82.7936 95.4655Z" fill="#FFE6A1"/>
<path d="M81.1039 93.7758V90.3965H77.7246V93.7758C77.7246 94.7089 78.4812 95.4655 79.4143 95.4655H82.7936C81.8605 95.4655 81.1039 94.7089 81.1039 93.7758Z" fill="#FFDC9B"/>
</g>
<defs>
<clipPath id="clip0_0_612">
<rect width="98" height="98" fill="white"/>
</clipPath>
</defs>
</svg>
