<svg width="18" height="18" viewBox="0 0 18 18" fill="none" xmlns="http://www.w3.org/2000/svg">
<path fill-rule="evenodd" clip-rule="evenodd" d="M5.50563 7.56338L9.00167 4.06887L12.4991 7.56623L14.5322 5.53179L9.00167 0L3.47113 5.53037L5.50563 7.56338ZM0 9.00027L2.03376 6.96658L4.06751 9.00027L2.03376 11.034L0 9.00027ZM9.00165 13.9324L5.50561 10.4365L3.46826 12.4681L3.47111 12.4709L9.00165 17.9999L14.5322 12.4681L14.5336 12.4667L12.4991 10.4351L9.00165 13.9324ZM13.9321 9.00073L15.9659 6.96704L17.9996 9.00073L15.9659 11.0344L13.9321 9.00073ZM9.00133 6.93481L11.0643 8.99911H11.0657L11.0643 9.00053L9.00133 11.0648L6.93839 9.00337L6.93555 8.99911L6.93839 8.99626L7.29951 8.63515L7.47581 8.46029L9.00133 6.93481Z" fill="#F3BA2F"/>
</svg>
