<svg width="12" height="3" viewBox="0 0 12 3" fill="none" xmlns="http://www.w3.org/2000/svg">
<path d="M1.33366 1.33335H1.34033M6.00033 1.33335H6.00699M10.667 1.33335H10.6737M2.00033 1.33335C2.00033 1.70154 1.70185 2.00002 1.33366 2.00002C0.965469 2.00002 0.666992 1.70154 0.666992 1.33335C0.666992 0.965164 0.965469 0.666687 1.33366 0.666687C1.70185 0.666687 2.00033 0.965164 2.00033 1.33335ZM6.66699 1.33335C6.66699 1.70154 6.36852 2.00002 6.00033 2.00002C5.63214 2.00002 5.33366 1.70154 5.33366 1.33335C5.33366 0.965164 5.63214 0.666687 6.00033 0.666687C6.36852 0.666687 6.66699 0.965164 6.66699 1.33335ZM11.3337 1.33335C11.3337 1.70154 11.0352 2.00002 10.667 2.00002C10.2988 2.00002 10.0003 1.70154 10.0003 1.33335C10.0003 0.965164 10.2988 0.666687 10.667 0.666687C11.0352 0.666687 11.3337 0.965164 11.3337 1.33335Z" stroke="#976400" stroke-width="1.33333" stroke-linecap="round" stroke-linejoin="round"/>
</svg>
