<svg width="122" height="239" viewBox="0 0 122 239" fill="none" xmlns="http://www.w3.org/2000/svg">
<path style="mix-blend-mode:screen" opacity="0.4" d="M122 23.3642C121.958 17.384 117.985 11.4037 110.102 6.84538C94.2941 -2.27134 27.3825 -2.29224 11.6792 6.84538C3.62884 11.5292 -0.239457 17.6976 0.0114616 23.8451L20.7122 215.003C20.5031 221.172 24.4342 227.361 32.5681 232.066C48.3551 241.183 73.886 241.183 89.5894 232.066C97.4306 227.507 101.341 221.527 101.299 215.547L122 23.3642Z" fill="url(#paint0_linear_95_6284)"/>
<path style="mix-blend-mode:screen" opacity="0.67" d="M101.3 23.3642C101.259 17.384 97.2858 11.4037 89.4028 6.84538C73.5949 -2.27134 48.0848 -2.29224 32.3814 6.84538C24.3311 11.5292 20.4628 17.6976 20.7138 23.8451V215.003C20.5047 221.172 24.4357 227.361 32.5696 232.066C48.3566 241.183 73.8875 241.183 89.5909 232.066C97.4321 227.507 101.342 221.527 101.3 215.547V23.3642Z" fill="url(#paint1_linear_95_6284)"/>
<path style="mix-blend-mode:screen" d="M36.7495 129.356C36.7495 131.28 35.1813 132.848 33.2576 132.848C31.3339 132.848 29.7656 131.28 29.7656 129.356C29.7656 127.433 31.3339 125.864 33.2576 125.864C35.1813 125.864 36.7495 127.433 36.7495 129.356Z" fill="url(#paint2_radial_95_6284)"/>
<path style="mix-blend-mode:screen" d="M38.9241 208.626C38.9241 210.549 37.3559 212.118 35.4322 212.118C33.5085 212.118 31.9402 210.549 31.9402 208.626C31.9402 206.702 33.5085 205.134 35.4322 205.134C37.3559 205.134 38.9241 206.702 38.9241 208.626Z" fill="url(#paint3_radial_95_6284)"/>
<path style="mix-blend-mode:screen" d="M93.6453 171.741C93.6453 173.664 92.0771 175.233 90.1533 175.233C88.2296 175.233 86.6614 173.664 86.6614 171.741C86.6614 169.817 88.2296 168.249 90.1533 168.249C92.0771 168.249 93.6453 169.817 93.6453 171.741Z" fill="url(#paint4_radial_95_6284)"/>
<path style="mix-blend-mode:screen" d="M95.4636 141.798C95.4636 142.76 94.69 143.554 93.7072 143.554C92.7244 143.554 91.9507 142.78 91.9507 141.798C91.9507 140.815 92.7244 140.041 93.7072 140.041C94.69 140.041 95.4636 140.815 95.4636 141.798Z" fill="url(#paint5_radial_95_6284)"/>
<path style="mix-blend-mode:screen" d="M68.4713 89.9202C68.4713 90.8821 67.6976 91.6766 66.7148 91.6766C65.7321 91.6766 64.9584 90.903 64.9584 89.9202C64.9584 88.9374 65.7321 88.1637 66.7148 88.1637C67.6976 88.1637 68.4713 88.9374 68.4713 89.9202Z" fill="url(#paint6_radial_95_6284)"/>
<path style="mix-blend-mode:screen" d="M51.4476 123C52.4176 123 53.2041 122.213 53.2041 121.243C53.2041 120.273 52.4176 119.487 51.4476 119.487C50.4775 119.487 49.6912 120.273 49.6912 121.243C49.6912 122.213 50.4775 123 51.4476 123Z" fill="url(#paint7_radial_95_6284)"/>
<path style="mix-blend-mode:screen" d="M63.9103 153.11C63.0112 153.486 61.9866 153.068 61.6102 152.169C61.2338 151.27 61.652 150.245 62.5512 149.869C63.4503 149.493 64.4748 149.911 64.8512 150.81C65.2276 151.709 64.8094 152.734 63.9103 153.11Z" fill="url(#paint8_radial_95_6284)"/>
<path style="mix-blend-mode:screen" d="M90.8214 73.0041C89.9222 73.3805 88.8977 72.9623 88.5213 72.0631C88.145 71.164 88.5631 70.1395 89.4622 69.7631C90.3613 69.3867 91.386 69.8049 91.7623 70.704C92.1387 71.6031 91.7205 72.6277 90.8214 73.0041Z" fill="url(#paint9_radial_95_6284)"/>
<path style="mix-blend-mode:screen" d="M29.6189 142.885C29.6189 143.491 29.1379 143.972 28.5315 143.972C27.9252 143.972 27.4443 143.491 27.4443 142.885C27.4443 142.279 27.9252 141.798 28.5315 141.798C29.1379 141.798 29.6189 142.279 29.6189 142.885Z" fill="url(#paint10_radial_95_6284)"/>
<path style="mix-blend-mode:screen" d="M87.4559 151.5C87.4559 152.106 86.9749 152.587 86.3685 152.587C85.7621 152.587 85.2811 152.106 85.2811 151.5C85.2811 150.894 85.7621 150.413 86.3685 150.413C86.9749 150.413 87.4559 150.894 87.4559 151.5Z" fill="url(#paint11_radial_95_6284)"/>
<path style="mix-blend-mode:screen" d="M91.1987 198.714C91.366 199.279 91.0315 199.885 90.4669 200.053C89.9024 200.22 89.2959 199.885 89.1287 199.321C88.9614 198.756 89.2959 198.15 89.8605 197.983C90.425 197.815 91.0314 198.15 91.1987 198.714Z" fill="url(#paint12_radial_95_6284)"/>
<path style="mix-blend-mode:screen" d="M77.6481 219.708C77.6481 220.314 77.1671 220.795 76.5607 220.795C75.9543 220.795 75.4734 220.314 75.4734 219.708C75.4734 219.102 75.9543 218.621 76.5607 218.621C77.1671 218.621 77.6481 219.102 77.6481 219.708Z" fill="url(#paint13_radial_95_6284)"/>
<path style="mix-blend-mode:screen" d="M31.9177 105.226C31.9177 105.833 31.4368 106.314 30.8304 106.314C30.224 106.314 29.7431 105.833 29.7431 105.226C29.7431 104.62 30.224 104.139 30.8304 104.139C31.4368 104.139 31.9177 104.62 31.9177 105.226Z" fill="url(#paint14_radial_95_6284)"/>
<path style="mix-blend-mode:screen" d="M50.3818 105.226C50.3818 105.833 49.9009 106.314 49.2945 106.314C48.6881 106.314 48.2072 105.833 48.2072 105.226C48.2072 104.62 48.6881 104.139 49.2945 104.139C49.9009 104.139 50.3818 104.62 50.3818 105.226Z" fill="url(#paint15_radial_95_6284)"/>
<path style="mix-blend-mode:screen" d="M51.449 57.3008C51.449 57.9072 50.9681 58.3881 50.3617 58.3881C49.7553 58.3881 49.2744 57.9072 49.2744 57.3008C49.2744 56.6944 49.7553 56.2135 50.3617 56.2135C50.9681 56.2135 51.449 56.6944 51.449 57.3008Z" fill="url(#paint16_radial_95_6284)"/>
<path style="mix-blend-mode:screen" d="M48.1866 141.798C48.1866 142.404 47.7057 142.885 47.0993 142.885C46.4929 142.885 46.012 142.404 46.012 141.798C46.012 141.191 46.4929 140.71 47.0993 140.71C47.7057 140.71 48.1866 141.191 48.1866 141.798Z" fill="url(#paint17_radial_95_6284)"/>
<path style="mix-blend-mode:screen" d="M77.6495 77.7089C78.25 77.7089 78.7368 77.2221 78.7368 76.6216C78.7368 76.0211 78.25 75.5342 77.6495 75.5342C77.049 75.5342 76.5622 76.0211 76.5622 76.6216C76.5622 77.2221 77.049 77.7089 77.6495 77.7089Z" fill="url(#paint18_radial_95_6284)"/>
<path style="mix-blend-mode:screen" d="M82.3132 47.1177C82.3132 47.7241 81.8322 48.205 81.2258 48.205C80.6194 48.205 80.1386 47.7241 80.1386 47.1177C80.1386 46.5113 80.6194 46.0304 81.2258 46.0304C81.8322 46.0304 82.3132 46.5113 82.3132 47.1177Z" fill="url(#paint19_radial_95_6284)"/>
<path style="mix-blend-mode:screen" d="M88.5211 92.7641C88.5211 93.3705 88.0402 93.8514 87.4338 93.8514C86.8274 93.8514 86.3464 93.3705 86.3464 92.7641C86.3464 92.1577 86.8274 91.6768 87.4338 91.6768C88.0402 91.6768 88.5211 92.1577 88.5211 92.7641Z" fill="url(#paint20_radial_95_6284)"/>
<defs>
<linearGradient id="paint0_linear_95_6284" x1="61.0056" y1="14.6448" x2="61.0056" y2="242.354" gradientUnits="userSpaceOnUse">
<stop stop-opacity="0"/>
<stop offset="0.08" stop-color="#101616" stop-opacity="0.09"/>
<stop offset="0.42" stop-color="#5A7878" stop-opacity="0.47"/>
<stop offset="0.7" stop-color="#8FC1C1" stop-opacity="0.76"/>
<stop offset="0.9" stop-color="#B1EDED" stop-opacity="0.93"/>
<stop offset="1" stop-color="#BEFFFF"/>
</linearGradient>
<linearGradient id="paint1_linear_95_6284" x1="61.0071" y1="14.6448" x2="61.0071" y2="220.607" gradientUnits="userSpaceOnUse">
<stop stop-opacity="0"/>
<stop offset="0.08" stop-color="#101616" stop-opacity="0.09"/>
<stop offset="0.42" stop-color="#5A7878" stop-opacity="0.47"/>
<stop offset="0.7" stop-color="#8FC1C1" stop-opacity="0.76"/>
<stop offset="0.9" stop-color="#B1EDED" stop-opacity="0.93"/>
<stop offset="1" stop-color="#BEFFFF"/>
</linearGradient>
<radialGradient id="paint2_radial_95_6284" cx="0" cy="0" r="1" gradientUnits="userSpaceOnUse" gradientTransform="translate(33.2575 129.356) scale(3.49195 3.49196)">
<stop stop-color="white"/>
<stop offset="0.14" stop-color="#18FFFF"/>
<stop offset="0.16" stop-color="#14DFDF"/>
<stop offset="0.21" stop-color="#10ABAB"/>
<stop offset="0.25" stop-color="#0B7D7D"/>
<stop offset="0.3" stop-color="#085656"/>
<stop offset="0.35" stop-color="#053737"/>
<stop offset="0.4" stop-color="#021E1E"/>
<stop offset="0.45" stop-color="#010D0D"/>
<stop offset="0.51" stop-color="#000303"/>
<stop offset="0.58"/>
</radialGradient>
<radialGradient id="paint3_radial_95_6284" cx="0" cy="0" r="1" gradientUnits="userSpaceOnUse" gradientTransform="translate(35.4112 208.626) scale(3.49195)">
<stop stop-color="white"/>
<stop offset="0.14" stop-color="#18FFFF"/>
<stop offset="0.16" stop-color="#14DFDF"/>
<stop offset="0.21" stop-color="#10ABAB"/>
<stop offset="0.25" stop-color="#0B7D7D"/>
<stop offset="0.3" stop-color="#085656"/>
<stop offset="0.35" stop-color="#053737"/>
<stop offset="0.4" stop-color="#021E1E"/>
<stop offset="0.45" stop-color="#010D0D"/>
<stop offset="0.51" stop-color="#000303"/>
<stop offset="0.58"/>
</radialGradient>
<radialGradient id="paint4_radial_95_6284" cx="0" cy="0" r="1" gradientUnits="userSpaceOnUse" gradientTransform="translate(90.1533 171.741) scale(1.04548 1.04549)">
<stop stop-color="white"/>
<stop offset="0.14" stop-color="#18FFFF"/>
<stop offset="0.16" stop-color="#14DFDF"/>
<stop offset="0.21" stop-color="#10ABAB"/>
<stop offset="0.25" stop-color="#0B7D7D"/>
<stop offset="0.3" stop-color="#085656"/>
<stop offset="0.35" stop-color="#053737"/>
<stop offset="0.4" stop-color="#021E1E"/>
<stop offset="0.45" stop-color="#010D0D"/>
<stop offset="0.51" stop-color="#000303"/>
<stop offset="0.58"/>
</radialGradient>
<radialGradient id="paint5_radial_95_6284" cx="0" cy="0" r="1" gradientUnits="userSpaceOnUse" gradientTransform="translate(93.7281 141.798) scale(1.75642)">
<stop stop-color="white"/>
<stop offset="0.14" stop-color="#18FFFF"/>
<stop offset="0.16" stop-color="#14DFDF"/>
<stop offset="0.21" stop-color="#10ABAB"/>
<stop offset="0.25" stop-color="#0B7D7D"/>
<stop offset="0.3" stop-color="#085656"/>
<stop offset="0.35" stop-color="#053737"/>
<stop offset="0.4" stop-color="#021E1E"/>
<stop offset="0.45" stop-color="#010D0D"/>
<stop offset="0.51" stop-color="#000303"/>
<stop offset="0.58"/>
</radialGradient>
<radialGradient id="paint6_radial_95_6284" cx="0" cy="0" r="1" gradientUnits="userSpaceOnUse" gradientTransform="translate(66.7357 89.9202) scale(1.75642 1.75644)">
<stop stop-color="white"/>
<stop offset="0.14" stop-color="#18FFFF"/>
<stop offset="0.16" stop-color="#14DFDF"/>
<stop offset="0.21" stop-color="#10ABAB"/>
<stop offset="0.25" stop-color="#0B7D7D"/>
<stop offset="0.3" stop-color="#085656"/>
<stop offset="0.35" stop-color="#053737"/>
<stop offset="0.4" stop-color="#021E1E"/>
<stop offset="0.45" stop-color="#010D0D"/>
<stop offset="0.51" stop-color="#000303"/>
<stop offset="0.58"/>
</radialGradient>
<radialGradient id="paint7_radial_95_6284" cx="0" cy="0" r="1" gradientUnits="userSpaceOnUse" gradientTransform="translate(51.4476 121.243) scale(1.75646 1.75642)">
<stop stop-color="white"/>
<stop offset="0.14" stop-color="#18FFFF"/>
<stop offset="0.16" stop-color="#14DFDF"/>
<stop offset="0.21" stop-color="#10ABAB"/>
<stop offset="0.25" stop-color="#0B7D7D"/>
<stop offset="0.3" stop-color="#085656"/>
<stop offset="0.35" stop-color="#053737"/>
<stop offset="0.4" stop-color="#021E1E"/>
<stop offset="0.45" stop-color="#010D0D"/>
<stop offset="0.51" stop-color="#000303"/>
<stop offset="0.58"/>
</radialGradient>
<radialGradient id="paint8_radial_95_6284" cx="0" cy="0" r="1" gradientUnits="userSpaceOnUse" gradientTransform="translate(63.3081 151.494) rotate(67.2902) scale(1.75643 1.75642)">
<stop stop-color="white"/>
<stop offset="0.14" stop-color="#18FFFF"/>
<stop offset="0.16" stop-color="#14DFDF"/>
<stop offset="0.21" stop-color="#10ABAB"/>
<stop offset="0.25" stop-color="#0B7D7D"/>
<stop offset="0.3" stop-color="#085656"/>
<stop offset="0.35" stop-color="#053737"/>
<stop offset="0.4" stop-color="#021E1E"/>
<stop offset="0.45" stop-color="#010D0D"/>
<stop offset="0.51" stop-color="#000303"/>
<stop offset="0.58"/>
</radialGradient>
<radialGradient id="paint9_radial_95_6284" cx="0" cy="0" r="1" gradientUnits="userSpaceOnUse" gradientTransform="translate(90.2348 71.3841) rotate(67.2899) scale(1.75642 1.75642)">
<stop stop-color="white"/>
<stop offset="0.14" stop-color="#18FFFF"/>
<stop offset="0.16" stop-color="#14DFDF"/>
<stop offset="0.21" stop-color="#10ABAB"/>
<stop offset="0.25" stop-color="#0B7D7D"/>
<stop offset="0.3" stop-color="#085656"/>
<stop offset="0.35" stop-color="#053737"/>
<stop offset="0.4" stop-color="#021E1E"/>
<stop offset="0.45" stop-color="#010D0D"/>
<stop offset="0.51" stop-color="#000303"/>
<stop offset="0.58"/>
</radialGradient>
<radialGradient id="paint10_radial_95_6284" cx="0" cy="0" r="1" gradientUnits="userSpaceOnUse" gradientTransform="translate(28.5525 142.885) scale(1.08732 1.08731)">
<stop stop-color="white"/>
<stop offset="0.14" stop-color="#18FFFF"/>
<stop offset="0.16" stop-color="#14DFDF"/>
<stop offset="0.21" stop-color="#10ABAB"/>
<stop offset="0.25" stop-color="#0B7D7D"/>
<stop offset="0.3" stop-color="#085656"/>
<stop offset="0.35" stop-color="#053737"/>
<stop offset="0.4" stop-color="#021E1E"/>
<stop offset="0.45" stop-color="#010D0D"/>
<stop offset="0.51" stop-color="#000303"/>
<stop offset="0.58"/>
</radialGradient>
<radialGradient id="paint11_radial_95_6284" cx="0" cy="0" r="1" gradientUnits="userSpaceOnUse" gradientTransform="translate(86.3685 151.5) scale(1.08736 1.08732)">
<stop stop-color="white"/>
<stop offset="0.14" stop-color="#18FFFF"/>
<stop offset="0.16" stop-color="#14DFDF"/>
<stop offset="0.21" stop-color="#10ABAB"/>
<stop offset="0.25" stop-color="#0B7D7D"/>
<stop offset="0.3" stop-color="#085656"/>
<stop offset="0.35" stop-color="#053737"/>
<stop offset="0.4" stop-color="#021E1E"/>
<stop offset="0.45" stop-color="#010D0D"/>
<stop offset="0.51" stop-color="#000303"/>
<stop offset="0.58"/>
</radialGradient>
<radialGradient id="paint12_radial_95_6284" cx="0" cy="0" r="1" gradientUnits="userSpaceOnUse" gradientTransform="translate(90.1834 199.061) rotate(-16.0502) scale(1.08731 1.08732)">
<stop stop-color="white"/>
<stop offset="0.14" stop-color="#18FFFF"/>
<stop offset="0.16" stop-color="#14DFDF"/>
<stop offset="0.21" stop-color="#10ABAB"/>
<stop offset="0.25" stop-color="#0B7D7D"/>
<stop offset="0.3" stop-color="#085656"/>
<stop offset="0.35" stop-color="#053737"/>
<stop offset="0.4" stop-color="#021E1E"/>
<stop offset="0.45" stop-color="#010D0D"/>
<stop offset="0.51" stop-color="#000303"/>
<stop offset="0.58"/>
</radialGradient>
<radialGradient id="paint13_radial_95_6284" cx="0" cy="0" r="1" gradientUnits="userSpaceOnUse" gradientTransform="translate(76.5607 219.708) scale(1.08732)">
<stop stop-color="white"/>
<stop offset="0.14" stop-color="#18FFFF"/>
<stop offset="0.16" stop-color="#14DFDF"/>
<stop offset="0.21" stop-color="#10ABAB"/>
<stop offset="0.25" stop-color="#0B7D7D"/>
<stop offset="0.3" stop-color="#085656"/>
<stop offset="0.35" stop-color="#053737"/>
<stop offset="0.4" stop-color="#021E1E"/>
<stop offset="0.45" stop-color="#010D0D"/>
<stop offset="0.51" stop-color="#000303"/>
<stop offset="0.58"/>
</radialGradient>
<radialGradient id="paint14_radial_95_6284" cx="0" cy="0" r="1" gradientUnits="userSpaceOnUse" gradientTransform="translate(30.8304 105.226) scale(1.08729 1.08732)">
<stop stop-color="white"/>
<stop offset="0.14" stop-color="#18FFFF"/>
<stop offset="0.16" stop-color="#14DFDF"/>
<stop offset="0.21" stop-color="#10ABAB"/>
<stop offset="0.25" stop-color="#0B7D7D"/>
<stop offset="0.3" stop-color="#085656"/>
<stop offset="0.35" stop-color="#053737"/>
<stop offset="0.4" stop-color="#021E1E"/>
<stop offset="0.45" stop-color="#010D0D"/>
<stop offset="0.51" stop-color="#000303"/>
<stop offset="0.58"/>
</radialGradient>
<radialGradient id="paint15_radial_95_6284" cx="0" cy="0" r="1" gradientUnits="userSpaceOnUse" gradientTransform="translate(49.2945 105.226) scale(1.08732)">
<stop stop-color="white"/>
<stop offset="0.14" stop-color="#18FFFF"/>
<stop offset="0.16" stop-color="#14DFDF"/>
<stop offset="0.21" stop-color="#10ABAB"/>
<stop offset="0.25" stop-color="#0B7D7D"/>
<stop offset="0.3" stop-color="#085656"/>
<stop offset="0.35" stop-color="#053737"/>
<stop offset="0.4" stop-color="#021E1E"/>
<stop offset="0.45" stop-color="#010D0D"/>
<stop offset="0.51" stop-color="#000303"/>
<stop offset="0.58"/>
</radialGradient>
<radialGradient id="paint16_radial_95_6284" cx="0" cy="0" r="1" gradientUnits="userSpaceOnUse" gradientTransform="translate(50.3826 57.3008) scale(1.08729 1.08732)">
<stop stop-color="white"/>
<stop offset="0.14" stop-color="#18FFFF"/>
<stop offset="0.16" stop-color="#14DFDF"/>
<stop offset="0.21" stop-color="#10ABAB"/>
<stop offset="0.25" stop-color="#0B7D7D"/>
<stop offset="0.3" stop-color="#085656"/>
<stop offset="0.35" stop-color="#053737"/>
<stop offset="0.4" stop-color="#021E1E"/>
<stop offset="0.45" stop-color="#010D0D"/>
<stop offset="0.51" stop-color="#000303"/>
<stop offset="0.58"/>
</radialGradient>
<radialGradient id="paint17_radial_95_6284" cx="0" cy="0" r="1" gradientUnits="userSpaceOnUse" gradientTransform="translate(47.0993 141.798) scale(1.08729 1.08731)">
<stop stop-color="white"/>
<stop offset="0.14" stop-color="#18FFFF"/>
<stop offset="0.16" stop-color="#14DFDF"/>
<stop offset="0.21" stop-color="#10ABAB"/>
<stop offset="0.25" stop-color="#0B7D7D"/>
<stop offset="0.3" stop-color="#085656"/>
<stop offset="0.35" stop-color="#053737"/>
<stop offset="0.4" stop-color="#021E1E"/>
<stop offset="0.45" stop-color="#010D0D"/>
<stop offset="0.51" stop-color="#000303"/>
<stop offset="0.58"/>
</radialGradient>
<radialGradient id="paint18_radial_95_6284" cx="0" cy="0" r="1" gradientUnits="userSpaceOnUse" gradientTransform="translate(77.6495 76.6215) scale(1.08732 1.08731)">
<stop stop-color="white"/>
<stop offset="0.14" stop-color="#18FFFF"/>
<stop offset="0.16" stop-color="#14DFDF"/>
<stop offset="0.21" stop-color="#10ABAB"/>
<stop offset="0.25" stop-color="#0B7D7D"/>
<stop offset="0.3" stop-color="#085656"/>
<stop offset="0.35" stop-color="#053737"/>
<stop offset="0.4" stop-color="#021E1E"/>
<stop offset="0.45" stop-color="#010D0D"/>
<stop offset="0.51" stop-color="#000303"/>
<stop offset="0.58"/>
</radialGradient>
<radialGradient id="paint19_radial_95_6284" cx="0" cy="0" r="1" gradientUnits="userSpaceOnUse" gradientTransform="translate(81.2259 47.1177) scale(1.08729 1.08731)">
<stop stop-color="white"/>
<stop offset="0.14" stop-color="#18FFFF"/>
<stop offset="0.16" stop-color="#14DFDF"/>
<stop offset="0.21" stop-color="#10ABAB"/>
<stop offset="0.25" stop-color="#0B7D7D"/>
<stop offset="0.3" stop-color="#085656"/>
<stop offset="0.35" stop-color="#053737"/>
<stop offset="0.4" stop-color="#021E1E"/>
<stop offset="0.45" stop-color="#010D0D"/>
<stop offset="0.51" stop-color="#000303"/>
<stop offset="0.58"/>
</radialGradient>
<radialGradient id="paint20_radial_95_6284" cx="0" cy="0" r="1" gradientUnits="userSpaceOnUse" gradientTransform="translate(87.4547 92.7641) scale(1.08736 1.08731)">
<stop stop-color="white"/>
<stop offset="0.14" stop-color="#18FFFF"/>
<stop offset="0.16" stop-color="#14DFDF"/>
<stop offset="0.21" stop-color="#10ABAB"/>
<stop offset="0.25" stop-color="#0B7D7D"/>
<stop offset="0.3" stop-color="#085656"/>
<stop offset="0.35" stop-color="#053737"/>
<stop offset="0.4" stop-color="#021E1E"/>
<stop offset="0.45" stop-color="#010D0D"/>
<stop offset="0.51" stop-color="#000303"/>
<stop offset="0.58"/>
</radialGradient>
</defs>
</svg>
