<svg width="18" height="17" viewBox="0 0 18 17" fill="none" xmlns="http://www.w3.org/2000/svg">
<path d="M8.77919 0.0488853C9.1713 -0.153766 9.65019 0.314712 9.44226 0.701145C9.32029 1.0162 8.86105 1.09988 8.62693 0.859492C8.37889 0.629765 8.45994 0.173594 8.77919 0.0480649V0.0488853ZM4.55927 0.496852C4.79749 0.400039 5.09956 0.614998 5.075 0.871799C5.09956 1.14911 4.75574 1.35422 4.51261 1.22213C4.1909 1.09906 4.22774 0.58382 4.55927 0.496852ZM13.2021 1.22952C12.8297 1.18521 12.7707 0.607613 13.1284 0.491109C13.4068 0.358196 13.6622 0.608434 13.7031 0.868517C13.6442 1.09004 13.4559 1.29351 13.2021 1.22952ZM5.5195 2.26739C5.91816 2.01879 6.48627 2.38882 6.42488 2.84581C6.40441 3.30608 5.78391 3.57355 5.43355 3.26178C5.09464 3.01728 5.14622 2.45609 5.5195 2.26739ZM11.6017 2.53157C11.7794 2.08033 12.4998 2.06556 12.702 2.50532C12.9025 2.84745 12.6561 3.27162 12.3 3.38813C11.8277 3.47509 11.3799 2.97134 11.6017 2.53157ZM8.27084 3.36269C8.26674 2.9738 8.62529 2.685 8.9994 2.65792C9.24825 2.70715 9.51839 2.81135 9.62481 3.0583C9.82373 3.39961 9.64691 3.86809 9.28918 4.0248C9.12546 4.11505 8.93063 4.08141 8.75218 4.07074C8.47958 3.93947 8.24955 3.67939 8.27084 3.36269ZM1.9954 3.9288C2.35968 3.70728 2.85084 4.1093 2.7125 4.49984C2.63719 4.83704 2.17713 4.97406 1.91436 4.7591C1.63358 4.55727 1.67778 4.07238 1.99622 3.92798L1.9954 3.9288ZM15.4713 3.92634C15.7799 3.69005 16.2899 3.96162 16.2523 4.34559C16.2735 4.69593 15.8323 4.96093 15.5261 4.78043C15.1889 4.63029 15.1537 4.11833 15.4713 3.92716V3.92634ZM10.0358 4.62455C10.5449 4.44405 11.1507 4.65983 11.4405 5.10861C11.8236 5.65586 11.6206 6.48944 11.0254 6.80367C10.4099 7.17533 9.51021 6.8611 9.28182 6.18177C9.02396 5.57463 9.40051 4.81489 10.0349 4.62455H10.0358ZM7.04538 4.68444C7.61022 4.4219 8.37071 4.64178 8.6433 5.21117C8.9642 5.7658 8.71616 6.53784 8.14231 6.82418C7.56765 7.14662 6.75641 6.90212 6.47891 6.3073C6.16702 5.73134 6.44371 4.94945 7.04538 4.68444ZM4.05174 5.6936C4.09512 5.33506 4.43812 5.10123 4.78439 5.07662C4.96498 5.09573 5.13375 5.17568 5.26312 5.30341C5.39249 5.43113 5.47479 5.59906 5.49658 5.77974C5.47202 6.14895 5.18305 6.50831 4.78685 6.50667C4.35053 6.54359 3.96824 6.11531 4.05174 5.6936ZM12.8943 5.15538C13.3421 4.89858 13.9634 5.27188 13.9438 5.77892C13.9741 6.31632 13.2864 6.69455 12.8411 6.3795C12.3778 6.11695 12.4138 5.37854 12.8943 5.15538ZM5.82975 7.04816C6.35202 6.90623 6.95124 7.14908 7.20747 7.6233C7.48825 8.1008 7.37364 8.76373 6.93733 9.11488C6.37658 9.62849 5.34432 9.42173 5.04635 8.72107C4.70335 8.07865 5.12002 7.21718 5.82893 7.04734L5.82975 7.04816ZM11.5002 7.0457C12.0086 6.90212 12.6062 7.09493 12.8796 7.55192C13.2414 8.07455 13.0687 8.8548 12.5309 9.19118C11.966 9.58254 11.0934 9.37743 10.7823 8.76537C10.4058 8.1328 10.7848 7.23851 11.5002 7.0457ZM2.46282 7.64135C2.91469 7.47316 3.41568 7.96461 3.23231 8.40683C3.12098 8.80885 2.5455 8.95818 2.24835 8.66117C1.90044 8.38222 2.02896 7.76278 2.46282 7.64135ZM14.7165 8.28294C14.7081 8.10234 14.7711 7.92567 14.8919 7.79139C15.0127 7.6571 15.1815 7.57605 15.3616 7.56587C15.671 7.6151 15.9723 7.86123 15.9477 8.19352C15.9764 8.63246 15.4402 8.93028 15.0604 8.72435C14.8827 8.63492 14.7919 8.45524 14.7165 8.28294ZM0.240307 7.85959C0.512084 7.74227 0.848531 7.97445 0.786317 8.27228C0.771582 8.60948 0.266502 8.73994 0.0814969 8.4577C-0.0822245 8.26161 0.0160085 7.96051 0.240307 7.85877V7.85959ZM17.3893 7.85221C17.5808 7.71847 17.8886 7.81447 17.964 8.03517C18.0925 8.27638 17.8567 8.6062 17.5817 8.566C17.1953 8.60046 17.0709 8.0204 17.3893 7.85221ZM7.30652 9.47096C8.02198 9.288 8.79147 9.87626 8.79638 10.6032C8.84222 11.3375 8.0842 11.9881 7.35236 11.8191C6.78588 11.7288 6.34138 11.1906 6.36021 10.627C6.35857 10.0871 6.77115 9.585 7.30652 9.47096ZM10.1405 9.47014C10.8666 9.26995 11.659 9.86888 11.6476 10.6122C11.6861 11.3326 10.9518 11.9619 10.2347 11.8183C9.55932 11.7329 9.06161 11.0019 9.24989 10.3554C9.34485 9.92549 9.70995 9.57598 10.1405 9.46932V9.47014ZM4.67552 9.91728C5.17814 9.83278 5.64966 10.3849 5.44583 10.8559C5.29684 11.358 4.55682 11.4934 4.22938 11.084C3.84627 10.6902 4.13278 9.97144 4.67552 9.91728ZM12.9876 9.93944C13.4362 9.75402 13.9863 10.1363 13.952 10.6163C13.97 11.1439 13.2905 11.5081 12.8526 11.1997C12.3557 10.9232 12.4465 10.1085 12.9876 9.93944ZM15.3109 12.2367C15.1357 11.9143 15.4541 11.4868 15.8184 11.5467C15.9985 11.5434 16.1254 11.6837 16.2408 11.8019C16.2645 11.993 16.3046 12.2211 16.1434 12.368C15.9248 12.6412 15.4296 12.5632 15.3109 12.2367ZM1.99376 11.6361C2.33348 11.4138 2.82219 11.7461 2.74524 12.1366C2.70431 12.4837 2.26226 12.6814 1.97166 12.4845C1.65895 12.3064 1.67041 11.7986 1.99376 11.6361ZM8.70061 12.3606C9.14511 12.1678 9.71159 12.5493 9.66902 13.0317C9.70176 13.565 9.00185 13.9342 8.56717 13.6142C8.08419 13.3394 8.16524 12.5304 8.70061 12.3606ZM5.59481 13.0752C5.97301 12.8791 6.48054 13.218 6.44616 13.6364C6.45762 13.9793 6.11872 14.2714 5.77491 14.2206C5.49085 14.2148 5.30584 13.9629 5.21416 13.7242C5.21907 13.4641 5.32795 13.1745 5.59481 13.076V13.0752ZM11.8866 13.0818C12.2763 12.8438 12.8297 13.1851 12.7928 13.6315C12.8026 14.0991 12.1772 14.3978 11.8146 14.0909C11.4642 13.8505 11.5068 13.2729 11.8866 13.0818ZM12.9811 15.7482C12.8076 15.4906 13.0114 15.1797 13.2922 15.1206C13.5189 15.1657 13.7588 15.3339 13.7105 15.5915C13.6777 15.9419 13.1587 16.0485 12.9811 15.7491V15.7482ZM4.29486 15.5243C4.36363 15.3191 4.53062 15.1165 4.77539 15.1698C5.13148 15.1944 5.23708 15.7244 4.92519 15.8877C4.64523 16.074 4.31942 15.8188 4.29486 15.5243ZM8.48613 15.7597C8.55407 15.4562 8.9511 15.3093 9.21305 15.4701C9.3866 15.5439 9.43735 15.7343 9.48156 15.8967C9.45819 15.9811 9.43636 16.0659 9.41607 16.1511C9.30883 16.2758 9.17049 16.4013 8.99203 16.3972C8.66049 16.4358 8.36088 16.0658 8.48531 15.7597H8.48613Z" fill="white"/>
</svg>
