<svg width="16" height="22" viewBox="0 0 16 22" fill="none" xmlns="http://www.w3.org/2000/svg">
<path d="M6.925 11.1763L8 10.3186L9.05 11.1763C9.25 11.3322 9.45 11.3364 9.65 11.1887C9.85 11.0418 9.91667 10.847 9.85 10.6045L9.425 9.20093L10.625 8.21326C10.8083 8.05731 10.8627 7.8622 10.788 7.62793C10.7127 7.39436 10.5583 7.27757 10.325 7.27757H8.9L8.475 5.90003C8.39167 5.65745 8.23333 5.53615 8 5.53615C7.76667 5.53615 7.60833 5.65745 7.525 5.90003L7.1 7.27757H5.675C5.425 7.27757 5.26267 7.39436 5.188 7.62793C5.11267 7.8622 5.16667 8.05731 5.35 8.21326L6.55 9.20093L6.125 10.6045C6.04167 10.847 6.104 11.0418 6.312 11.1887C6.52067 11.3364 6.725 11.3322 6.925 11.1763ZM3.325 21.3649C2.99167 21.4862 2.68733 21.4428 2.412 21.2349C2.13733 21.027 2 20.7497 2 20.4032V13.8014C1.36667 13.0736 0.875 12.2419 0.525 11.3062C0.175 10.3705 0 9.3742 0 8.31722C0 5.99533 0.775 4.02866 2.325 2.41719C3.875 0.805731 5.76667 0 8 0C10.2333 0 12.125 0.805731 13.675 2.41719C15.225 4.02866 16 5.99533 16 8.31722C16 9.3742 15.825 10.3705 15.475 11.3062C15.125 12.2419 14.6333 13.0736 14 13.8014V20.4032C14 20.7497 13.8623 21.027 13.587 21.2349C13.3123 21.4428 13.0083 21.4862 12.675 21.3649L8 19.7534L3.325 21.3649ZM8 14.5551C9.66667 14.5551 11.0833 13.9487 12.25 12.7358C13.4167 11.5228 14 10.05 14 8.31722C14 6.58447 13.4167 5.11163 12.25 3.8987C11.0833 2.68577 9.66667 2.07931 8 2.07931C6.33333 2.07931 4.91667 2.68577 3.75 3.8987C2.58333 5.11163 2 6.58447 2 8.31722C2 10.05 2.58333 11.5228 3.75 12.7358C4.91667 13.9487 6.33333 14.5551 8 14.5551Z" fill="#291CCB"/>
</svg>
