<svg width="297" height="33" viewBox="0 0 297 33" fill="none" xmlns="http://www.w3.org/2000/svg">
<path d="M15.1403 8.99858C15.1403 8.99858 14.3984 9.69805 14.3857 11.7456V13.8864H11.698V16.9132H14.3857V24.7346H17.4846V16.9132H20.151L20.5241 13.8864H17.4846V11.7456C17.493 11.5082 17.599 10.4526 18.8454 10.4738H20.6598V7.62082H17.9424C17.9424 7.62082 16.234 7.57843 15.1445 8.99434L15.1403 8.99858Z" fill="black"/>
<path d="M27.4255 26.2185C26.9804 26.3499 26.7345 26.8459 26.5225 27.2274C26.3318 27.5751 25.9629 27.982 25.9629 28.389C25.9629 28.5204 26.0986 28.6264 26.2258 28.5882C26.62 28.478 26.9125 28.0159 27.1966 27.7404C27.5103 27.4352 27.93 27.0621 27.9384 26.6043C27.9384 26.3457 27.6756 26.1422 27.4212 26.2143L27.4255 26.2185Z" fill="black"/>
<path d="M32.1819 17.3119C34.1066 9.53711 26.0732 1.67332 18.7647 0.291328C14.7459 -0.467497 10.5661 0.253175 7.14074 2.48726C4.19871 4.40339 1.18885 7.80751 0.815795 11.4109C0.807316 11.4914 0.832751 11.555 0.866665 11.6101C-1.4522 17.5578 1.07439 25.0358 6.15724 28.813C11.1977 32.5562 19.4854 33.8661 24.8481 29.9575C25.3017 29.6269 24.9244 28.9698 24.4072 29.2114C24.2122 29.3005 24.0172 29.3895 23.8264 29.4785C23.7289 29.3089 23.5254 29.1987 23.2711 29.3217C19.7016 31.0131 14.7459 30.1568 11.2189 28.902C10.8204 28.7621 10.5491 29.3937 10.9306 29.5803C12.8086 30.4917 14.8519 31.0258 16.9461 31.1361C17.8194 31.1827 18.6969 31.1488 19.5702 31.0597C18.2391 31.3946 16.8656 31.5473 15.3861 31.4158C12.3805 31.1445 9.72668 30.0254 7.24249 28.3636C4.33013 26.4178 2.34192 24.048 1.40081 20.6566C0.582637 17.7189 0.540243 14.6242 1.4432 11.7161C1.48136 11.6864 1.51951 11.6525 1.5407 11.6059C1.69756 11.3091 1.85017 11.0166 2.00278 10.7283C1.1083 13.0303 0.845469 15.5823 1.2482 18.0156C2.00702 22.6321 4.60992 25.6801 8.43795 28.1855C8.89579 28.4865 9.35787 27.715 8.87036 27.4564C5.47048 25.6547 2.77432 21.5554 2.20203 17.8079C1.57038 13.6704 3.07531 9.78723 5.53831 6.49334C5.75027 6.21355 5.30515 5.90409 5.06352 6.12877C4.66079 6.50606 4.28773 6.91303 3.94012 7.34119C4.50394 6.49334 5.13558 5.69636 5.89441 4.95449C5.7206 5.247 6.00039 5.68788 6.34801 5.4632C7.24249 4.89091 8.10729 4.28045 9.03569 3.75479C9.69701 3.38173 10.4007 3.08499 11.079 2.74161C11.1892 2.77552 11.3164 2.784 11.4648 2.74585C16.3908 1.49527 21.2956 2.03366 25.1321 5.63277C25.2805 5.77267 25.4628 5.70908 25.556 5.5819C25.5221 5.75995 25.6196 5.97191 25.857 5.97191C26.2724 5.97191 26.2724 5.33179 25.857 5.33179C25.7383 5.33179 25.6578 5.38266 25.6069 5.45896C25.6154 5.3869 25.5942 5.31059 25.5306 5.23852C24.2503 3.8862 22.6352 2.75857 20.8589 1.97007C26.0478 3.86925 30.3633 8.51546 30.9865 13.8781C30.6007 12.1654 29.8843 10.5079 28.8372 9.01145C28.5701 8.63416 27.9809 8.96058 28.2055 9.37603C29.6003 11.928 30.2573 14.7175 30.3506 17.6086C30.4481 20.627 29.2738 23.2044 27.6672 25.6929C27.5018 25.9472 27.8834 26.2567 28.0911 26.0447C28.1886 26.0956 28.3073 26.0956 28.409 26.0023C30.7279 23.8403 32.4236 20.6015 32.1947 17.3585C32.1947 17.3416 32.1862 17.3246 32.1819 17.3076V17.3119Z" fill="black"/>
<path d="M9.65465 28.5669C9.55291 28.8043 9.68856 29.0417 9.92596 29.1222C10.0998 29.1816 10.2566 29.2409 10.4389 29.2663C10.7526 29.3045 10.8713 28.8763 10.6805 28.6856C10.5576 28.5584 10.3923 28.4694 10.2439 28.3719C10.0362 28.232 9.74367 28.3549 9.65041 28.5711L9.65465 28.5669Z" fill="black"/>
<path d="M288.483 9.82112C287.834 10.2027 287.117 10.4867 286.354 10.6351C285.74 9.98221 284.871 9.57524 283.908 9.57524C282.056 9.57524 280.555 11.0759 280.555 12.9285C280.555 13.1913 280.585 13.4457 280.64 13.6958C277.855 13.5559 275.383 12.2205 273.73 10.1942C273.442 10.6902 273.276 11.2625 273.276 11.8772C273.276 13.0387 273.866 14.0646 274.769 14.6666C274.217 14.6496 273.7 14.497 273.251 14.2469C273.251 14.2638 273.251 14.2766 273.251 14.2893C273.251 15.9129 274.408 17.2695 275.939 17.5747C275.659 17.651 275.362 17.6934 275.057 17.6934C274.841 17.6934 274.633 17.6722 274.425 17.6298C274.853 18.9652 276.091 19.9317 277.558 19.9614C276.409 20.8601 274.964 21.3985 273.395 21.3985C273.124 21.3985 272.861 21.3815 272.594 21.3519C274.078 22.3057 275.837 22.8568 277.732 22.8568C283.9 22.8568 287.27 17.7485 287.27 13.3185C287.27 13.1744 287.27 13.0302 287.262 12.8861C287.919 12.4113 288.487 11.822 288.932 11.1522C288.33 11.4193 287.686 11.5974 287.007 11.6779C287.698 11.2625 288.228 10.6054 288.483 9.82536V9.82112Z" fill="black"/>
<path d="M291.954 26.2185C291.509 26.3499 291.263 26.8459 291.051 27.2274C290.86 27.5751 290.492 27.982 290.492 28.389C290.492 28.5204 290.627 28.6264 290.754 28.5882C291.149 28.478 291.441 28.0159 291.725 27.7404C292.039 27.4352 292.459 27.0621 292.467 26.6043C292.467 26.3457 292.204 26.1422 291.95 26.2143L291.954 26.2185Z" fill="black"/>
<path d="M296.711 17.3119C298.635 9.53711 290.602 1.67332 283.293 0.291328C279.275 -0.467497 275.095 0.253175 271.669 2.48726C268.727 4.40339 265.718 7.80751 265.345 11.4109C265.336 11.4914 265.361 11.555 265.395 11.6101C263.077 17.5578 265.603 25.0358 270.686 28.813C275.726 32.5562 284.014 33.8661 289.373 29.9575C289.826 29.6269 289.449 28.9698 288.932 29.2114C288.737 29.3005 288.542 29.3895 288.351 29.4785C288.253 29.3089 288.05 29.1987 287.8 29.3217C284.23 31.0131 279.275 30.1568 275.748 28.902C275.349 28.7621 275.078 29.3937 275.459 29.5803C277.337 30.4917 279.381 31.0258 281.475 31.1361C282.348 31.1827 283.226 31.1488 284.099 31.0597C282.768 31.3946 281.394 31.5473 279.915 31.4158C276.909 31.1445 274.255 30.0254 271.771 28.3636C268.859 26.4178 266.871 24.048 265.93 20.6566C265.111 17.7189 265.069 14.6242 265.972 11.7161C266.01 11.6864 266.048 11.6525 266.069 11.6059C266.226 11.3091 266.379 11.0166 266.531 10.7283C265.637 13.0303 265.374 15.5823 265.777 18.0156C266.536 22.6321 269.139 25.6801 272.967 28.1855C273.425 28.4865 273.887 27.715 273.399 27.4564C269.999 25.6547 267.303 21.5554 266.731 17.8079C266.099 13.6704 267.604 9.78723 270.067 6.49334C270.279 6.21355 269.834 5.90409 269.592 6.12877C269.19 6.50606 268.816 6.91303 268.469 7.34119C269.033 6.49334 269.664 5.69636 270.423 4.95449C270.249 5.247 270.529 5.68788 270.877 5.4632C271.771 4.89091 272.636 4.28045 273.564 3.75479C274.226 3.38173 274.929 3.08499 275.608 2.74161C275.718 2.77552 275.845 2.784 275.993 2.74585C280.919 1.49527 285.824 2.03366 289.661 5.63277C289.809 5.77267 289.991 5.70908 290.085 5.5819C290.051 5.75995 290.148 5.97191 290.386 5.97191C290.801 5.97191 290.801 5.33179 290.386 5.33179C290.267 5.33179 290.186 5.38266 290.136 5.45896C290.144 5.3869 290.123 5.31059 290.059 5.23852C288.779 3.8862 287.164 2.75857 285.388 1.97007C290.576 3.86925 294.892 8.51546 295.515 13.8781C295.129 12.1654 294.413 10.5079 293.366 9.01145C293.099 8.63416 292.51 8.96058 292.734 9.37603C294.129 11.928 294.786 14.7175 294.879 17.6086C294.977 20.627 293.803 23.2044 292.196 25.6929C292.031 25.9472 292.412 26.2567 292.62 26.0447C292.717 26.0956 292.836 26.0956 292.938 26.0023C295.257 23.8403 296.952 20.6015 296.723 17.3585C296.723 17.3416 296.715 17.3246 296.711 17.3076V17.3119Z" fill="black"/>
<path d="M274.183 28.5669C274.082 28.8043 274.217 29.0417 274.455 29.1222C274.628 29.1816 274.785 29.2409 274.968 29.2663C275.281 29.3045 275.4 28.8763 275.209 28.6856C275.086 28.5584 274.921 28.4694 274.773 28.3719C274.565 28.232 274.272 28.3549 274.179 28.5711L274.183 28.5669Z" fill="black"/>
<path d="M218.077 7.62093H211.51C208.598 7.62093 206.241 9.98219 206.241 12.8903V19.4569C206.241 22.3693 208.602 24.7263 211.51 24.7263H218.077C220.989 24.7263 223.346 22.365 223.346 19.4569V12.8903C223.346 9.97795 220.985 7.62093 218.077 7.62093ZM221.705 18.8252C221.705 21.178 219.798 23.0857 217.445 23.0857H212.137C209.785 23.0857 207.877 21.178 207.877 18.8252V13.5177C207.877 11.1649 209.785 9.25728 212.137 9.25728H217.445C219.798 9.25728 221.705 11.1649 221.705 13.5177V18.8252Z" fill="black"/>
<path d="M215.025 11.699C212.536 11.699 210.518 13.7169 210.518 16.2053C210.518 18.6937 212.536 20.7116 215.025 20.7116C217.513 20.7116 219.531 18.6937 219.531 16.2053C219.531 13.7169 217.513 11.699 215.025 11.699ZM215.025 18.9142C213.528 18.9142 212.312 17.7017 212.312 16.2053C212.312 14.7088 213.524 13.4922 215.025 13.4922C216.525 13.4922 217.734 14.7046 217.734 16.2053C217.734 17.706 216.521 18.9142 215.025 18.9142Z" fill="black"/>
<path d="M219.217 10.4825C218.586 10.4825 218.073 10.9954 218.073 11.6271C218.073 12.2587 218.586 12.7717 219.217 12.7717C219.849 12.7717 220.362 12.2587 220.362 11.6271C220.362 10.9954 219.849 10.4825 219.217 10.4825Z" fill="black"/>
<path d="M225.826 26.2185C225.381 26.3499 225.135 26.8459 224.923 27.2274C224.732 27.5751 224.363 27.982 224.363 28.389C224.363 28.5204 224.499 28.6264 224.626 28.5882C225.02 28.478 225.313 28.0159 225.597 27.7404C225.911 27.4352 226.33 27.0621 226.339 26.6043C226.339 26.3457 226.076 26.1422 225.822 26.2143L225.826 26.2185Z" fill="black"/>
<path d="M230.578 17.3119C232.503 9.53711 224.47 1.67332 217.161 0.291328C213.142 -0.467497 208.963 0.253175 205.537 2.48726C202.595 4.40339 199.585 7.80751 199.212 11.4109C199.204 11.4914 199.229 11.555 199.263 11.6101C196.944 17.5578 199.471 25.0358 204.554 28.813C209.594 32.5562 217.882 33.8661 223.24 29.9575C223.694 29.6269 223.317 28.9698 222.799 29.2114C222.604 29.3005 222.409 29.3895 222.219 29.4785C222.121 29.3089 221.918 29.1987 221.663 29.3217C218.094 31.0131 213.138 30.1568 209.611 28.902C209.213 28.7621 208.941 29.3937 209.323 29.5803C211.201 30.4917 213.244 31.0258 215.338 31.1361C216.212 31.1827 217.089 31.1488 217.962 31.0597C216.631 31.3946 215.258 31.5473 213.778 31.4158C210.773 31.1445 208.119 30.0254 205.635 28.3636C202.722 26.4178 200.734 24.048 199.793 20.6566C198.975 17.7189 198.933 14.6242 199.835 11.7161C199.874 11.6864 199.912 11.6525 199.933 11.6059C200.09 11.3091 200.242 11.0166 200.395 10.7283C199.501 13.0303 199.238 15.5823 199.64 18.0156C200.399 22.6321 203.002 25.6801 206.83 28.1855C207.288 28.4865 207.75 27.715 207.263 27.4564C203.863 25.6547 201.167 21.5554 200.594 17.8079C199.963 13.6704 201.468 9.78723 203.931 6.49334C204.143 6.21355 203.697 5.90409 203.456 6.12877C203.053 6.50606 202.68 6.91303 202.332 7.34119C202.896 6.49334 203.528 5.69636 204.287 4.95449C204.113 5.247 204.393 5.68788 204.74 5.4632C205.635 4.89091 206.5 4.28045 207.428 3.75479C208.089 3.38173 208.793 3.08499 209.471 2.74161C209.582 2.77552 209.709 2.784 209.857 2.74585C214.783 1.49527 219.688 2.03366 223.524 5.63277C223.673 5.77267 223.855 5.70908 223.948 5.5819C223.914 5.75995 224.012 5.97191 224.249 5.97191C224.665 5.97191 224.665 5.33179 224.249 5.33179C224.131 5.33179 224.05 5.38266 223.999 5.45896C224.008 5.3869 223.991 5.31059 223.923 5.23852C222.643 3.8862 221.027 2.75857 219.251 1.97007C224.44 3.86925 228.756 8.51546 229.379 13.8781C228.993 12.1654 228.277 10.5079 227.229 9.01145C226.962 8.63416 226.373 8.96058 226.598 9.37603C227.993 11.928 228.65 14.7175 228.743 17.6086C228.84 20.627 227.666 23.2044 226.059 25.6929C225.894 25.9472 226.276 26.2567 226.483 26.0447C226.581 26.0956 226.7 26.0956 226.801 26.0023C229.12 23.8403 230.816 20.6015 230.587 17.3585C230.587 17.3416 230.578 17.3246 230.574 17.3076L230.578 17.3119Z" fill="black"/>
<path d="M208.055 28.5669C207.953 28.8043 208.089 29.0417 208.326 29.1222C208.5 29.1816 208.657 29.2409 208.839 29.2663C209.153 29.3045 209.272 28.8763 209.081 28.6856C208.958 28.5584 208.793 28.4694 208.644 28.3719C208.437 28.232 208.144 28.3549 208.051 28.5711L208.055 28.5669Z" fill="black"/>
<path d="M141.719 23.2383H144.975V12.7589H141.719V23.2383ZM143.347 7.5489C142.305 7.5489 141.461 8.39674 141.461 9.4396C141.461 10.6435 142.584 11.5804 143.843 11.2625C144.479 11.1014 145.001 10.5842 145.17 9.94831C145.501 8.68501 144.556 7.54466 143.352 7.54466L143.347 7.5489ZM153.267 12.5003C151.682 12.5003 150.622 13.3694 150.185 14.1918H150.139V12.7589H147.014V23.2383H150.27V18.0537C150.27 16.6887 150.529 15.3618 152.224 15.3618C153.92 15.3618 153.916 16.9261 153.916 18.1428V23.2383H157.172V17.4899C157.172 14.6708 156.561 12.5003 153.263 12.5003H153.267Z" fill="black"/>
<path d="M159.694 26.2185C159.249 26.3499 159.003 26.8459 158.791 27.2274C158.601 27.5751 158.232 27.982 158.232 28.389C158.232 28.5204 158.367 28.6264 158.495 28.5882C158.889 28.478 159.181 28.0159 159.465 27.7404C159.779 27.4352 160.199 27.0621 160.207 26.6043C160.207 26.3457 159.944 26.1422 159.69 26.2143L159.694 26.2185Z" fill="black"/>
<path d="M164.446 17.3119C166.371 9.53711 158.338 1.67332 151.029 0.291328C147.01 -0.467497 142.83 0.253175 139.405 2.48726C136.463 4.40339 133.453 7.80751 133.08 11.4109C133.072 11.4914 133.097 11.555 133.131 11.6101C130.812 17.5578 133.339 25.0358 138.422 28.813C143.462 32.5562 151.75 33.8661 157.108 29.9575C157.562 29.6269 157.184 28.9698 156.667 29.2114C156.472 29.3005 156.277 29.3895 156.087 29.4785C155.989 29.3089 155.786 29.1987 155.531 29.3217C151.962 31.0131 147.006 30.1568 143.479 28.902C143.081 28.7621 142.809 29.3937 143.191 29.5803C145.069 30.4917 147.112 31.0258 149.206 31.1361C150.08 31.1827 150.957 31.1488 151.83 31.0597C150.499 31.3946 149.126 31.5473 147.646 31.4158C144.641 31.1445 141.987 30.0254 139.503 28.3636C136.59 26.4178 134.602 24.048 133.661 20.6566C132.843 17.7189 132.8 14.6242 133.703 11.7161C133.741 11.6864 133.78 11.6525 133.801 11.6059C133.958 11.3091 134.11 11.0166 134.263 10.7283C133.368 13.0303 133.106 15.5823 133.508 18.0156C134.267 22.6321 136.87 25.6801 140.698 28.1855C141.156 28.4865 141.618 27.715 141.13 27.4564C137.731 25.6547 135.034 21.5554 134.462 17.8079C133.831 13.6704 135.335 9.78723 137.798 6.49334C138.01 6.21355 137.565 5.90409 137.324 6.12877C136.921 6.50606 136.548 6.91303 136.2 7.34119C136.764 6.49334 137.396 5.69636 138.155 4.95449C137.981 5.247 138.261 5.68788 138.608 5.4632C139.503 4.89091 140.367 4.28045 141.296 3.75479C141.957 3.38173 142.661 3.08499 143.339 2.74161C143.449 2.77552 143.577 2.784 143.725 2.74585C148.651 1.49527 153.556 2.03366 157.392 5.63277C157.541 5.77267 157.723 5.70908 157.816 5.5819C157.782 5.75995 157.88 5.97191 158.117 5.97191C158.533 5.97191 158.533 5.33179 158.117 5.33179C157.998 5.33179 157.918 5.38266 157.867 5.45896C157.875 5.3869 157.854 5.31059 157.791 5.23852C156.51 3.8862 154.895 2.75857 153.119 1.97007C158.308 3.86925 162.623 8.51546 163.247 13.8781C162.861 12.1654 162.144 10.5079 161.097 9.01145C160.83 8.63416 160.241 8.96058 160.466 9.37603C161.86 11.928 162.517 14.7175 162.611 17.6086C162.708 20.627 161.534 23.2044 159.927 25.6929C159.762 25.9472 160.143 26.2567 160.351 26.0447C160.449 26.0956 160.567 26.0956 160.669 26.0023C162.988 23.8403 164.684 20.6015 164.455 17.3585C164.455 17.3416 164.446 17.3246 164.442 17.3076L164.446 17.3119Z" fill="black"/>
<path d="M141.923 28.5669C141.822 28.8043 141.957 29.0417 142.195 29.1222C142.369 29.1816 142.525 29.2409 142.708 29.2663C143.021 29.3045 143.14 28.8763 142.949 28.6856C142.826 28.5584 142.661 28.4694 142.513 28.3719C142.305 28.232 142.012 28.3549 141.919 28.5711L141.923 28.5669Z" fill="black"/>
<path d="M89.7973 9.40563C89.6744 9.40563 89.543 9.4353 89.4116 9.49465L75.066 15.0269C74.0867 15.4254 74.0994 15.968 74.8922 16.2054L78.5761 17.3584H78.5973L79.8563 21.5171C80.0301 21.975 79.9411 22.1615 80.4286 22.1615C80.8017 22.1615 80.9628 21.9877 81.1747 21.7884C81.3061 21.6613 82.0692 20.9194 82.9298 20.0843L82.951 20.0631L86.6518 22.7931C86.9104 22.933 87.1393 22.9924 87.3386 22.9712C87.6777 22.9458 87.9236 22.6829 88.0381 22.1615L90.4841 10.6477C90.6876 9.82955 90.3018 9.38019 89.7973 9.40563Z" fill="black"/>
<path d="M93.5621 26.2141C93.117 26.3455 92.8711 26.8415 92.6591 27.2231C92.4683 27.5707 92.0995 27.9776 92.0995 28.3846C92.0995 28.516 92.2352 28.622 92.3624 28.5838C92.7566 28.4736 93.0491 28.0116 93.3331 27.736C93.6469 27.4308 94.0665 27.0577 94.075 26.5999C94.075 26.3413 93.8122 26.1378 93.5578 26.2099L93.5621 26.2141Z" fill="black"/>
<path d="M98.3141 17.3119C100.239 9.53711 92.2054 1.67332 84.8969 0.291328C80.8781 -0.467496 76.6982 0.253172 73.2729 2.48725C70.3309 4.40339 67.321 7.80751 66.948 11.4109C66.9395 11.4914 66.9649 11.555 66.9988 11.6101C64.68 17.5578 67.2066 25.0358 72.2894 28.813C77.3299 32.5562 85.6176 33.8661 90.976 29.9576C91.4296 29.6269 91.0523 28.9698 90.5351 29.2114C90.3401 29.3005 90.1451 29.3895 89.9543 29.4785C89.8568 29.3089 89.6534 29.1987 89.399 29.3217C85.8296 31.0131 80.8739 30.1568 77.3468 28.902C76.9483 28.7621 76.677 29.3937 77.0586 29.5803C78.9366 30.4917 80.9799 31.0258 83.0741 31.1361C83.9473 31.1827 84.8248 31.1488 85.6981 31.0597C84.367 31.3946 82.9935 31.5473 81.514 31.4159C78.5084 31.1445 75.8546 30.0254 73.3704 28.3636C70.4581 26.4178 68.4699 24.048 67.5287 20.6567C66.7106 17.7189 66.6682 14.6242 67.5711 11.7161C67.6093 11.6864 67.6474 11.6525 67.6686 11.6059C67.8255 11.3091 67.9781 11.0166 68.1307 10.7283C67.2362 13.0302 66.9734 15.5823 67.3761 18.0156C68.135 22.6321 70.7379 25.6801 74.5659 28.1855C75.0237 28.4865 75.4858 27.715 74.9983 27.4564C71.5984 25.6547 68.9023 21.5554 68.33 17.8079C67.6983 13.6704 69.2033 9.78723 71.6663 6.49334C71.8782 6.21355 71.4331 5.90408 71.1914 6.12876C70.7887 6.50605 70.4157 6.91303 70.068 7.34119C70.6319 6.49334 71.2635 5.69636 72.0223 4.95449C71.8485 5.247 72.1283 5.68789 72.4759 5.46321C73.3704 4.89091 74.2352 4.28046 75.1636 3.75479C75.8249 3.38174 76.5287 3.08499 77.2069 2.74161C77.3172 2.77552 77.4443 2.78401 77.5927 2.74585C82.5187 1.49528 87.4235 2.03366 91.26 5.63278C91.4084 5.77267 91.5907 5.70908 91.684 5.58191C91.65 5.75996 91.7475 5.97191 91.9849 5.97191C92.4004 5.97191 92.4004 5.33178 91.9849 5.33178C91.8662 5.33178 91.7857 5.38266 91.7348 5.45897C91.7433 5.3869 91.7263 5.3106 91.6585 5.23853C90.3783 3.88621 88.7631 2.75856 86.9869 1.97006C92.1757 3.86925 96.4913 8.51545 97.1144 13.8781C96.7287 12.1654 96.0122 10.5079 94.9651 9.01145C94.6981 8.63416 94.1088 8.96058 94.3335 9.37602C95.7282 11.928 96.3853 14.7175 96.4785 17.6086C96.576 20.627 95.4018 23.2044 93.7951 25.6929C93.6298 25.9472 94.0113 26.2567 94.219 26.0447C94.3165 26.0956 94.4352 26.0956 94.537 26.0023C96.8558 23.8403 98.5515 20.6015 98.3226 17.3585C98.3226 17.3416 98.3141 17.3246 98.3099 17.3076L98.3141 17.3119Z" fill="black"/>
<path d="M75.7912 28.563C75.6895 28.8004 75.8251 29.0378 76.0625 29.1183C76.2364 29.1776 76.3932 29.237 76.5755 29.2624C76.8892 29.3006 77.0079 28.8724 76.8171 28.6817C76.6942 28.5545 76.5289 28.4655 76.3805 28.368C76.1728 28.2281 75.8803 28.351 75.787 28.5672L75.7912 28.563Z" fill="black"/>
</svg>
