<svg width="100" height="100" viewBox="0 0 100 100" fill="none" xmlns="http://www.w3.org/2000/svg">
<g clip-path="url(#clip0_0_660)">
<path d="M80.7262 59.1866C80.7262 81.4436 62.618 99.5497 40.3631 99.5497C18.1062 99.5497 0 81.4434 0 59.1866C0 36.9315 18.1062 18.8235 40.3631 18.8235C62.6182 18.8235 80.7262 36.9315 80.7262 59.1866Z" fill="#67BFFF"/>
<path d="M40.3635 27.0298C22.6316 27.0298 8.20703 41.4546 8.20703 59.1862C8.20703 76.9179 22.6318 91.3427 40.3635 91.3427C58.0934 91.3427 72.5199 76.9179 72.5199 59.1862C72.5199 41.4546 58.0934 27.0298 40.3635 27.0298ZM40.3635 85.5606C25.8199 85.5606 13.9895 73.728 13.9895 59.1866C13.9895 44.6452 25.8199 32.8126 40.3635 32.8126C54.9051 32.8126 66.7355 44.6452 66.7355 59.1866C66.7355 73.728 54.9051 85.5606 40.3635 85.5606Z" fill="white"/>
<path d="M40.3631 41.3496C30.5268 41.3496 22.5264 49.3502 22.5264 59.1863C22.5264 69.0225 30.527 77.023 40.3631 77.023C50.1975 77.023 58.2 69.0225 58.2 59.1863C58.2 49.3502 50.1975 41.3496 40.3631 41.3496ZM40.3631 71.2408C33.7172 71.2408 28.3088 65.8324 28.3088 59.1865C28.3088 52.5406 33.7172 47.1322 40.3631 47.1322C47.009 47.1322 52.4174 52.5406 52.4174 59.1865C52.4174 65.8324 47.009 71.2408 40.3631 71.2408Z" fill="white"/>
<path d="M80.7264 59.1866C80.7264 81.4436 62.6182 99.5497 40.3633 99.5497V18.8235C62.6184 18.8235 80.7264 36.9315 80.7264 59.1866Z" fill="#0088FF"/>
<path d="M58.2002 59.1867C58.2002 69.0229 50.1977 77.0234 40.3633 77.0234V71.2408C47.0092 71.2408 52.4176 65.8324 52.4176 59.1865C52.4176 52.5406 47.0092 47.1322 40.3633 47.1322V41.3496C50.1977 41.3498 58.2002 49.3502 58.2002 59.1867Z" fill="#D9D8DB"/>
<path d="M72.5197 59.1866C72.5197 76.9185 58.093 91.3431 40.3633 91.3431V85.5604C54.9049 85.5604 66.7353 73.7278 66.7353 59.1864C66.7353 44.645 54.9049 32.8124 40.3633 32.8124V27.0298C58.0932 27.0298 72.5197 41.4546 72.5197 59.1866Z" fill="#D9D8DB"/>
<path d="M99.9998 14.928L61.2445 53.6834L40.3652 60.0811L40.3623 60.0838L46.767 39.2032L74.9061 11.067L85.5227 0.450439L99.9998 14.928Z" fill="#FD7052"/>
<path d="M99.9998 14.9278L61.2445 53.6833L40.3652 60.081L92.759 7.68701L99.9998 14.9278Z" fill="#FF4F18"/>
<path d="M61.2463 53.6833L61.2453 53.6842L46.5758 58.179L40.3656 60.0821L40.3623 60.0831L42.2684 53.8719L46.7674 39.2043L61.2463 53.6833Z" fill="#FFDBA8"/>
<path d="M61.2459 53.6832L61.2449 53.6841L46.5754 58.1789L40.3652 60.082L54.0049 46.4421L61.2459 53.6832Z" fill="#FFC473"/>
<path d="M46.5758 58.1789L40.3656 60.082L40.3623 60.083L42.2684 53.8718L46.5758 58.1789Z" fill="#57555C"/>
<path d="M90.0473 24.8795L99.998 14.9287L85.521 0.451667L75.5702 10.4024L90.0473 24.8795Z" fill="#67BFFF"/>
<path d="M89.3815 25.545L93.7129 21.2136L79.2358 6.73658L74.9044 11.068L89.3815 25.545Z" fill="white"/>
<path d="M90.0492 24.878L100 14.9272L92.7593 7.68651L82.8085 17.6373L90.0492 24.878Z" fill="#0088FF"/>
<path d="M44.4217 56.0254L46.5754 58.1789L40.3652 60.082L44.4217 56.0254Z" fill="#3C3A41"/>
<path d="M89.3825 25.545L93.7139 21.2136L86.4731 13.9729L82.1417 18.3043L89.3825 25.545Z" fill="#D9D8DB"/>
</g>
<defs>
<clipPath id="clip0_0_660">
<rect width="100" height="100" fill="white"/>
</clipPath>
</defs>
</svg>
