<svg width="15" height="13" viewBox="0 0 15 13" fill="none" xmlns="http://www.w3.org/2000/svg">
<path d="M12.8025 0L9.372 3.39225C8.87288 3.88489 8.1998 4.16112 7.4985 4.16112C6.7972 4.16112 6.12412 3.88489 5.625 3.39225L2.1975 0H0.0262497L4.54125 4.46775C5.32998 5.24484 6.39277 5.68044 7.5 5.68044C8.60723 5.68044 9.67002 5.24484 10.4587 4.46775L14.9708 0H12.8033H12.8025ZM2.17125 12.4223L5.628 9C6.12712 8.50735 6.8002 8.23113 7.5015 8.23113C8.2028 8.23113 8.87588 8.50735 9.375 9L12.8288 12.4223H15L10.4587 7.9275C9.67002 7.15041 8.60723 6.71481 7.5 6.71481C6.39277 6.71481 5.32998 7.15041 4.54125 7.9275L0 12.4215H2.17125V12.4223Z" fill="white"/>
</svg>
