<svg width="115" height="75" viewBox="0 0 115 75" fill="none" xmlns="http://www.w3.org/2000/svg">
<path d="M92.4254 36.349V7.39136C84.4417 7.39136 77.9463 13.8865 77.9463 21.8703C77.9463 29.854 84.4417 36.349 92.4254 36.349Z" fill="#9BC9FF"/>
<path d="M106.905 21.8703C106.905 13.8865 100.41 7.39136 92.4258 7.39136V36.349C100.41 36.349 106.905 29.8538 106.905 21.8703Z" fill="#57A4FF"/>
<path d="M115 62.3098C115 49.8621 104.873 39.7351 92.425 39.7351C85.9644 39.7351 79.9624 42.4601 75.7471 47.0949C81.6386 51.8604 85.6379 58.8768 86.4222 66.8247H115V62.3098Z" fill="#9BC9FF"/>
<path d="M39.2526 47.0949C35.0372 42.4603 29.0353 39.7351 22.5746 39.7351C10.127 39.7351 0 49.8621 0 62.3098V66.8247H28.5772C29.3617 58.8768 33.361 51.8604 39.2526 47.0949Z" fill="#9BC9FF"/>
<path d="M22.5746 36.349V7.39136C14.5909 7.39136 8.0957 13.8865 8.0957 21.8703C8.0957 29.854 14.5909 36.349 22.5746 36.349Z" fill="#9BC9FF"/>
<path d="M37.0531 21.8703C37.0531 13.8865 30.558 7.39136 22.5742 7.39136V36.349C30.558 36.349 37.0531 29.8538 37.0531 21.8703Z" fill="#57A4FF"/>
<path d="M75.7475 47.0949C70.7554 43.0568 64.4056 40.6343 57.5 40.6343V74.2163H86.5649V69.7014C86.5649 68.7307 86.5161 67.7713 86.4226 66.8249C85.6384 58.8769 81.6391 51.8604 75.7475 47.0949Z" fill="#003F8A"/>
<path d="M75.5597 18.0597C75.5597 8.10204 67.4577 0 57.5 0V36.1194C67.4577 36.1194 75.5597 28.0197 75.5597 18.0597Z" fill="#003F8A"/>
<path d="M39.2521 47.0949C33.3606 51.8604 29.3613 58.8768 28.5768 66.8247C28.4833 67.7712 28.4346 68.7307 28.4346 69.7012V74.2161H57.4994V40.634C50.5941 40.6343 44.2443 43.0568 39.2521 47.0949Z" fill="#005ECE"/>
<path d="M57.5001 36.1194V0C47.5425 0 39.4404 8.10204 39.4404 18.0597C39.4404 28.0197 47.5425 36.1194 57.5001 36.1194Z" fill="#005ECE"/>
</svg>
