<svg width="100" height="100" viewBox="0 0 100 100" fill="none" xmlns="http://www.w3.org/2000/svg">
<g clip-path="url(#clip0_0_88)">
<path d="M80.7262 59.1866C80.7262 81.4436 62.618 99.5497 40.3631 99.5497C18.1062 99.5497 0 81.4434 0 59.1866C0 36.9315 18.1062 18.8235 40.3631 18.8235C62.6182 18.8235 80.7262 36.9315 80.7262 59.1866Z" fill="#67BFFF"/>
<path d="M40.363 27.0298C22.6312 27.0298 8.20654 41.4546 8.20654 59.1862C8.20654 76.9179 22.6313 91.3427 40.363 91.3427C58.0929 91.3427 72.5194 76.9179 72.5194 59.1862C72.5194 41.4546 58.0929 27.0298 40.363 27.0298ZM40.363 85.5606C25.8194 85.5606 13.989 73.728 13.989 59.1866C13.989 44.6452 25.8194 32.8126 40.363 32.8126C54.9046 32.8126 66.7351 44.6452 66.7351 59.1866C66.7351 73.728 54.9046 85.5606 40.363 85.5606Z" fill="white"/>
<path d="M40.3631 41.3496C30.5268 41.3496 22.5264 49.3502 22.5264 59.1863C22.5264 69.0225 30.527 77.023 40.3631 77.023C50.1975 77.023 58.2 69.0225 58.2 59.1863C58.2 49.3502 50.1975 41.3496 40.3631 41.3496ZM40.3631 71.2408C33.7172 71.2408 28.3088 65.8324 28.3088 59.1865C28.3088 52.5406 33.7172 47.1322 40.3631 47.1322C47.009 47.1322 52.4174 52.5406 52.4174 59.1865C52.4174 65.8324 47.009 71.2408 40.3631 71.2408Z" fill="white"/>
<path d="M80.7261 59.1866C80.7261 81.4436 62.6179 99.5497 40.363 99.5497V18.8235C62.6181 18.8235 80.7261 36.9315 80.7261 59.1866Z" fill="#0088FF"/>
<path d="M58.2 59.1867C58.2 69.0229 50.1974 77.0234 40.363 77.0234V71.2408C47.0089 71.2408 52.4173 65.8324 52.4173 59.1865C52.4173 52.5406 47.0089 47.1322 40.363 47.1322V41.3496C50.1974 41.3498 58.2 49.3502 58.2 59.1867Z" fill="#D9D8DB"/>
<path d="M72.5195 59.1866C72.5195 76.9185 58.0927 91.3431 40.363 91.3431V85.5604C54.9046 85.5604 66.7351 73.7278 66.7351 59.1864C66.7351 44.645 54.9046 32.8124 40.363 32.8124V27.0298C58.0929 27.0298 72.5195 41.4546 72.5195 59.1866Z" fill="#D9D8DB"/>
<path d="M100 14.928L61.2448 53.6834L40.3655 60.0811L40.3625 60.0838L46.7672 39.2032L74.9063 11.067L85.5229 0.450439L100 14.928Z" fill="#FD7052"/>
<path d="M100 14.9278L61.2448 53.6833L40.3655 60.081L92.7592 7.68701L100 14.9278Z" fill="#FF4F18"/>
<path d="M61.246 53.6833L61.2451 53.6842L46.5755 58.179L40.3654 60.0821L40.3621 60.0831L42.2681 53.8719L46.7671 39.2043L61.246 53.6833Z" fill="#FFDBA8"/>
<path d="M61.2461 53.6832L61.2452 53.6841L46.5756 58.1789L40.3655 60.082L54.0051 46.4421L61.2461 53.6832Z" fill="#FFC473"/>
<path d="M46.5755 58.1789L40.3654 60.082L40.3621 60.083L42.2681 53.8718L46.5755 58.1789Z" fill="#57555C"/>
<path d="M90.0475 24.8795L99.9983 14.9287L85.5212 0.451667L75.5705 10.4024L90.0475 24.8795Z" fill="#67BFFF"/>
<path d="M89.382 25.545L93.7134 21.2136L79.2363 6.73658L74.9049 11.068L89.382 25.545Z" fill="white"/>
<path d="M90.049 24.878L99.9998 14.9272L92.759 7.68651L82.8083 17.6373L90.049 24.878Z" fill="#0088FF"/>
<path d="M44.4219 56.0254L46.5756 58.1789L40.3655 60.082L44.4219 56.0254Z" fill="#3C3A41"/>
<path d="M89.383 25.545L93.7144 21.2136L86.4736 13.9729L82.1422 18.3043L89.383 25.545Z" fill="#D9D8DB"/>
</g>
<defs>
<clipPath id="clip0_0_88">
<rect width="100" height="100" fill="white"/>
</clipPath>
</defs>
</svg>
