<svg width="98" height="98" viewBox="0 0 98 98" fill="none" xmlns="http://www.w3.org/2000/svg">
<path d="M65.0882 54.9717L65.0462 69.7483L49.0102 79.0676L49.0522 64.291L65.0882 54.9717Z" fill="#0DAAAA"/>
<path d="M49.0522 64.291L49.0102 79.0676L32.8483 69.7483L32.8903 54.9717L49.0522 64.291Z" fill="#1C778A"/>
<path d="M65.0893 54.9717L49.0533 64.291L32.8915 54.9717L48.9484 45.6313L65.0893 54.9717Z" fill="#0CBABA"/>
<path style="mix-blend-mode:screen" opacity="0.67" d="M36.5424 30.0571V54.9716L49.0311 62.171L61.4359 54.9716V30.0571H36.5424Z" fill="url(#paint0_linear_95_5708)"/>
<path d="M65.0882 28.2521L65.0462 43.0287L49.0102 52.348L49.0522 37.5715L65.0882 28.2521Z" fill="#0DAAAA"/>
<path d="M49.0522 37.5715L49.0102 52.348L32.8483 43.0287L32.8903 28.2521L49.0522 37.5715Z" fill="#1C778A"/>
<path d="M65.0893 28.2521L49.0533 37.5714L32.8915 28.2521L48.9484 18.9328L65.0893 28.2521Z" fill="#0CBABA"/>
<path d="M57.0493 28.2521L49.0103 32.9117L40.9504 28.2521L48.9684 23.5924L57.0493 28.2521Z" fill="#BEFFFF"/>
<path d="M97.9585 36.018L97.9164 50.8156L81.8595 60.1349L81.9015 45.3583L97.9585 36.018Z" fill="#0DAAAA"/>
<path d="M81.9001 45.3583L81.8581 60.1349L65.7172 50.8156L65.7592 36.039L81.9001 45.3583Z" fill="#1C778A"/>
<path d="M97.9563 36.018L81.8993 45.3583L65.7584 36.039L81.7944 26.6987L97.9563 36.018Z" fill="#0CBABA"/>
<path style="mix-blend-mode:screen" opacity="0.67" d="M69.4113 11.1245V36.039L81.9001 43.2384L94.3048 36.039V11.1245H69.4113Z" fill="url(#paint1_linear_95_5708)"/>
<path d="M97.9585 9.31935L97.9164 24.0959L81.8595 33.4152L81.9015 18.6387L97.9585 9.31935Z" fill="#0DAAAA"/>
<path d="M81.9001 18.6387L81.8581 33.4152L65.7172 24.0959L65.7592 9.31935L81.9001 18.6387Z" fill="#1C778A"/>
<path d="M97.9563 9.31933L81.8993 18.6387L65.7584 9.31933L81.7944 0L97.9563 9.31933Z" fill="#0CBABA"/>
<path d="M89.8956 9.31952L81.8777 13.9792L73.7967 9.31952L81.8356 4.65986L89.8956 9.31952Z" fill="#BEFFFF"/>
<path d="M32.2203 73.9041L32.1783 88.6807L16.1423 98L16.1843 83.2234L32.2203 73.9041Z" fill="#0DAAAA"/>
<path d="M16.1829 83.2234L16.1409 98L0 88.6807L0.0420199 73.9041L16.1829 83.2234Z" fill="#1C778A"/>
<path d="M32.221 73.9041L16.185 83.2234L0.0441879 73.9041L16.0801 64.5848L32.221 73.9041Z" fill="#0CBABA"/>
<path style="mix-blend-mode:screen" opacity="0.67" d="M3.6725 48.9895V73.904L16.1613 81.1034L28.587 73.904V48.9895H3.6725Z" fill="url(#paint2_linear_95_5708)"/>
<path d="M32.2203 47.1843L32.1783 61.9609L16.1423 71.3012L16.1843 56.5036L32.2203 47.1843Z" fill="#0DAAAA"/>
<path d="M16.1829 56.5036L16.1409 71.3012L0 61.9609L0.0420199 47.1843L16.1829 56.5036Z" fill="#1C778A"/>
<path d="M32.221 47.1844L16.185 56.5037L0.0441879 47.1844L16.0801 37.8651L32.221 47.1844Z" fill="#0CBABA"/>
<path d="M24.1785 47.1844L16.1605 51.844L8.07951 47.1844L16.0975 42.5247L24.1785 47.1844Z" fill="#BEFFFF"/>
<defs>
<linearGradient id="paint0_linear_95_5708" x1="48.9892" y1="26.5518" x2="48.9892" y2="57.2384" gradientUnits="userSpaceOnUse">
<stop stop-opacity="0"/>
<stop offset="0.08" stop-color="#101616" stop-opacity="0.09"/>
<stop offset="0.42" stop-color="#5A7878" stop-opacity="0.47"/>
<stop offset="0.7" stop-color="#8FC1C1" stop-opacity="0.76"/>
<stop offset="0.9" stop-color="#B1EDED" stop-opacity="0.93"/>
<stop offset="1" stop-color="#BEFFFF"/>
</linearGradient>
<linearGradient id="paint1_linear_95_5708" x1="81.858" y1="7.6193" x2="81.858" y2="38.3059" gradientUnits="userSpaceOnUse">
<stop stop-opacity="0"/>
<stop offset="0.08" stop-color="#101616" stop-opacity="0.09"/>
<stop offset="0.42" stop-color="#5A7878" stop-opacity="0.47"/>
<stop offset="0.7" stop-color="#8FC1C1" stop-opacity="0.76"/>
<stop offset="0.9" stop-color="#B1EDED" stop-opacity="0.93"/>
<stop offset="1" stop-color="#BEFFFF"/>
</linearGradient>
<linearGradient id="paint2_linear_95_5708" x1="16.1192" y1="45.4843" x2="16.1192" y2="76.1708" gradientUnits="userSpaceOnUse">
<stop stop-opacity="0"/>
<stop offset="0.08" stop-color="#101616" stop-opacity="0.09"/>
<stop offset="0.42" stop-color="#5A7878" stop-opacity="0.47"/>
<stop offset="0.7" stop-color="#8FC1C1" stop-opacity="0.76"/>
<stop offset="0.9" stop-color="#B1EDED" stop-opacity="0.93"/>
<stop offset="1" stop-color="#BEFFFF"/>
</linearGradient>
</defs>
</svg>
