<svg width="103" height="181" viewBox="0 0 103 181" fill="none" xmlns="http://www.w3.org/2000/svg">
<path d="M102.604 141.452C102.604 141.452 102.604 141.515 102.583 141.536C102.499 141.787 102.353 142.038 102.206 142.289C102.185 142.331 102.143 142.373 102.122 142.415C101.934 142.666 101.725 142.896 101.474 143.126C101.306 143.273 101.097 143.398 100.909 143.545C100.741 143.67 100.595 143.796 100.407 143.9L57.3224 168.947C56.8412 169.24 56.2762 169.449 55.7112 169.659C55.5019 169.722 55.3137 169.784 55.1044 169.847C54.8324 169.931 54.5603 169.993 54.2883 170.056C53.9535 170.119 53.6397 170.182 53.3049 170.224C53.2212 170.224 53.1374 170.245 53.0746 170.266C52.6143 170.307 52.154 170.328 51.7146 170.349C51.6309 170.349 51.568 170.349 51.4843 170.349C51.024 170.349 50.5846 170.328 50.1243 170.266C50.0615 170.266 49.9778 170.266 49.915 170.245C49.4756 170.182 49.0363 170.119 48.5968 170.014C48.5131 170.014 48.4503 169.973 48.3666 169.952C47.969 169.847 47.5924 169.742 47.2367 169.617C47.1739 169.596 47.0902 169.575 47.0275 169.554C46.588 169.387 46.1695 169.198 45.7929 168.968L2.41577 143.921C0.804558 143 0.00936371 141.787 0.00936371 140.573V151.203C-0.0324859 152.417 0.783592 153.63 2.37388 154.551L45.751 179.598C46.1276 179.807 46.5042 179.996 46.9227 180.163C46.9437 180.163 46.9647 180.163 46.9856 180.184C47.0484 180.205 47.132 180.226 47.1948 180.247C47.4249 180.33 47.6761 180.414 47.9063 180.498C48.0318 180.54 48.1783 180.561 48.3248 180.602C48.4085 180.602 48.4712 180.644 48.5549 180.665C48.6177 180.665 48.7014 180.707 48.7641 180.707C49.0362 180.77 49.3082 180.812 49.5802 180.853C49.6849 180.853 49.7686 180.874 49.8732 180.895C49.936 180.895 50.0196 180.895 50.0824 180.916C50.187 180.916 50.2708 180.937 50.3754 180.958C50.6474 180.979 50.9194 181 51.1705 181C51.2542 181 51.3379 181 51.4216 181C51.5053 181 51.5681 181 51.6518 181C51.7773 181 51.9028 181 52.0075 181C52.3004 181 52.6144 180.979 52.9073 180.937C52.9492 180.937 52.9701 180.937 53.0119 180.937C53.0956 180.937 53.1793 180.916 53.2421 180.895C53.4722 180.874 53.7025 180.833 53.9326 180.791C54.0373 180.791 54.1209 180.728 54.2255 180.707C54.4975 180.644 54.7696 180.581 55.0416 180.498C55.1881 180.456 55.3346 180.435 55.481 180.393C55.5438 180.372 55.6065 180.33 55.6693 180.309C56.2343 180.121 56.7784 179.891 57.2805 179.598L100.365 154.551C100.365 154.551 100.428 154.509 100.469 154.488C100.616 154.405 100.741 154.279 100.867 154.195C101.055 154.049 101.265 153.923 101.432 153.777C101.432 153.777 101.474 153.756 101.495 153.735C101.683 153.568 101.85 153.379 101.997 153.191C102.039 153.149 102.06 153.107 102.081 153.065C102.122 153.023 102.143 152.982 102.164 152.94C102.206 152.856 102.269 152.793 102.311 152.71C102.394 152.563 102.478 152.396 102.52 152.249C102.52 152.228 102.52 152.207 102.52 152.187C102.52 152.166 102.52 152.124 102.541 152.103C102.562 151.998 102.604 151.914 102.625 151.81C102.645 151.663 102.666 151.496 102.687 151.35C102.687 151.329 102.687 151.308 102.687 151.287V140.657C102.708 140.929 102.667 141.222 102.583 141.494L102.604 141.452Z" fill="url(#paint0_linear_95_6307)"/>
<path d="M100.345 138.23C103.546 140.071 103.567 143.063 100.387 144.905L57.3026 169.952C54.122 171.793 48.9536 171.793 45.773 169.952L2.39593 144.905C-0.784644 143.063 -0.805589 140.071 2.37498 138.23L45.4592 113.183C48.6189 111.341 53.7873 111.341 56.9679 113.183L100.345 138.23Z" fill="#52DFDF"/>
<path d="M100.345 137.267C103.546 139.108 103.567 142.101 100.387 143.942L57.3026 168.989C54.122 170.83 48.9536 170.83 45.773 168.989L2.39593 143.942C-0.784644 142.101 -0.805589 139.108 2.37498 137.267L45.4592 112.22C48.6189 110.379 53.7873 110.379 56.9679 112.22L100.345 137.267Z" fill="url(#paint1_linear_95_6307)"/>
<path opacity="0.83" d="M93.459 104.959C93.459 104.959 93.4591 105.001 93.4382 105.022C93.3545 105.231 93.2498 105.44 93.1243 105.65C93.1034 105.691 93.0825 105.712 93.0406 105.754C92.8942 105.963 92.7268 106.152 92.5175 106.34C92.371 106.466 92.2035 106.57 92.0362 106.696C91.8897 106.8 91.7852 106.905 91.6178 106.989L56.2338 127.558C55.8363 127.788 55.3759 127.976 54.9156 128.144C54.7482 128.207 54.5808 128.248 54.4134 128.29C54.2041 128.353 53.974 128.416 53.7438 128.458C53.4718 128.52 53.1997 128.562 52.9277 128.604C52.8649 128.604 52.8022 128.604 52.7394 128.625C52.3628 128.667 51.9861 128.688 51.6094 128.688C51.5466 128.688 51.4839 128.688 51.4212 128.688C51.0445 128.688 50.6887 128.667 50.3121 128.625C50.2493 128.625 50.2076 128.625 50.1448 128.625C49.7891 128.583 49.4124 128.52 49.0776 128.437C49.0148 128.437 48.952 128.395 48.8892 128.395C48.5753 128.311 48.2615 128.227 47.9685 128.123C47.9057 128.123 47.864 128.081 47.8012 128.06C47.4455 127.914 47.0897 127.767 46.7758 127.579L11.1619 107.01C9.8436 106.256 9.174 105.252 9.19492 104.248L9.09033 140.259C9.09033 141.264 9.739 142.247 11.0573 143.021L46.6712 163.59C46.9641 163.758 47.299 163.925 47.6338 164.051C47.6338 164.051 47.6756 164.051 47.6965 164.051C47.7593 164.072 47.8011 164.093 47.8639 164.113C48.0522 164.176 48.2616 164.26 48.4499 164.323C48.5545 164.344 48.68 164.386 48.7846 164.406C48.8474 164.406 48.9102 164.448 48.973 164.448C49.0358 164.448 49.0775 164.469 49.1403 164.49C49.3496 164.532 49.5797 164.574 49.8099 164.616C49.8936 164.616 49.9773 164.616 50.0401 164.637C50.1028 164.637 50.1447 164.637 50.2075 164.637C50.2912 164.637 50.3749 164.637 50.4586 164.658C50.6678 164.658 50.898 164.678 51.1072 164.699C51.17 164.699 51.2538 164.699 51.3166 164.699C51.3793 164.699 51.442 164.699 51.5048 164.699C51.6094 164.699 51.7141 164.699 51.7978 164.699C52.0489 164.699 52.2999 164.678 52.5301 164.658C52.551 164.658 52.593 164.658 52.6139 164.658C52.6767 164.658 52.7394 164.658 52.8021 164.637C52.9905 164.616 53.1788 164.595 53.3672 164.553C53.4509 164.553 53.5345 164.511 53.6182 164.49C53.8484 164.448 54.0577 164.386 54.2878 164.323C54.4134 164.281 54.5389 164.281 54.6435 164.239C54.7063 164.239 54.7482 164.197 54.79 164.176C55.2504 164.009 55.7107 163.821 56.1083 163.59L91.4922 143.021C91.4922 143.021 91.5549 142.979 91.5759 142.979C91.7014 142.896 91.7851 142.812 91.9106 142.728C92.078 142.603 92.2455 142.498 92.392 142.373C92.392 142.373 92.4337 142.352 92.4337 142.331C92.5802 142.184 92.7267 142.038 92.8522 141.891C92.8732 141.849 92.8942 141.829 92.9151 141.787C92.936 141.745 92.9569 141.703 92.9987 141.682C93.0406 141.619 93.0824 141.557 93.1243 141.494C93.1871 141.368 93.2499 141.243 93.3127 141.117C93.3127 141.117 93.3127 141.075 93.3127 141.054C93.3127 141.033 93.3126 141.012 93.3335 140.971C93.3544 140.887 93.3963 140.803 93.3963 140.72C93.4172 140.594 93.4382 140.468 93.4382 140.343C93.4382 140.343 93.4382 140.301 93.4382 140.28L93.5428 104.269C93.5428 104.499 93.501 104.729 93.4173 104.959H93.459Z" fill="url(#paint2_linear_95_6307)"/>
<path d="M91.5973 101.506C94.2129 103.013 94.2339 105.482 91.6183 106.989L56.2344 127.558C53.6188 129.064 49.3919 129.064 46.7763 127.558L11.1624 106.989C8.54678 105.482 8.52584 103.013 11.1414 101.506L46.5252 80.9373C49.1408 79.4307 53.3677 79.4307 55.9833 80.9373L91.5973 101.506Z" fill="#DCDCDC"/>
<path d="M102.604 95.9194C102.604 95.9194 102.604 95.9822 102.583 96.0031C102.499 96.2542 102.353 96.5053 102.206 96.7564C102.185 96.7982 102.143 96.8401 102.122 96.8819C101.934 97.133 101.725 97.3632 101.474 97.5934C101.306 97.7399 101.097 97.8654 100.909 98.0119C100.741 98.1374 100.595 98.263 100.407 98.3676L57.3224 123.415C56.8412 123.708 56.2762 123.917 55.7112 124.126C55.5019 124.189 55.3137 124.252 55.1044 124.314C54.8324 124.398 54.5603 124.461 54.2883 124.524C53.9535 124.586 53.6397 124.649 53.3049 124.691C53.2212 124.691 53.1374 124.712 53.0746 124.733C52.6143 124.775 52.154 124.796 51.7146 124.817C51.6309 124.817 51.568 124.817 51.4843 124.817C51.024 124.817 50.5846 124.796 50.1243 124.733C50.0615 124.733 49.9778 124.733 49.915 124.712C49.4756 124.649 49.0363 124.586 48.5968 124.482C48.5131 124.482 48.4503 124.44 48.3666 124.419C47.969 124.314 47.5924 124.21 47.2367 124.084C47.1739 124.063 47.0902 124.042 47.0275 124.021C46.588 123.854 46.1695 123.666 45.7929 123.435L2.41577 98.3885C0.804558 97.4678 0.00936371 96.2542 0.00936371 95.0406V105.67C-0.0324859 106.884 0.783592 108.098 2.37388 109.018L45.751 134.065C46.1276 134.275 46.5042 134.463 46.9227 134.63C46.9437 134.63 46.9647 134.63 46.9856 134.651C47.0484 134.672 47.132 134.693 47.1948 134.714C47.4249 134.798 47.6761 134.881 47.9063 134.965C48.0318 135.007 48.1783 135.028 48.3248 135.07C48.4085 135.07 48.4712 135.112 48.5549 135.133C48.6177 135.133 48.7014 135.174 48.7641 135.174C49.0362 135.237 49.3082 135.279 49.5802 135.321C49.6849 135.321 49.7686 135.342 49.8732 135.363C49.936 135.363 50.0196 135.363 50.0824 135.384C50.187 135.384 50.2708 135.404 50.3754 135.425C50.6474 135.446 50.9194 135.467 51.1705 135.467C51.2542 135.467 51.3379 135.467 51.4216 135.467C51.5053 135.467 51.5681 135.467 51.6518 135.467C51.7773 135.467 51.9028 135.467 52.0075 135.467C52.3004 135.467 52.6144 135.446 52.9073 135.404C52.9492 135.404 52.9701 135.404 53.0119 135.404C53.0956 135.404 53.1793 135.384 53.2421 135.363C53.4722 135.342 53.7025 135.3 53.9326 135.258C54.0373 135.258 54.1209 135.195 54.2255 135.195C54.4975 135.133 54.7696 135.07 55.0416 134.986C55.1881 134.944 55.3346 134.923 55.481 134.881C55.5438 134.86 55.6065 134.819 55.6693 134.798C56.2343 134.609 56.7784 134.379 57.2805 134.086L100.365 109.039C100.365 109.039 100.428 108.997 100.469 108.977C100.616 108.893 100.741 108.767 100.867 108.684C101.055 108.537 101.265 108.411 101.432 108.265C101.432 108.265 101.474 108.244 101.495 108.223C101.683 108.056 101.85 107.867 101.997 107.679C102.039 107.637 102.06 107.595 102.081 107.554C102.122 107.512 102.143 107.47 102.164 107.428C102.206 107.344 102.269 107.282 102.311 107.198C102.394 107.051 102.478 106.884 102.52 106.738C102.52 106.717 102.52 106.696 102.52 106.675C102.52 106.654 102.52 106.612 102.541 106.591C102.562 106.486 102.604 106.403 102.625 106.298C102.645 106.152 102.666 105.984 102.687 105.838C102.687 105.817 102.687 105.796 102.687 105.775V95.1452C102.708 95.4172 102.667 95.7101 102.583 95.9822L102.604 95.9194Z" fill="url(#paint3_linear_95_6307)"/>
<path d="M100.345 92.6971C103.546 94.5385 103.567 97.5308 100.387 99.3722L57.3026 124.419C54.122 126.261 48.9536 126.261 45.773 124.419L2.39593 99.3722C-0.784644 97.5308 -0.805589 94.5385 2.37498 92.6971L45.4592 67.6502C48.6189 65.8088 53.7873 65.8088 56.9679 67.6502L100.345 92.6971Z" fill="#52DFDF"/>
<path d="M100.345 91.7136C103.546 93.555 103.567 96.5472 100.387 98.3886L57.3026 123.436C54.122 125.277 48.9536 125.277 45.773 123.436L2.39593 98.3886C-0.784644 96.5472 -0.805589 93.555 2.37498 91.7136L45.4592 66.6666C48.6189 64.8252 53.7873 64.8252 56.9679 66.6666L100.345 91.7136Z" fill="url(#paint4_linear_95_6307)"/>
<path d="M29.1368 95.0195L51.2126 82.1717L73.602 95.1033L51.5054 107.93L29.1368 95.0195Z" fill="#BEFFFF"/>
<path style="mix-blend-mode:screen" opacity="0.4" d="M94.5271 12.9315L51.2128 0L8.21223 12.8478L8.35872 12.9315H8.21223L29.137 95.0195L51.5057 107.93L73.6022 95.1033L73.4349 95.0195H73.6022L94.5271 12.9315Z" fill="url(#paint5_linear_95_6307)"/>
<path style="mix-blend-mode:screen" opacity="0.67" d="M73.602 12.9315L51.2126 0L29.1368 12.8478L29.2833 12.9315H29.1368V95.0195L51.5054 107.93L73.602 95.1033L73.4347 95.0195H73.602V12.9315Z" fill="url(#paint6_linear_95_6307)"/>
<path style="mix-blend-mode:screen" d="M50.2717 61.0799C50.2717 62.5655 49.058 63.7791 47.5723 63.7791C46.0867 63.7791 44.8731 62.5655 44.8731 61.0799C44.8731 59.5942 46.0867 58.3806 47.5723 58.3806C49.058 58.3806 50.2717 59.5942 50.2717 61.0799Z" fill="url(#paint7_radial_95_6307)"/>
<path style="mix-blend-mode:screen" d="M44.8729 94.2665C44.8729 95.7521 43.6593 96.9658 42.1737 96.9658C40.688 96.9658 39.4743 95.7521 39.4743 94.2665C39.4743 92.7808 40.688 91.5672 42.1737 91.5672C43.6593 91.5672 44.8729 92.7808 44.8729 94.2665Z" fill="url(#paint8_radial_95_6307)"/>
<path style="mix-blend-mode:screen" d="M61.9053 85.7291C61.9053 87.2148 60.6916 88.4285 59.2059 88.4285C57.7203 88.4285 56.5067 87.2148 56.5067 85.7291C56.5067 84.2435 57.7203 83.0299 59.2059 83.0299C60.6916 83.0299 61.9053 84.2435 61.9053 85.7291Z" fill="url(#paint9_radial_95_6307)"/>
<path style="mix-blend-mode:screen" d="M67.6398 48.8179C67.6398 49.5712 67.0329 50.178 66.2796 50.178C65.5263 50.178 64.9196 49.5712 64.9196 48.8179C64.9196 48.0646 65.5263 47.4578 66.2796 47.4578C67.0329 47.4578 67.6398 48.0646 67.6398 48.8179Z" fill="url(#paint10_radial_95_6307)"/>
<path style="mix-blend-mode:screen" d="M59.1849 26.5539C59.1849 27.3072 58.578 27.914 57.8247 27.914C57.0714 27.914 56.4646 27.3072 56.4646 26.5539C56.4646 25.8006 57.0714 25.1938 57.8247 25.1938C58.578 25.1938 59.1849 25.8006 59.1849 26.5539Z" fill="url(#paint11_radial_95_6307)"/>
<path style="mix-blend-mode:screen" d="M50.7539 45.2398C51.5051 45.2398 52.1141 44.6309 52.1141 43.8797C52.1141 43.1285 51.5051 42.5196 50.7539 42.5196C50.0028 42.5196 49.3938 43.1285 49.3938 43.8797C49.3938 44.6309 50.0028 45.2398 50.7539 45.2398Z" fill="url(#paint12_radial_95_6307)"/>
<path style="mix-blend-mode:screen" d="M57.8456 72.7976C57.8456 73.5509 57.2387 74.1577 56.4854 74.1577C55.7321 74.1577 55.1254 73.5509 55.1254 72.7976C55.1254 72.0444 55.7321 71.4375 56.4854 71.4375C57.2387 71.4375 57.8456 72.0444 57.8456 72.7976Z" fill="url(#paint13_radial_95_6307)"/>
<path style="mix-blend-mode:screen" d="M38.1978 66.1228C38.1978 66.5832 37.8211 66.9598 37.3607 66.9598C36.9004 66.9598 36.5238 66.5832 36.5238 66.1228C36.5238 65.6625 36.9004 65.2858 37.3607 65.2858C37.8211 65.2858 38.1978 65.6625 38.1978 66.1228Z" fill="url(#paint14_radial_95_6307)"/>
<path style="mix-blend-mode:screen" d="M66.2783 61.0798C66.2783 61.5402 65.9017 61.9168 65.4414 61.9168C64.9811 61.9168 64.6044 61.5402 64.6044 61.0798C64.6044 60.6195 64.9811 60.2429 65.4414 60.2429C65.9017 60.2429 66.2783 60.6195 66.2783 61.0798Z" fill="url(#paint15_radial_95_6307)"/>
<path style="mix-blend-mode:screen" d="M50.7536 83.03C51.2158 83.03 51.5906 82.6553 51.5906 82.193C51.5906 81.7307 51.2158 81.356 50.7536 81.356C50.2913 81.356 49.9165 81.7307 49.9165 82.193C49.9165 82.6553 50.2913 83.03 50.7536 83.03Z" fill="url(#paint16_radial_95_6307)"/>
<path style="mix-blend-mode:screen" d="M38.9505 45.5536C39.4128 45.5536 39.7875 45.1788 39.7875 44.7166C39.7875 44.2543 39.4128 43.8796 38.9505 43.8796C38.4882 43.8796 38.1136 44.2543 38.1136 44.7166C38.1136 45.1788 38.4882 45.5536 38.9505 45.5536Z" fill="url(#paint17_radial_95_6307)"/>
<path style="mix-blend-mode:screen" d="M45.7102 32.6639C45.7102 33.1242 45.3335 33.5009 44.8731 33.5009C44.4128 33.5009 44.0361 33.1242 44.0361 32.6639C44.0361 32.2035 44.4128 31.8269 44.8731 31.8269C45.3335 31.8269 45.7102 32.2035 45.7102 32.6639Z" fill="url(#paint18_radial_95_6307)"/>
<path style="mix-blend-mode:screen" d="M40.6255 76.7106C40.6255 77.171 40.2489 77.5476 39.7886 77.5476C39.3282 77.5476 38.9515 77.171 38.9515 76.7106C38.9515 76.2503 39.3282 75.8737 39.7886 75.8737C40.2489 75.8737 40.6255 76.2503 40.6255 76.7106Z" fill="url(#paint19_radial_95_6307)"/>
<path style="mix-blend-mode:screen" d="M63.7684 36.1584C64.2307 36.1584 64.6053 35.7837 64.6053 35.3215C64.6053 34.8592 64.2307 34.4845 63.7684 34.4845C63.3062 34.4845 62.9314 34.8592 62.9314 35.3215C62.9314 35.7837 63.3062 36.1584 63.7684 36.1584Z" fill="url(#paint20_radial_95_6307)"/>
<defs>
<linearGradient id="paint0_linear_95_6307" x1="-0.0534107" y1="160.787" x2="102.75" y2="160.787" gradientUnits="userSpaceOnUse">
<stop stop-color="#1FB0B2"/>
<stop offset="1" stop-color="#0C4F63"/>
</linearGradient>
<linearGradient id="paint1_linear_95_6307" x1="-0.0104366" y1="140.594" x2="102.751" y2="140.594" gradientUnits="userSpaceOnUse">
<stop stop-color="#51D9E0"/>
<stop offset="1" stop-color="#139EA7"/>
</linearGradient>
<linearGradient id="paint2_linear_95_6307" x1="51.3375" y1="161.017" x2="51.3375" y2="108.182" gradientUnits="userSpaceOnUse">
<stop stop-color="#52DFDF"/>
<stop offset="1" stop-color="#0CBABA" stop-opacity="0"/>
</linearGradient>
<linearGradient id="paint3_linear_95_6307" x1="-0.0534107" y1="115.233" x2="102.75" y2="115.233" gradientUnits="userSpaceOnUse">
<stop stop-color="#1FB0B2"/>
<stop offset="1" stop-color="#0C4F63"/>
</linearGradient>
<linearGradient id="paint4_linear_95_6307" x1="-0.0104366" y1="95.0616" x2="102.751" y2="95.0616" gradientUnits="userSpaceOnUse">
<stop stop-color="#51D9E0"/>
<stop offset="1" stop-color="#139EA7"/>
</linearGradient>
<linearGradient id="paint5_linear_95_6307" x1="51.3592" y1="6.17282" x2="51.3592" y2="106.675" gradientUnits="userSpaceOnUse">
<stop stop-opacity="0"/>
<stop offset="0.08" stop-color="#101616" stop-opacity="0.09"/>
<stop offset="0.42" stop-color="#5A7878" stop-opacity="0.47"/>
<stop offset="0.7" stop-color="#8FC1C1" stop-opacity="0.76"/>
<stop offset="0.9" stop-color="#B1EDED" stop-opacity="0.93"/>
<stop offset="1" stop-color="#BEFFFF"/>
</linearGradient>
<linearGradient id="paint6_linear_95_6307" x1="51.359" y1="6.17282" x2="51.359" y2="106.675" gradientUnits="userSpaceOnUse">
<stop stop-opacity="0"/>
<stop offset="0.08" stop-color="#101616" stop-opacity="0.09"/>
<stop offset="0.42" stop-color="#5A7878" stop-opacity="0.47"/>
<stop offset="0.7" stop-color="#8FC1C1" stop-opacity="0.76"/>
<stop offset="0.9" stop-color="#B1EDED" stop-opacity="0.93"/>
<stop offset="1" stop-color="#BEFFFF"/>
</linearGradient>
<radialGradient id="paint7_radial_95_6307" cx="0" cy="0" r="1" gradientUnits="userSpaceOnUse" gradientTransform="translate(47.5724 61.0799) scale(2.69932 2.69929)">
<stop stop-color="white"/>
<stop offset="0.14" stop-color="#18FFFF"/>
<stop offset="0.18" stop-color="#13CDCD"/>
<stop offset="0.24" stop-color="#0E9797"/>
<stop offset="0.3" stop-color="#096969"/>
<stop offset="0.36" stop-color="#064343"/>
<stop offset="0.42" stop-color="#032525"/>
<stop offset="0.47" stop-color="#011010"/>
<stop offset="0.53" stop-color="#000404"/>
<stop offset="0.58"/>
</radialGradient>
<radialGradient id="paint8_radial_95_6307" cx="0" cy="0" r="1" gradientUnits="userSpaceOnUse" gradientTransform="translate(42.1527 94.2665) scale(2.69932 2.69929)">
<stop stop-color="white"/>
<stop offset="0.14" stop-color="#18FFFF"/>
<stop offset="0.18" stop-color="#13CDCD"/>
<stop offset="0.24" stop-color="#0E9797"/>
<stop offset="0.3" stop-color="#096969"/>
<stop offset="0.36" stop-color="#064343"/>
<stop offset="0.42" stop-color="#032525"/>
<stop offset="0.47" stop-color="#011010"/>
<stop offset="0.53" stop-color="#000404"/>
<stop offset="0.58"/>
</radialGradient>
<radialGradient id="paint9_radial_95_6307" cx="0" cy="0" r="1" gradientUnits="userSpaceOnUse" gradientTransform="translate(59.1851 85.7292) scale(2.69932 2.6993)">
<stop stop-color="white"/>
<stop offset="0.14" stop-color="#18FFFF"/>
<stop offset="0.18" stop-color="#13CDCD"/>
<stop offset="0.24" stop-color="#0E9797"/>
<stop offset="0.3" stop-color="#096969"/>
<stop offset="0.36" stop-color="#064343"/>
<stop offset="0.42" stop-color="#032525"/>
<stop offset="0.47" stop-color="#011010"/>
<stop offset="0.53" stop-color="#000404"/>
<stop offset="0.58"/>
</radialGradient>
<radialGradient id="paint10_radial_95_6307" cx="0" cy="0" r="1" gradientUnits="userSpaceOnUse" gradientTransform="translate(66.2797 48.8179) scale(1.3601)">
<stop stop-color="white"/>
<stop offset="0.14" stop-color="#18FFFF"/>
<stop offset="0.18" stop-color="#13CDCD"/>
<stop offset="0.24" stop-color="#0E9797"/>
<stop offset="0.3" stop-color="#096969"/>
<stop offset="0.36" stop-color="#064343"/>
<stop offset="0.42" stop-color="#032525"/>
<stop offset="0.47" stop-color="#011010"/>
<stop offset="0.53" stop-color="#000404"/>
<stop offset="0.58"/>
</radialGradient>
<radialGradient id="paint11_radial_95_6307" cx="0" cy="0" r="1" gradientUnits="userSpaceOnUse" gradientTransform="translate(57.8457 26.5539) scale(1.36016 1.3601)">
<stop stop-color="white"/>
<stop offset="0.14" stop-color="#18FFFF"/>
<stop offset="0.18" stop-color="#13CDCD"/>
<stop offset="0.24" stop-color="#0E9797"/>
<stop offset="0.3" stop-color="#096969"/>
<stop offset="0.36" stop-color="#064343"/>
<stop offset="0.42" stop-color="#032525"/>
<stop offset="0.47" stop-color="#011010"/>
<stop offset="0.53" stop-color="#000404"/>
<stop offset="0.58"/>
</radialGradient>
<radialGradient id="paint12_radial_95_6307" cx="0" cy="0" r="1" gradientUnits="userSpaceOnUse" gradientTransform="translate(50.7539 43.8797) scale(1.36016 1.3601)">
<stop stop-color="white"/>
<stop offset="0.14" stop-color="#18FFFF"/>
<stop offset="0.18" stop-color="#13CDCD"/>
<stop offset="0.24" stop-color="#0E9797"/>
<stop offset="0.3" stop-color="#096969"/>
<stop offset="0.36" stop-color="#064343"/>
<stop offset="0.42" stop-color="#032525"/>
<stop offset="0.47" stop-color="#011010"/>
<stop offset="0.53" stop-color="#000404"/>
<stop offset="0.58"/>
</radialGradient>
<radialGradient id="paint13_radial_95_6307" cx="0" cy="0" r="1" gradientUnits="userSpaceOnUse" gradientTransform="translate(56.4855 72.7976) scale(1.3601 1.36012)">
<stop stop-color="white"/>
<stop offset="0.14" stop-color="#18FFFF"/>
<stop offset="0.18" stop-color="#13CDCD"/>
<stop offset="0.24" stop-color="#0E9797"/>
<stop offset="0.3" stop-color="#096969"/>
<stop offset="0.36" stop-color="#064343"/>
<stop offset="0.42" stop-color="#032525"/>
<stop offset="0.47" stop-color="#011010"/>
<stop offset="0.53" stop-color="#000404"/>
<stop offset="0.58"/>
</radialGradient>
<radialGradient id="paint14_radial_95_6307" cx="0" cy="0" r="1" gradientUnits="userSpaceOnUse" gradientTransform="translate(37.3608 66.1228) scale(0.836979 0.836995)">
<stop stop-color="white"/>
<stop offset="0.14" stop-color="#18FFFF"/>
<stop offset="0.18" stop-color="#13CDCD"/>
<stop offset="0.24" stop-color="#0E9797"/>
<stop offset="0.3" stop-color="#096969"/>
<stop offset="0.36" stop-color="#064343"/>
<stop offset="0.42" stop-color="#032525"/>
<stop offset="0.47" stop-color="#011010"/>
<stop offset="0.53" stop-color="#000404"/>
<stop offset="0.58"/>
</radialGradient>
<radialGradient id="paint15_radial_95_6307" cx="0" cy="0" r="1" gradientUnits="userSpaceOnUse" gradientTransform="translate(65.4413 61.0798) scale(0.836979)">
<stop stop-color="white"/>
<stop offset="0.14" stop-color="#18FFFF"/>
<stop offset="0.18" stop-color="#13CDCD"/>
<stop offset="0.24" stop-color="#0E9797"/>
<stop offset="0.3" stop-color="#096969"/>
<stop offset="0.36" stop-color="#064343"/>
<stop offset="0.42" stop-color="#032525"/>
<stop offset="0.47" stop-color="#011010"/>
<stop offset="0.53" stop-color="#000404"/>
<stop offset="0.58"/>
</radialGradient>
<radialGradient id="paint16_radial_95_6307" cx="0" cy="0" r="1" gradientUnits="userSpaceOnUse" gradientTransform="translate(50.7536 82.193) scale(0.837043 0.836995)">
<stop stop-color="white"/>
<stop offset="0.14" stop-color="#18FFFF"/>
<stop offset="0.18" stop-color="#13CDCD"/>
<stop offset="0.24" stop-color="#0E9797"/>
<stop offset="0.3" stop-color="#096969"/>
<stop offset="0.36" stop-color="#064343"/>
<stop offset="0.42" stop-color="#032525"/>
<stop offset="0.47" stop-color="#011010"/>
<stop offset="0.53" stop-color="#000404"/>
<stop offset="0.58"/>
</radialGradient>
<radialGradient id="paint17_radial_95_6307" cx="0" cy="0" r="1" gradientUnits="userSpaceOnUse" gradientTransform="translate(38.9506 44.7166) scale(0.836979 0.836995)">
<stop stop-color="white"/>
<stop offset="0.14" stop-color="#18FFFF"/>
<stop offset="0.18" stop-color="#13CDCD"/>
<stop offset="0.24" stop-color="#0E9797"/>
<stop offset="0.3" stop-color="#096969"/>
<stop offset="0.36" stop-color="#064343"/>
<stop offset="0.42" stop-color="#032525"/>
<stop offset="0.47" stop-color="#011010"/>
<stop offset="0.53" stop-color="#000404"/>
<stop offset="0.58"/>
</radialGradient>
<radialGradient id="paint18_radial_95_6307" cx="0" cy="0" r="1" gradientUnits="userSpaceOnUse" gradientTransform="translate(44.8731 32.6639) scale(0.837043 0.836995)">
<stop stop-color="white"/>
<stop offset="0.14" stop-color="#18FFFF"/>
<stop offset="0.18" stop-color="#13CDCD"/>
<stop offset="0.24" stop-color="#0E9797"/>
<stop offset="0.3" stop-color="#096969"/>
<stop offset="0.36" stop-color="#064343"/>
<stop offset="0.42" stop-color="#032525"/>
<stop offset="0.47" stop-color="#011010"/>
<stop offset="0.53" stop-color="#000404"/>
<stop offset="0.58"/>
</radialGradient>
<radialGradient id="paint19_radial_95_6307" cx="0" cy="0" r="1" gradientUnits="userSpaceOnUse" gradientTransform="translate(39.7885 76.7106) scale(0.836979)">
<stop stop-color="white"/>
<stop offset="0.14" stop-color="#18FFFF"/>
<stop offset="0.18" stop-color="#13CDCD"/>
<stop offset="0.24" stop-color="#0E9797"/>
<stop offset="0.3" stop-color="#096969"/>
<stop offset="0.36" stop-color="#064343"/>
<stop offset="0.42" stop-color="#032525"/>
<stop offset="0.47" stop-color="#011010"/>
<stop offset="0.53" stop-color="#000404"/>
<stop offset="0.58"/>
</radialGradient>
<radialGradient id="paint20_radial_95_6307" cx="0" cy="0" r="1" gradientUnits="userSpaceOnUse" gradientTransform="translate(63.7683 35.3214) scale(0.836979 0.836995)">
<stop stop-color="white"/>
<stop offset="0.14" stop-color="#18FFFF"/>
<stop offset="0.18" stop-color="#13CDCD"/>
<stop offset="0.24" stop-color="#0E9797"/>
<stop offset="0.3" stop-color="#096969"/>
<stop offset="0.36" stop-color="#064343"/>
<stop offset="0.42" stop-color="#032525"/>
<stop offset="0.47" stop-color="#011010"/>
<stop offset="0.53" stop-color="#000404"/>
<stop offset="0.58"/>
</radialGradient>
</defs>
</svg>
