<svg width="98" height="98" viewBox="0 0 98 98" fill="none" xmlns="http://www.w3.org/2000/svg">
<g clip-path="url(#clip0_0_850)">
<path d="M94.6207 80.2585H3.37928C1.51288 80.2585 0 78.7456 0 76.8792V16.0516C0 14.1852 1.51288 12.6724 3.37928 12.6724H94.6207C96.4871 12.6724 98 14.1852 98 16.0516V76.8792C98 78.7456 96.4871 80.2585 94.6207 80.2585Z" fill="#464655"/>
<path d="M92.9308 17.7415H5.06885V65.0517H92.9308V17.7415Z" fill="#959CB3"/>
<path d="M0 70.1206V76.8792C0 78.7456 1.51288 80.2584 3.37928 80.2584H94.6207C96.4871 80.2584 98 78.7456 98 76.8792V70.1206H0Z" fill="#C7CFE2"/>
<path d="M62.5175 93.7758H35.4829L37.1726 80.2585H60.8278L62.5175 93.7758Z" fill="#AFB9D2"/>
<path d="M61.25 83.638L60.8276 80.2585H37.1724L36.75 83.638H61.25Z" fill="#959CB3"/>
<path d="M49.0002 77.7241C50.3999 77.7241 51.5346 76.5894 51.5346 75.1897C51.5346 73.79 50.3999 72.6553 49.0002 72.6553C47.6005 72.6553 46.4658 73.79 46.4658 75.1897C46.4658 76.5894 47.6005 77.7241 49.0002 77.7241Z" fill="#959CB3"/>
<path d="M62.5173 95.4657H35.4827C34.5496 95.4657 33.793 94.709 33.793 93.7759C33.793 92.8428 34.5496 92.0862 35.4827 92.0862H62.5171C63.4502 92.0862 64.2068 92.8428 64.2068 93.7759C64.2068 94.709 63.4504 95.4657 62.5173 95.4657Z" fill="#C7CFE2"/>
<path d="M81.1033 65.0517H16.8965V4.22416C16.8965 3.29105 17.6531 2.53442 18.5862 2.53442H79.4138C80.3469 2.53442 81.1035 3.29105 81.1035 4.22416V65.0517H81.1033Z" fill="#EFF2FA"/>
<path d="M74.3448 22.8104H23.6551C22.722 22.8104 21.9653 22.0537 21.9653 21.1206V9.29325C21.9653 8.36014 22.722 7.60352 23.6551 7.60352H74.3448C75.2779 7.60352 76.0345 8.36014 76.0345 9.29325V21.1208C76.0343 22.0539 75.2779 22.8104 74.3448 22.8104Z" fill="#F7ABAF"/>
<path d="M73.5002 32.9482H24.5002C23.1005 32.9482 21.9658 31.8134 21.9658 30.4138C21.9658 29.0141 23.1007 27.8794 24.5002 27.8794H73.5002C74.9 27.8794 76.0346 29.0142 76.0346 30.4138C76.0346 31.8134 74.9 32.9482 73.5002 32.9482Z" fill="#FF6464"/>
<path d="M74.3448 41.3966H52.3792C51.4461 41.3966 50.6895 40.6399 50.6895 39.7068C50.6895 38.7737 51.4461 38.0171 52.3792 38.0171H74.3448C75.2779 38.0171 76.0345 38.7737 76.0345 39.7068C76.0343 40.6399 75.2779 41.3966 74.3448 41.3966Z" fill="#AFB9D2"/>
<path d="M45.6207 41.3966H23.6551C22.722 41.3966 21.9653 40.6399 21.9653 39.7068C21.9653 38.7737 22.722 38.0171 23.6551 38.0171H45.6207C46.5538 38.0171 47.3104 38.7737 47.3104 39.7068C47.3102 40.6399 46.5538 41.3966 45.6207 41.3966Z" fill="#AFB9D2"/>
<path d="M74.3448 48.1551H52.3792C51.4461 48.1551 50.6895 47.3985 50.6895 46.4654C50.6895 45.5323 51.4461 44.7756 52.3792 44.7756H74.3448C75.2779 44.7756 76.0345 45.5323 76.0345 46.4654C76.0343 47.3987 75.2779 48.1551 74.3448 48.1551Z" fill="#C7CFE2"/>
<path d="M45.6207 48.1551H23.6551C22.722 48.1551 21.9653 47.3985 21.9653 46.4654C21.9653 45.5323 22.722 44.7756 23.6551 44.7756H45.6207C46.5538 44.7756 47.3104 45.5323 47.3104 46.4654C47.3102 47.3987 46.5538 48.1551 45.6207 48.1551Z" fill="#C7CFE2"/>
<path d="M74.3448 54.9139H52.3792C51.4461 54.9139 50.6895 54.1573 50.6895 53.2242C50.6895 52.2911 51.4461 51.5344 52.3792 51.5344H74.3448C75.2779 51.5344 76.0345 52.2911 76.0345 53.2242C76.0343 54.1573 75.2779 54.9139 74.3448 54.9139Z" fill="#C7CFE2"/>
<path d="M74.3448 61.6724H52.3792C51.4461 61.6724 50.6895 60.9158 50.6895 59.9827C50.6895 59.0496 51.4461 58.293 52.3792 58.293H74.3448C75.2779 58.293 76.0345 59.0496 76.0345 59.9827C76.0343 60.9158 75.2779 61.6724 74.3448 61.6724Z" fill="#C7CFE2"/>
<path d="M45.6207 54.9139H23.6551C22.722 54.9139 21.9653 54.1573 21.9653 53.2242C21.9653 52.2911 22.722 51.5344 23.6551 51.5344H45.6207C46.5538 51.5344 47.3104 52.2911 47.3104 53.2242C47.3102 54.1573 46.5538 54.9139 45.6207 54.9139Z" fill="#C7CFE2"/>
<path d="M47.3105 65.0518H21.9658V59.8804C21.9658 59.0039 22.6763 58.2932 23.553 58.2932H45.7235C46.6 58.2932 47.3107 59.0037 47.3107 59.8804V65.0518H47.3105Z" fill="#E4EAF6"/>
<path d="M84.4827 48.155H77.7241V90.3965H84.4827V48.155Z" fill="#FF6464"/>
<path d="M81.1034 48.155H77.7241V90.3965H81.1034V48.155Z" fill="#D2555A"/>
<path d="M77.7241 48.1552L80.6117 36.605C80.7397 36.0929 81.4673 36.0929 81.5953 36.605L84.4827 48.1552H77.7241Z" fill="#FFE6A1"/>
<path d="M80.6116 36.605L79.4136 41.3966H82.7929L81.5948 36.605C81.467 36.0929 80.7396 36.0929 80.6116 36.605Z" fill="#FF6464"/>
<path d="M82.7931 95.4655H79.4139C78.4808 95.4655 77.7241 94.7089 77.7241 93.7758V90.3965H84.4827V93.7758C84.4827 94.7089 83.7262 95.4655 82.7931 95.4655Z" fill="#FFE6A1"/>
<path d="M81.1034 93.7758V90.3965H77.7241V93.7758C77.7241 94.7089 78.4808 95.4655 79.4139 95.4655H82.7931C81.86 95.4655 81.1034 94.7089 81.1034 93.7758Z" fill="#FFDC9B"/>
</g>
<defs>
<clipPath id="clip0_0_850">
<rect width="98" height="98" fill="white"/>
</clipPath>
</defs>
</svg>
