<svg width="297" height="33" viewBox="0 0 297 33" fill="none" xmlns="http://www.w3.org/2000/svg">
<path d="M15.1403 8.99131C15.1403 8.99131 14.3985 9.69022 14.3858 11.7361V13.8752H11.6981V16.8996H14.3858V24.7147H17.4846V16.8996H20.1511L20.5242 13.8752H17.4846V11.7361C17.4931 11.4989 17.5991 10.4442 18.8454 10.4654H20.6598V7.61466H17.9425C17.9425 7.61466 16.2341 7.57231 15.1446 8.98707L15.1403 8.99131Z" fill="black"/>
<path d="M27.4254 26.1973C26.9803 26.3286 26.7344 26.8242 26.5224 27.2054C26.3317 27.5528 25.9629 27.9594 25.9629 28.3661C25.9629 28.4974 26.0985 28.6033 26.2257 28.5651C26.6199 28.455 26.9124 27.9933 27.1965 27.718C27.5102 27.413 27.9299 27.0403 27.9383 26.5828C27.9383 26.3244 27.6755 26.1211 27.4212 26.1931L27.4254 26.1973Z" fill="black"/>
<path d="M32.182 17.2979C34.1066 9.52941 26.0732 1.67197 18.7648 0.291092C14.746 -0.467119 10.5661 0.25297 7.14075 2.48525C4.19871 4.39984 1.18885 7.8012 0.815795 11.4016C0.807316 11.4821 0.832751 11.5457 0.866665 11.6007C-1.4522 17.5436 1.07439 25.0156 6.15724 28.7897C11.1977 32.5299 19.4854 33.8388 24.8481 29.9333C25.3017 29.6029 24.9244 28.9464 24.4072 29.1878C24.2122 29.2768 24.0172 29.3657 23.8264 29.4547C23.7289 29.2853 23.5254 29.1751 23.2711 29.298C19.7016 30.9881 14.7459 30.1324 11.2189 28.8786C10.8204 28.7388 10.5491 29.37 10.9306 29.5564C12.8086 30.467 14.8519 31.0008 16.9461 31.1109C17.8194 31.1575 18.6969 31.1236 19.5702 31.0346C18.2391 31.3693 16.8656 31.5218 15.3861 31.3905C12.3805 31.1194 9.72668 30.0011 7.24249 28.3407C4.33013 26.3964 2.34192 24.0286 1.40081 20.64C0.582637 17.7045 0.540244 14.6124 1.4432 11.7066C1.48136 11.677 1.51951 11.6431 1.5407 11.5965C1.69756 11.3 1.85017 11.0077 2.00278 10.7197C1.1083 13.0197 0.84547 15.5697 1.2482 18.001C2.00702 22.6138 4.60992 25.6594 8.43795 28.1628C8.89579 28.4635 9.35787 27.6926 8.87036 27.4342C5.47048 25.634 2.77433 21.538 2.20203 17.7935C1.57038 13.6593 3.07531 9.77932 5.53831 6.48809C5.75027 6.20853 5.30515 5.89931 5.06352 6.12381C4.66079 6.5008 4.28773 6.90744 3.94012 7.33526C4.50394 6.48809 5.13558 5.69176 5.89441 4.95049C5.7206 5.24276 6.00039 5.68329 6.34801 5.45879C7.24249 4.88695 8.10729 4.277 9.03569 3.75175C9.69701 3.379 10.4007 3.0825 11.079 2.73939C11.1892 2.77328 11.3164 2.78175 11.4648 2.74363C16.3908 1.49406 21.2956 2.03201 25.1321 5.62822C25.2805 5.768 25.4628 5.70447 25.556 5.57739C25.5221 5.7553 25.6196 5.96709 25.857 5.96709C26.2725 5.96709 26.2725 5.32748 25.857 5.32748C25.7383 5.32748 25.6578 5.37831 25.6069 5.45455C25.6154 5.38254 25.5942 5.3063 25.5306 5.23429C24.2503 3.88306 22.6352 2.75634 20.8589 1.96848C26.0478 3.86612 30.3633 8.50858 30.9865 13.8669C30.6007 12.1556 29.8843 10.4994 28.8372 9.00417C28.5701 8.62718 27.9809 8.95334 28.2055 9.36845C29.6003 11.9184 30.2573 14.7056 30.3506 17.5944C30.4481 20.6103 29.2738 23.1857 27.6672 25.6721C27.5018 25.9263 27.8834 26.2355 28.0911 26.0237C28.1886 26.0745 28.3073 26.0745 28.409 25.9813C30.7279 23.8211 32.4236 20.5849 32.1947 17.3445C32.1947 17.3275 32.1862 17.3106 32.182 17.2937V17.2979Z" fill="black"/>
<path d="M9.65481 28.544C9.55307 28.7812 9.68873 29.0184 9.92612 29.0989C10.0999 29.1582 10.2568 29.2175 10.4391 29.2429C10.7528 29.2811 10.8715 28.8532 10.6807 28.6626C10.5578 28.5356 10.3924 28.4466 10.2441 28.3492C10.0363 28.2094 9.74384 28.3322 9.65058 28.5483L9.65481 28.544Z" fill="black"/>
<path d="M288.482 9.81318C287.834 10.1944 287.117 10.4782 286.354 10.6265C285.739 9.97414 284.87 9.56751 283.908 9.56751C282.056 9.56751 280.555 11.067 280.555 12.918C280.555 13.1807 280.585 13.4348 280.64 13.6847C277.854 13.5449 275.383 12.2107 273.73 10.1859C273.441 10.6815 273.276 11.2534 273.276 11.8676C273.276 13.0282 273.865 14.0532 274.768 14.6547C274.217 14.6378 273.7 14.4853 273.251 14.2354C273.251 14.2523 273.251 14.265 273.251 14.2777C273.251 15.9001 274.408 17.2555 275.938 17.5605C275.659 17.6367 275.362 17.6791 275.057 17.6791C274.84 17.6791 274.633 17.6579 274.425 17.6156C274.853 18.9498 276.091 19.9156 277.558 19.9453C276.409 20.8432 274.963 21.3812 273.395 21.3812C273.123 21.3812 272.861 21.3643 272.594 21.3346C274.077 22.2877 275.837 22.8383 277.732 22.8383C283.9 22.8383 287.27 17.7342 287.27 13.3077C287.27 13.1637 287.27 13.0197 287.261 12.8757C287.918 12.4013 288.486 11.8125 288.932 11.1432C288.33 11.4101 287.685 11.588 287.007 11.6685C287.698 11.2534 288.228 10.5968 288.482 9.81742V9.81318Z" fill="black"/>
<path d="M291.954 26.1973C291.509 26.3286 291.263 26.8242 291.051 27.2054C290.86 27.5528 290.492 27.9594 290.492 28.3661C290.492 28.4974 290.627 28.6033 290.754 28.5651C291.149 28.455 291.441 27.9933 291.725 27.718C292.039 27.413 292.459 27.0403 292.467 26.5828C292.467 26.3244 292.204 26.1211 291.95 26.1931L291.954 26.1973Z" fill="black"/>
<path d="M296.711 17.2979C298.635 9.52941 290.602 1.67197 283.293 0.291092C279.275 -0.467119 275.095 0.25297 271.669 2.48525C268.727 4.39984 265.717 7.8012 265.344 11.4016C265.336 11.4821 265.361 11.5457 265.395 11.6007C263.076 17.5436 265.603 25.0156 270.686 28.7897C275.726 32.5299 284.014 33.8388 289.372 29.9333C289.826 29.6029 289.449 28.9464 288.932 29.1878C288.737 29.2768 288.542 29.3657 288.351 29.4547C288.253 29.2853 288.05 29.1751 287.8 29.298C284.23 30.9881 279.275 30.1324 275.747 28.8786C275.349 28.7388 275.078 29.37 275.459 29.5564C277.337 30.467 279.381 31.0008 281.475 31.1109C282.348 31.1575 283.225 31.1236 284.099 31.0346C282.768 31.3693 281.394 31.5218 279.915 31.3905C276.909 31.1194 274.255 30.0011 271.771 28.3407C268.859 26.3964 266.87 24.0286 265.929 20.64C265.111 17.7045 265.069 14.6124 265.972 11.7066C266.01 11.677 266.048 11.6431 266.069 11.5965C266.226 11.3 266.379 11.0077 266.531 10.7197C265.637 13.0197 265.374 15.5697 265.777 18.001C266.536 22.6138 269.138 25.6594 272.967 28.1628C273.424 28.4635 273.886 27.6926 273.399 27.4342C269.999 25.634 267.303 21.538 266.731 17.7935C266.099 13.6593 267.604 9.77932 270.067 6.48809C270.279 6.20853 269.834 5.89931 269.592 6.12381C269.189 6.5008 268.816 6.90744 268.469 7.33526C269.033 6.48809 269.664 5.69176 270.423 4.95049C270.249 5.24276 270.529 5.68329 270.877 5.45879C271.771 4.88695 272.636 4.277 273.564 3.75175C274.226 3.379 274.929 3.0825 275.608 2.73939C275.718 2.77328 275.845 2.78175 275.993 2.74363C280.919 1.49406 285.824 2.03201 289.661 5.62822C289.809 5.768 289.991 5.70447 290.085 5.57739C290.051 5.7553 290.148 5.96709 290.386 5.96709C290.801 5.96709 290.801 5.32748 290.386 5.32748C290.267 5.32748 290.186 5.37831 290.135 5.45455C290.144 5.38254 290.123 5.3063 290.059 5.23429C288.779 3.88306 287.164 2.75634 285.388 1.96848C290.576 3.86612 294.892 8.50858 295.515 13.8669C295.129 12.1556 294.413 10.4994 293.366 9.00417C293.099 8.62718 292.509 8.95334 292.734 9.36845C294.129 11.9184 294.786 14.7056 294.879 17.5944C294.977 20.6103 293.802 23.1857 292.196 25.6721C292.03 25.9263 292.412 26.2355 292.62 26.0237C292.717 26.0745 292.836 26.0745 292.938 25.9813C295.256 23.8211 296.952 20.5849 296.723 17.3445C296.723 17.3275 296.715 17.3106 296.711 17.2937V17.2979Z" fill="black"/>
<path d="M274.183 28.544C274.082 28.7812 274.217 29.0184 274.455 29.0989C274.628 29.1582 274.785 29.2175 274.968 29.2429C275.281 29.2811 275.4 28.8532 275.209 28.6626C275.086 28.5356 274.921 28.4466 274.773 28.3492C274.565 28.2094 274.272 28.3322 274.179 28.5483L274.183 28.544Z" fill="black"/>
<path d="M218.077 7.61477H211.51C208.598 7.61477 206.241 9.97412 206.241 12.8799V19.4412C206.241 22.3512 208.602 24.7063 211.51 24.7063H218.077C220.989 24.7063 223.346 22.3469 223.346 19.4412V12.8799C223.346 9.96989 220.985 7.61477 218.077 7.61477ZM221.706 18.81C221.706 21.1609 219.798 23.067 217.445 23.067H212.138C209.785 23.067 207.877 21.1609 207.877 18.81V13.5068C207.877 11.1559 209.785 9.2498 212.138 9.2498H217.445C219.798 9.2498 221.706 11.1559 221.706 13.5068V18.81Z" fill="black"/>
<path d="M215.025 11.6895C212.536 11.6895 210.519 13.7058 210.519 16.1922C210.519 18.6786 212.536 20.6949 215.025 20.6949C217.513 20.6949 219.531 18.6786 219.531 16.1922C219.531 13.7058 217.513 11.6895 215.025 11.6895ZM215.025 18.8989C213.528 18.8989 212.312 17.6874 212.312 16.1922C212.312 14.6969 213.524 13.4813 215.025 13.4813C216.526 13.4813 217.734 14.6927 217.734 16.1922C217.734 17.6917 216.521 18.8989 215.025 18.8989Z" fill="black"/>
<path d="M219.217 10.474C218.586 10.474 218.073 10.9865 218.073 11.6177C218.073 12.2488 218.586 12.7613 219.217 12.7613C219.849 12.7613 220.362 12.2488 220.362 11.6177C220.362 10.9865 219.849 10.474 219.217 10.474Z" fill="black"/>
<path d="M225.826 26.1973C225.381 26.3286 225.135 26.8242 224.923 27.2054C224.733 27.5528 224.364 27.9594 224.364 28.3661C224.364 28.4974 224.499 28.6033 224.627 28.5651C225.021 28.455 225.313 27.9933 225.597 27.718C225.911 27.413 226.331 27.0403 226.339 26.5828C226.339 26.3244 226.076 26.1211 225.822 26.1931L225.826 26.1973Z" fill="black"/>
<path d="M230.579 17.2979C232.503 9.52941 224.47 1.67197 217.161 0.291092C213.143 -0.467119 208.963 0.25297 205.537 2.48525C202.595 4.39984 199.585 7.8012 199.212 11.4016C199.204 11.4821 199.229 11.5457 199.263 11.6007C196.944 17.5436 199.471 25.0156 204.554 28.7897C209.594 32.5299 217.882 33.8388 223.24 29.9333C223.694 29.6029 223.317 28.9464 222.8 29.1878C222.605 29.2768 222.41 29.3657 222.219 29.4547C222.121 29.2853 221.918 29.1751 221.663 29.298C218.094 30.9881 213.138 30.1324 209.611 28.8786C209.213 28.7388 208.941 29.37 209.323 29.5564C211.201 30.467 213.244 31.0008 215.338 31.1109C216.212 31.1575 217.089 31.1236 217.963 31.0346C216.631 31.3693 215.258 31.5218 213.778 31.3905C210.773 31.1194 208.119 30.0011 205.635 28.3407C202.722 26.3964 200.734 24.0286 199.793 20.64C198.975 17.7045 198.933 14.6124 199.836 11.7066C199.874 11.677 199.912 11.6431 199.933 11.5965C200.09 11.3 200.243 11.0077 200.395 10.7197C199.501 13.0197 199.238 15.5697 199.641 18.001C200.399 22.6138 203.002 25.6594 206.83 28.1628C207.288 28.4635 207.75 27.6926 207.263 27.4342C203.863 25.634 201.167 21.538 200.594 17.7935C199.963 13.6593 201.468 9.77932 203.931 6.48809C204.143 6.20853 203.697 5.89931 203.456 6.12381C203.053 6.5008 202.68 6.90744 202.332 7.33526C202.896 6.48809 203.528 5.69176 204.287 4.95049C204.113 5.24276 204.393 5.68329 204.74 5.45879C205.635 4.88695 206.5 4.277 207.428 3.75175C208.089 3.379 208.793 3.0825 209.471 2.73939C209.582 2.77328 209.709 2.78175 209.857 2.74363C214.783 1.49406 219.688 2.03201 223.524 5.62822C223.673 5.768 223.855 5.70447 223.948 5.57739C223.914 5.7553 224.012 5.96709 224.249 5.96709C224.665 5.96709 224.665 5.32748 224.249 5.32748C224.131 5.32748 224.05 5.37831 223.999 5.45455C224.008 5.38254 223.991 5.3063 223.923 5.23429C222.643 3.88306 221.028 2.75634 219.251 1.96848C224.44 3.86612 228.756 8.50858 229.379 13.8669C228.993 12.1556 228.277 10.4994 227.23 9.00417C226.962 8.62718 226.373 8.95334 226.598 9.36845C227.993 11.9184 228.65 14.7056 228.743 17.5944C228.84 20.6103 227.666 23.1857 226.059 25.6721C225.894 25.9263 226.276 26.2355 226.483 26.0237C226.581 26.0745 226.7 26.0745 226.801 25.9813C229.12 23.8211 230.816 20.5849 230.587 17.3445C230.587 17.3275 230.579 17.3106 230.574 17.2937L230.579 17.2979Z" fill="black"/>
<path d="M208.055 28.544C207.953 28.7812 208.089 29.0184 208.326 29.0989C208.5 29.1582 208.657 29.2175 208.839 29.2429C209.153 29.2811 209.272 28.8532 209.081 28.6626C208.958 28.5356 208.793 28.4466 208.644 28.3492C208.437 28.2094 208.144 28.3322 208.051 28.5483L208.055 28.544Z" fill="black"/>
<path d="M141.72 23.2196H144.976V12.7486H141.72V23.2196ZM143.348 7.5428C142.305 7.5428 141.461 8.38996 141.461 9.43197C141.461 10.6349 142.585 11.5711 143.844 11.2534C144.48 11.0924 145.001 10.5756 145.171 9.94027C145.501 8.67799 144.556 7.53856 143.352 7.53856L143.348 7.5428ZM153.268 12.4902C151.682 12.4902 150.622 13.3586 150.186 14.1803H150.139V12.7486H147.015V23.2196H150.271V18.0391C150.271 16.6752 150.529 15.3494 152.225 15.3494C153.921 15.3494 153.916 16.9124 153.916 18.1281V23.2196H157.172V17.4758C157.172 14.659 156.562 12.4902 153.263 12.4902H153.268Z" fill="black"/>
<path d="M159.695 26.1973C159.249 26.3286 159.004 26.8242 158.792 27.2054C158.601 27.5528 158.232 27.9594 158.232 28.3661C158.232 28.4974 158.368 28.6033 158.495 28.5651C158.889 28.455 159.182 27.9933 159.466 27.718C159.779 27.413 160.199 27.0403 160.208 26.5828C160.208 26.3244 159.945 26.1211 159.69 26.1931L159.695 26.1973Z" fill="black"/>
<path d="M164.447 17.2979C166.371 9.52941 158.338 1.67197 151.029 0.291092C147.011 -0.467119 142.831 0.25297 139.405 2.48525C136.463 4.39984 133.453 7.8012 133.08 11.4016C133.072 11.4821 133.097 11.5457 133.131 11.6007C130.812 17.5436 133.339 25.0156 138.422 28.7897C143.462 32.5299 151.75 33.8388 157.108 29.9333C157.562 29.6029 157.185 28.9464 156.668 29.1878C156.473 29.2768 156.278 29.3657 156.087 29.4547C155.989 29.2853 155.786 29.1751 155.531 29.298C151.962 30.9881 147.006 30.1324 143.479 28.8786C143.081 28.7388 142.809 29.37 143.191 29.5564C145.069 30.467 147.112 31.0008 149.206 31.1109C150.08 31.1575 150.957 31.1236 151.831 31.0346C150.499 31.3693 149.126 31.5218 147.646 31.3905C144.641 31.1194 141.987 30.0011 139.503 28.3407C136.59 26.3964 134.602 24.0286 133.661 20.64C132.843 17.7045 132.801 14.6124 133.704 11.7066C133.742 11.677 133.78 11.6431 133.801 11.5965C133.958 11.3 134.111 11.0077 134.263 10.7197C133.369 13.0197 133.106 15.5697 133.509 18.001C134.267 22.6138 136.87 25.6594 140.698 28.1628C141.156 28.4635 141.618 27.6926 141.131 27.4342C137.731 25.634 135.035 21.538 134.462 17.7935C133.831 13.6593 135.336 9.77932 137.799 6.48809C138.011 6.20853 137.566 5.89931 137.324 6.12381C136.921 6.5008 136.548 6.90744 136.2 7.33526C136.764 6.48809 137.396 5.69176 138.155 4.95049C137.981 5.24276 138.261 5.68329 138.608 5.45879C139.503 4.88695 140.368 4.277 141.296 3.75175C141.957 3.379 142.661 3.0825 143.339 2.73939C143.45 2.77328 143.577 2.78175 143.725 2.74363C148.651 1.49406 153.556 2.03201 157.392 5.62822C157.541 5.768 157.723 5.70447 157.816 5.57739C157.782 5.7553 157.88 5.96709 158.117 5.96709C158.533 5.96709 158.533 5.32748 158.117 5.32748C157.999 5.32748 157.918 5.37831 157.867 5.45455C157.876 5.38254 157.855 5.3063 157.791 5.23429C156.511 3.88306 154.896 2.75634 153.119 1.96848C158.308 3.86612 162.624 8.50858 163.247 13.8669C162.861 12.1556 162.145 10.4994 161.098 9.00417C160.83 8.62718 160.241 8.95334 160.466 9.36845C161.861 11.9184 162.518 14.7056 162.611 17.5944C162.708 20.6103 161.534 23.1857 159.928 25.6721C159.762 25.9263 160.144 26.2355 160.351 26.0237C160.449 26.0745 160.568 26.0745 160.669 25.9813C162.988 23.8211 164.684 20.5849 164.455 17.3445C164.455 17.3275 164.447 17.3106 164.442 17.2937L164.447 17.2979Z" fill="black"/>
<path d="M141.924 28.544C141.822 28.7812 141.957 29.0184 142.195 29.0989C142.369 29.1582 142.526 29.2175 142.708 29.2429C143.022 29.2811 143.14 28.8532 142.949 28.6626C142.827 28.5356 142.661 28.4466 142.513 28.3492C142.305 28.2094 142.013 28.3322 141.919 28.5483L141.924 28.544Z" fill="black"/>
<path d="M89.7973 9.39803C89.6743 9.39803 89.5429 9.42767 89.4115 9.48697L75.0659 15.0147C74.0866 15.4129 74.0993 15.9551 74.8921 16.1923L78.576 17.3444H78.5972L79.8562 21.4998C80.03 21.9572 79.941 22.1436 80.4285 22.1436C80.8016 22.1436 80.9627 21.9699 81.1746 21.7708C81.3061 21.6438 82.0691 20.9025 82.9297 20.068L82.9509 20.0469L86.6517 22.7747C86.9103 22.9145 87.1393 22.9738 87.3385 22.9526C87.6777 22.9272 87.9235 22.6646 88.038 22.1436L90.484 10.6391C90.6875 9.8216 90.3017 9.37261 89.7973 9.39803Z" fill="black"/>
<path d="M93.5619 26.1929C93.1168 26.3242 92.8709 26.8198 92.6589 27.2011C92.4682 27.5484 92.0994 27.955 92.0994 28.3617C92.0994 28.493 92.235 28.5989 92.3622 28.5608C92.7564 28.4506 93.049 27.9889 93.333 27.7136C93.6467 27.4086 94.0664 27.0359 94.0749 26.5784C94.0749 26.32 93.812 26.1167 93.5577 26.1887L93.5619 26.1929Z" fill="black"/>
<path d="M98.3141 17.2979C100.239 9.52941 92.2053 1.67197 84.8969 0.291093C80.8781 -0.467118 76.6982 0.252968 73.2729 2.48524C70.3308 4.39983 67.321 7.8012 66.9479 11.4016C66.9394 11.4821 66.9649 11.5457 66.9988 11.6007C64.6799 17.5436 67.2065 25.0156 72.2894 28.7897C77.3298 32.5299 85.6175 33.8388 90.9759 29.9333C91.4295 29.6029 91.0522 28.9464 90.5351 29.1878C90.34 29.2768 90.145 29.3657 89.9543 29.4547C89.8568 29.2853 89.6533 29.1751 89.3989 29.298C85.8295 30.9881 80.8738 30.1324 77.3468 28.8786C76.9483 28.7388 76.677 29.37 77.0585 29.5564C78.9365 30.467 80.9798 31.0008 83.074 31.1109C83.9473 31.1575 84.8248 31.1236 85.6981 31.0346C84.3669 31.3693 82.9934 31.5218 81.5139 31.3905C78.5083 31.1194 75.8546 30.0011 73.3704 28.3407C70.458 26.3964 68.4698 24.0286 67.5287 20.64C66.7105 17.7045 66.6681 14.6124 67.5711 11.7066C67.6092 11.677 67.6474 11.6431 67.6686 11.5965C67.8254 11.3 67.978 11.0077 68.1307 10.7197C67.2362 13.0197 66.9733 15.5697 67.3761 18.001C68.1349 22.6138 70.7378 25.6594 74.5658 28.1628C75.0237 28.4635 75.4857 27.6926 74.9982 27.4342C71.5984 25.634 68.9022 21.538 68.3299 17.7935C67.6982 13.6593 69.2032 9.77932 71.6662 6.48809C71.8781 6.20853 71.433 5.89931 71.1914 6.12381C70.7887 6.5008 70.4156 6.90744 70.068 7.33526C70.6318 6.48809 71.2635 5.69176 72.0223 4.95049C71.8485 5.24276 72.1283 5.68329 72.4759 5.45879C73.3704 4.88696 74.2352 4.277 75.1636 3.75176C75.8249 3.37901 76.5286 3.0825 77.2069 2.73939C77.3171 2.77328 77.4443 2.78176 77.5926 2.74363C82.5186 1.49407 87.4235 2.03202 91.26 5.62822C91.4083 5.76801 91.5906 5.70447 91.6839 5.5774C91.65 5.7553 91.7475 5.96708 91.9849 5.96708C92.4003 5.96708 92.4003 5.32747 91.9849 5.32747C91.8662 5.32747 91.7856 5.37831 91.7348 5.45455C91.7432 5.38255 91.7263 5.30631 91.6585 5.2343C90.3782 3.88307 88.7631 2.75633 86.9868 1.96847C92.1756 3.86612 96.4912 8.50857 97.1144 13.8669C96.7286 12.1556 96.0122 10.4994 94.9651 9.00417C94.698 8.62718 94.1087 8.95334 94.3334 9.36845C95.7281 11.9184 96.3852 14.7056 96.4785 17.5944C96.576 20.6103 95.4017 23.1857 93.795 25.6721C93.6297 25.9263 94.0112 26.2355 94.219 26.0237C94.3165 26.0745 94.4352 26.0745 94.5369 25.9813C96.8558 23.8211 98.5515 20.5849 98.3225 17.3445C98.3225 17.3276 98.3141 17.3106 98.3098 17.2937L98.3141 17.2979Z" fill="black"/>
<path d="M75.7911 28.5396C75.6893 28.7768 75.825 29.014 76.0624 29.0945C76.2362 29.1538 76.3931 29.2131 76.5753 29.2385C76.889 29.2767 77.0077 28.8488 76.817 28.6582C76.694 28.5312 76.5287 28.4422 76.3803 28.3448C76.1726 28.205 75.8801 28.3278 75.7868 28.5439L75.7911 28.5396Z" fill="black"/>
</svg>
