<svg width="100" height="100" viewBox="0 0 100 100" fill="none" xmlns="http://www.w3.org/2000/svg">
<path d="M27.083 62.5H72.9163V87.5H27.083V62.5Z" fill="#BF360C"/>
<path d="M20.8333 62.4999C25.4357 62.4999 29.1667 58.769 29.1667 54.1666C29.1667 49.5642 25.4357 45.8333 20.8333 45.8333C16.231 45.8333 12.5 49.5642 12.5 54.1666C12.5 58.769 16.231 62.4999 20.8333 62.4999Z" fill="#FFA726"/>
<path d="M79.1663 62.4999C83.7687 62.4999 87.4997 58.769 87.4997 54.1666C87.4997 49.5642 83.7687 45.8333 79.1663 45.8333C74.564 45.8333 70.833 49.5642 70.833 54.1666C70.833 58.769 74.564 62.4999 79.1663 62.4999Z" fill="#FFA726"/>
<path d="M81.25 39.5833C81.25 13.1249 18.75 22.2916 18.75 39.5833V60.4166C18.75 77.7083 32.7083 91.6666 50 91.6666C67.2917 91.6666 81.25 77.7083 81.25 60.4166V39.5833Z" fill="#FFB74D"/>
<path d="M62.4997 58.3333C64.8009 58.3333 66.6663 56.4679 66.6663 54.1667C66.6663 51.8655 64.8009 50 62.4997 50C60.1985 50 58.333 51.8655 58.333 54.1667C58.333 56.4679 60.1985 58.3333 62.4997 58.3333Z" fill="#784719"/>
<path d="M37.4997 58.3333C39.8009 58.3333 41.6663 56.4679 41.6663 54.1667C41.6663 51.8655 39.8009 50 37.4997 50C35.1985 50 33.333 51.8655 33.333 54.1667C33.333 56.4679 35.1985 58.3333 37.4997 58.3333Z" fill="#784719"/>
<path d="M50 4.16675C32.2917 4.16675 6.25 16.2501 6.25 74.1667L27.0833 87.5001V50.0001L62.0833 29.5834L72.9167 43.7501V87.5001L93.75 70.4167C93.75 58.7501 91.875 10.0001 61.6667 10.0001L58.75 4.16675H50Z" fill="#FF5722"/>
<path d="M93.75 50.0001C92.5 50.0001 91.6667 50.8334 91.6667 52.0834V37.5001C91.6667 19.1667 76.6667 4.16675 58.3333 4.16675H39.5833C38.3333 4.16675 37.5 5.00008 37.5 6.25008C37.5 7.50008 38.3333 8.33342 39.5833 8.33342H58.3333C74.375 8.33342 87.5 21.4584 87.5 37.5001V58.3334C87.5 59.5834 88.3333 60.4168 89.5833 60.4168C90.8333 60.4168 91.6667 59.5834 91.6667 58.3334V62.5001C91.6667 70.6251 85.2083 77.0834 77.0833 77.0834H50C48.75 77.0834 47.9167 77.9168 47.9167 79.1668C47.9167 80.4168 48.75 81.2501 50 81.2501H77.0833C87.5 81.2501 95.8333 72.9168 95.8333 62.5001V52.0834C95.8333 50.8334 95 50.0001 93.75 50.0001Z" fill="#757575"/>
<path d="M93.75 45.8333H91.6667C89.375 45.8333 87.5 47.7083 87.5 49.9999V58.3333C87.5 60.6249 89.375 62.4999 91.6667 62.4999H93.75C96.0417 62.4999 97.9167 60.6249 97.9167 58.3333V49.9999C97.9167 47.7083 96.0417 45.8333 93.75 45.8333Z" fill="#37474F"/>
<path d="M49.9997 83.3333C52.3009 83.3333 54.1663 81.4679 54.1663 79.1667C54.1663 76.8655 52.3009 75 49.9997 75C47.6985 75 45.833 76.8655 45.833 79.1667C45.833 81.4679 47.6985 83.3333 49.9997 83.3333Z" fill="#37474F"/>
</svg>
