<svg width="12" height="75" viewBox="0 0 12 75" fill="none" xmlns="http://www.w3.org/2000/svg">
<path style="mix-blend-mode:screen" d="M4.68396 57.7991C4.68396 58.4502 4.1589 58.9753 3.50782 58.9753C2.85674 58.9753 2.33162 58.4502 2.33162 57.7991C2.33162 57.1481 2.85674 56.623 3.50782 56.623C4.1589 56.623 4.68396 57.1481 4.68396 57.7991Z" fill="url(#paint0_radial_95_6581)"/>
<path style="mix-blend-mode:screen" d="M1.74111 75C2.39067 75 2.91724 74.4734 2.91724 73.8239C2.91724 73.1743 2.39067 72.6477 1.74111 72.6477C1.09154 72.6477 0.564974 73.1743 0.564974 73.8239C0.564974 74.4734 1.09154 75 1.74111 75Z" fill="url(#paint1_radial_95_6581)"/>
<path style="mix-blend-mode:screen" d="M9.17714 71.2825C9.82671 71.2825 10.3533 70.7559 10.3533 70.1064C10.3533 69.4568 9.82671 68.9302 9.17714 68.9302C8.52758 68.9302 8.00101 69.4568 8.00101 70.1064C8.00101 70.7559 8.52758 71.2825 9.17714 71.2825Z" fill="url(#paint2_radial_95_6581)"/>
<path style="mix-blend-mode:screen" d="M11.5294 52.4013C11.5294 52.7373 11.2564 52.9894 10.9413 52.9894C10.6263 52.9894 10.3533 52.7163 10.3533 52.4013C10.3533 52.0863 10.6263 51.8132 10.9413 51.8132C11.2564 51.8132 11.5294 52.0863 11.5294 52.4013Z" fill="url(#paint3_radial_95_6581)"/>
<path style="mix-blend-mode:screen" d="M9.17714 44.2523C9.17714 44.5883 8.90411 44.8404 8.58908 44.8404C8.27404 44.8404 8.00101 44.5673 8.00101 44.2523C8.00101 43.9373 8.27404 43.6642 8.58908 43.6642C8.90411 43.6642 9.17714 43.9373 9.17714 44.2523Z" fill="url(#paint4_radial_95_6581)"/>
<path style="mix-blend-mode:screen" d="M4.09539 29.6974C4.09539 30.0335 3.82236 30.2855 3.50733 30.2855C3.19229 30.2855 2.91919 30.0125 2.91919 29.6974C2.91919 29.3824 3.19229 29.1093 3.50733 29.1093C3.82236 29.1093 4.09539 29.3824 4.09539 29.6974Z" fill="url(#paint5_radial_95_6581)"/>
<path style="mix-blend-mode:screen" d="M9.7657 11.8035C9.7657 12.1396 9.49267 12.3916 9.17763 12.3916C8.86259 12.3916 8.58956 12.1186 8.58956 11.8035C8.58956 11.4885 8.86259 11.2155 9.17763 11.2155C9.49267 11.2155 9.7657 11.4885 9.7657 11.8035Z" fill="url(#paint6_radial_95_6581)"/>
<path style="mix-blend-mode:screen" d="M4.09539 47.2557C4.09539 47.5918 3.82236 47.8438 3.50733 47.8438C3.19229 47.8438 2.91919 47.5708 2.91919 47.2557C2.91919 46.9407 3.19229 46.6677 3.50733 46.6677C3.82236 46.6677 4.09539 46.9407 4.09539 47.2557Z" fill="url(#paint7_radial_95_6581)"/>
<path style="mix-blend-mode:screen" d="M8.59154 35.9354C8.59154 36.2714 8.31851 36.5235 8.00347 36.5235C7.68843 36.5235 7.4154 36.2504 7.4154 35.9354C7.4154 35.6204 7.68843 35.3473 8.00347 35.3473C8.31851 35.3473 8.59154 35.6204 8.59154 35.9354Z" fill="url(#paint8_radial_95_6581)"/>
<path style="mix-blend-mode:screen" d="M8.59154 64.4355C8.59154 64.7715 8.31851 65.0236 8.00347 65.0236C7.68843 65.0236 7.4154 64.7505 7.4154 64.4355C7.4154 64.1205 7.68843 63.8474 8.00347 63.8474C8.31851 63.8474 8.59154 64.1205 8.59154 64.4355Z" fill="url(#paint9_radial_95_6581)"/>
<path style="mix-blend-mode:screen" d="M2.47778 63.4905C2.47778 63.7006 2.30979 63.8475 2.12077 63.8475C1.93175 63.8475 1.7637 63.6796 1.7637 63.4905C1.7637 63.3015 1.93175 63.1335 2.12077 63.1335C2.30979 63.1335 2.47778 63.3015 2.47778 63.4905Z" fill="url(#paint10_radial_95_6581)"/>
<path style="mix-blend-mode:screen" d="M9.32329 58.009C9.32329 58.219 9.15524 58.3661 8.96622 58.3661C8.7772 58.3661 8.60922 58.198 8.60922 58.009C8.60922 57.82 8.7772 57.652 8.96622 57.652C9.15524 57.652 9.32329 57.82 9.32329 58.009Z" fill="url(#paint11_radial_95_6581)"/>
<path style="mix-blend-mode:screen" d="M3.27562 19.7845C3.27562 19.9946 3.10757 20.1416 2.91855 20.1416C2.72953 20.1416 2.56154 19.9736 2.56154 19.7845C2.56154 19.5955 2.72953 19.4275 2.91855 19.4275C3.10757 19.4275 3.27562 19.5955 3.27562 19.7845Z" fill="url(#paint12_radial_95_6581)"/>
<path style="mix-blend-mode:screen" d="M3.27562 11.2153C3.27562 11.4253 3.10757 11.5724 2.91855 11.5724C2.72953 11.5724 2.56154 11.4043 2.56154 11.2153C2.56154 11.0263 2.72953 10.8583 2.91855 10.8583C3.10757 10.8583 3.27562 11.0263 3.27562 11.2153Z" fill="url(#paint13_radial_95_6581)"/>
<path style="mix-blend-mode:screen" d="M5.48205 68.9093C5.67924 68.9093 5.83912 68.7495 5.83912 68.5523C5.83912 68.3551 5.67924 68.1953 5.48205 68.1953C5.28486 68.1953 5.12505 68.3551 5.12505 68.5523C5.12505 68.7495 5.28486 68.9093 5.48205 68.9093Z" fill="url(#paint14_radial_95_6581)"/>
<path style="mix-blend-mode:screen" d="M0.714077 52.1913C0.714077 52.4013 0.546093 52.5483 0.357071 52.5483C0.168048 52.5483 0 52.3803 0 52.1913C0 52.0023 0.168048 51.8342 0.357071 51.8342C0.546093 51.8342 0.714077 52.0023 0.714077 52.1913Z" fill="url(#paint15_radial_95_6581)"/>
<path style="mix-blend-mode:screen" d="M2.10047 40.9339C2.10047 41.1439 1.93243 41.291 1.7434 41.291C1.55438 41.291 1.3864 41.1229 1.3864 40.9339C1.3864 40.7449 1.55438 40.5769 1.7434 40.5769C1.93243 40.5769 2.10047 40.7449 2.10047 40.9339Z" fill="url(#paint16_radial_95_6581)"/>
<path style="mix-blend-mode:screen" d="M6.57375 0.714077C6.77093 0.714077 6.93075 0.554228 6.93075 0.357039C6.93075 0.159849 6.77093 0 6.57375 0C6.37656 0 6.21667 0.159849 6.21667 0.357039C6.21667 0.554228 6.37656 0.714077 6.57375 0.714077Z" fill="url(#paint17_radial_95_6581)"/>
<path style="mix-blend-mode:screen" d="M6.57408 53.5145C6.57408 53.7245 6.40603 53.8715 6.21701 53.8715C6.02799 53.8715 5.86 53.7035 5.86 53.5145C5.86 53.3254 6.02799 53.1574 6.21701 53.1574C6.40603 53.1574 6.57408 53.3254 6.57408 53.5145Z" fill="url(#paint18_radial_95_6581)"/>
<path style="mix-blend-mode:screen" d="M3.27562 36.5234C3.27562 36.7334 3.10757 36.8804 2.91855 36.8804C2.72953 36.8804 2.56154 36.7124 2.56154 36.5234C2.56154 36.3343 2.72953 36.1663 2.91855 36.1663C3.10757 36.1663 3.27562 36.3343 3.27562 36.5234Z" fill="url(#paint19_radial_95_6581)"/>
<path style="mix-blend-mode:screen" d="M8.94697 23.8588C8.94697 24.0688 8.77892 24.2159 8.5899 24.2159C8.40088 24.2159 8.23289 24.0478 8.23289 23.8588C8.23289 23.6698 8.40088 23.5018 8.5899 23.5018C8.77892 23.5018 8.94697 23.6698 8.94697 23.8588Z" fill="url(#paint20_radial_95_6581)"/>
<defs>
<radialGradient id="paint0_radial_95_6581" cx="0" cy="0" r="1" gradientUnits="userSpaceOnUse" gradientTransform="translate(3.50779 57.7991) scale(1.17617 1.17613)">
<stop stop-color="white"/>
<stop offset="0.14" stop-color="#18FFFF"/>
<stop offset="0.18" stop-color="#16F3F3"/>
<stop offset="0.24" stop-color="#14D6D6"/>
<stop offset="0.33" stop-color="#0FA6A6"/>
<stop offset="0.44" stop-color="#096363"/>
<stop offset="0.56" stop-color="#010F0F"/>
<stop offset="0.58"/>
</radialGradient>
<radialGradient id="paint1_radial_95_6581" cx="0" cy="0" r="1" gradientUnits="userSpaceOnUse" gradientTransform="translate(1.74111 73.8239) scale(1.05012)">
<stop stop-color="white"/>
<stop offset="0.14" stop-color="#18FFFF"/>
<stop offset="0.18" stop-color="#16F3F3"/>
<stop offset="0.24" stop-color="#14D6D6"/>
<stop offset="0.33" stop-color="#0FA6A6"/>
<stop offset="0.44" stop-color="#096363"/>
<stop offset="0.56" stop-color="#010F0F"/>
<stop offset="0.58"/>
</radialGradient>
<radialGradient id="paint2_radial_95_6581" cx="0" cy="0" r="1" gradientUnits="userSpaceOnUse" gradientTransform="translate(9.17714 70.1064) scale(1.05012)">
<stop stop-color="white"/>
<stop offset="0.14" stop-color="#18FFFF"/>
<stop offset="0.18" stop-color="#16F3F3"/>
<stop offset="0.24" stop-color="#14D6D6"/>
<stop offset="0.33" stop-color="#0FA6A6"/>
<stop offset="0.44" stop-color="#096363"/>
<stop offset="0.56" stop-color="#010F0F"/>
<stop offset="0.58"/>
</radialGradient>
<radialGradient id="paint3_radial_95_6581" cx="0" cy="0" r="1" gradientUnits="userSpaceOnUse" gradientTransform="translate(10.9413 52.4013) scale(0.588067)">
<stop stop-color="white"/>
<stop offset="0.14" stop-color="#18FFFF"/>
<stop offset="0.18" stop-color="#16F3F3"/>
<stop offset="0.24" stop-color="#14D6D6"/>
<stop offset="0.33" stop-color="#0FA6A6"/>
<stop offset="0.44" stop-color="#096363"/>
<stop offset="0.56" stop-color="#010F0F"/>
<stop offset="0.58"/>
</radialGradient>
<radialGradient id="paint4_radial_95_6581" cx="0" cy="0" r="1" gradientUnits="userSpaceOnUse" gradientTransform="translate(8.58908 44.2523) scale(0.588067)">
<stop stop-color="white"/>
<stop offset="0.14" stop-color="#18FFFF"/>
<stop offset="0.18" stop-color="#16F3F3"/>
<stop offset="0.24" stop-color="#14D6D6"/>
<stop offset="0.33" stop-color="#0FA6A6"/>
<stop offset="0.44" stop-color="#096363"/>
<stop offset="0.56" stop-color="#010F0F"/>
<stop offset="0.58"/>
</radialGradient>
<radialGradient id="paint5_radial_95_6581" cx="0" cy="0" r="1" gradientUnits="userSpaceOnUse" gradientTransform="translate(3.50729 29.6974) scale(0.588099)">
<stop stop-color="white"/>
<stop offset="0.14" stop-color="#18FFFF"/>
<stop offset="0.18" stop-color="#16F3F3"/>
<stop offset="0.24" stop-color="#14D6D6"/>
<stop offset="0.33" stop-color="#0FA6A6"/>
<stop offset="0.44" stop-color="#096363"/>
<stop offset="0.56" stop-color="#010F0F"/>
<stop offset="0.58"/>
</radialGradient>
<radialGradient id="paint6_radial_95_6581" cx="0" cy="0" r="1" gradientUnits="userSpaceOnUse" gradientTransform="translate(9.17763 11.8035) scale(0.588067)">
<stop stop-color="white"/>
<stop offset="0.14" stop-color="#18FFFF"/>
<stop offset="0.18" stop-color="#16F3F3"/>
<stop offset="0.24" stop-color="#14D6D6"/>
<stop offset="0.33" stop-color="#0FA6A6"/>
<stop offset="0.44" stop-color="#096363"/>
<stop offset="0.56" stop-color="#010F0F"/>
<stop offset="0.58"/>
</radialGradient>
<radialGradient id="paint7_radial_95_6581" cx="0" cy="0" r="1" gradientUnits="userSpaceOnUse" gradientTransform="translate(3.50729 47.2557) scale(0.588099 0.588067)">
<stop stop-color="white"/>
<stop offset="0.14" stop-color="#18FFFF"/>
<stop offset="0.18" stop-color="#16F3F3"/>
<stop offset="0.24" stop-color="#14D6D6"/>
<stop offset="0.33" stop-color="#0FA6A6"/>
<stop offset="0.44" stop-color="#096363"/>
<stop offset="0.56" stop-color="#010F0F"/>
<stop offset="0.58"/>
</radialGradient>
<radialGradient id="paint8_radial_95_6581" cx="0" cy="0" r="1" gradientUnits="userSpaceOnUse" gradientTransform="translate(8.00347 35.9354) scale(0.588067 0.588099)">
<stop stop-color="white"/>
<stop offset="0.14" stop-color="#18FFFF"/>
<stop offset="0.18" stop-color="#16F3F3"/>
<stop offset="0.24" stop-color="#14D6D6"/>
<stop offset="0.33" stop-color="#0FA6A6"/>
<stop offset="0.44" stop-color="#096363"/>
<stop offset="0.56" stop-color="#010F0F"/>
<stop offset="0.58"/>
</radialGradient>
<radialGradient id="paint9_radial_95_6581" cx="0" cy="0" r="1" gradientUnits="userSpaceOnUse" gradientTransform="translate(8.00347 64.4355) scale(0.588067)">
<stop stop-color="white"/>
<stop offset="0.14" stop-color="#18FFFF"/>
<stop offset="0.18" stop-color="#16F3F3"/>
<stop offset="0.24" stop-color="#14D6D6"/>
<stop offset="0.33" stop-color="#0FA6A6"/>
<stop offset="0.44" stop-color="#096363"/>
<stop offset="0.56" stop-color="#010F0F"/>
<stop offset="0.58"/>
</radialGradient>
<radialGradient id="paint10_radial_95_6581" cx="0" cy="0" r="1" gradientUnits="userSpaceOnUse" gradientTransform="translate(2.09974 63.4905) scale(0.357039)">
<stop stop-color="white"/>
<stop offset="0.14" stop-color="#18FFFF"/>
<stop offset="0.18" stop-color="#16F3F3"/>
<stop offset="0.24" stop-color="#14D6D6"/>
<stop offset="0.33" stop-color="#0FA6A6"/>
<stop offset="0.44" stop-color="#096363"/>
<stop offset="0.56" stop-color="#010F0F"/>
<stop offset="0.58"/>
</radialGradient>
<radialGradient id="paint11_radial_95_6581" cx="0" cy="0" r="1" gradientUnits="userSpaceOnUse" gradientTransform="translate(8.94525 58.009) scale(0.357039)">
<stop stop-color="white"/>
<stop offset="0.14" stop-color="#18FFFF"/>
<stop offset="0.18" stop-color="#16F3F3"/>
<stop offset="0.24" stop-color="#14D6D6"/>
<stop offset="0.33" stop-color="#0FA6A6"/>
<stop offset="0.44" stop-color="#096363"/>
<stop offset="0.56" stop-color="#010F0F"/>
<stop offset="0.58"/>
</radialGradient>
<radialGradient id="paint12_radial_95_6581" cx="0" cy="0" r="1" gradientUnits="userSpaceOnUse" gradientTransform="translate(2.91858 19.7845) scale(0.357039)">
<stop stop-color="white"/>
<stop offset="0.14" stop-color="#18FFFF"/>
<stop offset="0.18" stop-color="#16F3F3"/>
<stop offset="0.24" stop-color="#14D6D6"/>
<stop offset="0.33" stop-color="#0FA6A6"/>
<stop offset="0.44" stop-color="#096363"/>
<stop offset="0.56" stop-color="#010F0F"/>
<stop offset="0.58"/>
</radialGradient>
<radialGradient id="paint13_radial_95_6581" cx="0" cy="0" r="1" gradientUnits="userSpaceOnUse" gradientTransform="translate(2.91858 11.2153) scale(0.357039)">
<stop stop-color="white"/>
<stop offset="0.14" stop-color="#18FFFF"/>
<stop offset="0.18" stop-color="#16F3F3"/>
<stop offset="0.24" stop-color="#14D6D6"/>
<stop offset="0.33" stop-color="#0FA6A6"/>
<stop offset="0.44" stop-color="#096363"/>
<stop offset="0.56" stop-color="#010F0F"/>
<stop offset="0.58"/>
</radialGradient>
<radialGradient id="paint14_radial_95_6581" cx="0" cy="0" r="1" gradientUnits="userSpaceOnUse" gradientTransform="translate(5.48209 68.5523) scale(0.357039)">
<stop stop-color="white"/>
<stop offset="0.14" stop-color="#18FFFF"/>
<stop offset="0.18" stop-color="#16F3F3"/>
<stop offset="0.24" stop-color="#14D6D6"/>
<stop offset="0.33" stop-color="#0FA6A6"/>
<stop offset="0.44" stop-color="#096363"/>
<stop offset="0.56" stop-color="#010F0F"/>
<stop offset="0.58"/>
</radialGradient>
<radialGradient id="paint15_radial_95_6581" cx="0" cy="0" r="1" gradientUnits="userSpaceOnUse" gradientTransform="translate(0.336036 52.1913) scale(0.357039)">
<stop stop-color="white"/>
<stop offset="0.14" stop-color="#18FFFF"/>
<stop offset="0.18" stop-color="#16F3F3"/>
<stop offset="0.24" stop-color="#14D6D6"/>
<stop offset="0.33" stop-color="#0FA6A6"/>
<stop offset="0.44" stop-color="#096363"/>
<stop offset="0.56" stop-color="#010F0F"/>
<stop offset="0.58"/>
</radialGradient>
<radialGradient id="paint16_radial_95_6581" cx="0" cy="0" r="1" gradientUnits="userSpaceOnUse" gradientTransform="translate(1.74343 40.9339) scale(0.357039)">
<stop stop-color="white"/>
<stop offset="0.14" stop-color="#18FFFF"/>
<stop offset="0.18" stop-color="#16F3F3"/>
<stop offset="0.24" stop-color="#14D6D6"/>
<stop offset="0.33" stop-color="#0FA6A6"/>
<stop offset="0.44" stop-color="#096363"/>
<stop offset="0.56" stop-color="#010F0F"/>
<stop offset="0.58"/>
</radialGradient>
<radialGradient id="paint17_radial_95_6581" cx="0" cy="0" r="1" gradientUnits="userSpaceOnUse" gradientTransform="translate(6.57371 0.357039) scale(0.357039)">
<stop stop-color="white"/>
<stop offset="0.14" stop-color="#18FFFF"/>
<stop offset="0.18" stop-color="#16F3F3"/>
<stop offset="0.24" stop-color="#14D6D6"/>
<stop offset="0.33" stop-color="#0FA6A6"/>
<stop offset="0.44" stop-color="#096363"/>
<stop offset="0.56" stop-color="#010F0F"/>
<stop offset="0.58"/>
</radialGradient>
<radialGradient id="paint18_radial_95_6581" cx="0" cy="0" r="1" gradientUnits="userSpaceOnUse" gradientTransform="translate(6.21704 53.5144) scale(0.357039)">
<stop stop-color="white"/>
<stop offset="0.14" stop-color="#18FFFF"/>
<stop offset="0.18" stop-color="#16F3F3"/>
<stop offset="0.24" stop-color="#14D6D6"/>
<stop offset="0.33" stop-color="#0FA6A6"/>
<stop offset="0.44" stop-color="#096363"/>
<stop offset="0.56" stop-color="#010F0F"/>
<stop offset="0.58"/>
</radialGradient>
<radialGradient id="paint19_radial_95_6581" cx="0" cy="0" r="1" gradientUnits="userSpaceOnUse" gradientTransform="translate(2.91858 36.5233) scale(0.357039)">
<stop stop-color="white"/>
<stop offset="0.14" stop-color="#18FFFF"/>
<stop offset="0.18" stop-color="#16F3F3"/>
<stop offset="0.24" stop-color="#14D6D6"/>
<stop offset="0.33" stop-color="#0FA6A6"/>
<stop offset="0.44" stop-color="#096363"/>
<stop offset="0.56" stop-color="#010F0F"/>
<stop offset="0.58"/>
</radialGradient>
<radialGradient id="paint20_radial_95_6581" cx="0" cy="0" r="1" gradientUnits="userSpaceOnUse" gradientTransform="translate(8.58993 23.8588) scale(0.357039)">
<stop stop-color="white"/>
<stop offset="0.14" stop-color="#18FFFF"/>
<stop offset="0.18" stop-color="#16F3F3"/>
<stop offset="0.24" stop-color="#14D6D6"/>
<stop offset="0.33" stop-color="#0FA6A6"/>
<stop offset="0.44" stop-color="#096363"/>
<stop offset="0.56" stop-color="#010F0F"/>
<stop offset="0.58"/>
</radialGradient>
</defs>
</svg>
