<svg width="73" height="129" viewBox="0 0 73 129" fill="none" xmlns="http://www.w3.org/2000/svg">
<path d="M24.7119 114.316L28.0521 109.264L28.0312 109.285L24.7119 114.316Z" fill="#078A89"/>
<path d="M24.7119 114.316L28.0312 109.285C28.0312 109.285 28.0312 109.348 28.0729 109.389L24.7537 114.421C24.7537 114.421 24.712 114.358 24.7328 114.316" fill="#078C8B"/>
<path d="M24.753 114.42L28.0722 109.389C28.0722 109.389 28.1348 109.473 28.1975 109.556C28.7403 110.224 29.3039 110.913 29.8467 111.602C29.9093 111.686 29.9511 111.748 29.9928 111.769L26.6736 116.8C26.6736 116.8 26.5901 116.696 26.5274 116.633C25.9638 115.944 25.421 115.255 24.8782 114.587C24.8156 114.525 24.7738 114.462 24.753 114.42Z" fill="#078A89"/>
<path d="M26.675 116.8L29.9943 111.769C29.9943 111.769 30.0151 111.79 30.036 111.811L26.7167 116.842C26.7167 116.842 26.6959 116.821 26.675 116.8Z" fill="#068786"/>
<path d="M26.716 116.821L30.0353 111.79C30.0353 111.79 30.1814 111.811 30.3276 111.769C31.8515 111.268 33.3963 110.767 34.9202 110.266C35.0455 110.225 35.1082 110.204 35.1708 110.266L31.8515 115.297C31.8515 115.297 31.7262 115.276 31.601 115.297C30.0562 115.798 28.5322 116.299 27.0083 116.8C26.8413 116.842 26.7786 116.863 26.716 116.821Z" fill="#068584"/>
<path d="M31.8717 115.297L35.191 110.266C35.191 110.266 35.2119 110.266 35.2328 110.308L31.9134 115.339C31.9134 115.339 31.8926 115.318 31.8717 115.297Z" fill="#068786"/>
<path d="M31.9137 115.318L35.233 110.287C35.233 110.287 35.3165 110.371 35.3791 110.454C36.1306 111.373 36.8613 112.27 37.5919 113.168L34.2727 118.199C33.5212 117.301 32.7905 116.404 32.0598 115.485C31.9972 115.402 31.9554 115.36 31.9137 115.318Z" fill="#078A89"/>
<path d="M24.7119 114.316L28.0312 109.285C28.0312 109.285 28.1147 109.244 28.1982 109.202C28.5322 109.098 28.8662 108.993 29.1794 108.847C29.3255 108.784 29.409 108.701 29.4717 108.617L26.1524 113.648C26.1524 113.648 25.9853 113.815 25.8601 113.878C25.547 114.024 25.2129 114.129 24.8789 114.233C24.7954 114.254 24.7328 114.275 24.7119 114.316Z" fill="#85A9A8"/>
<path d="M34.2674 118.22L37.5867 113.189C38.4008 112.917 39.215 112.667 40.0292 112.396L36.7099 117.427C35.8957 117.698 35.0816 117.949 34.2674 118.22Z" fill="#068584"/>
<path d="M34.3768 114.442L37.696 109.39V109.411L34.3768 114.442Z" fill="#8FB0AF"/>
<path d="M34.3768 114.442L37.696 109.411C37.696 109.411 37.6961 109.452 37.7169 109.494L34.3976 114.525C34.3976 114.525 34.3768 114.462 34.3768 114.442Z" fill="#94B4B3"/>
<path d="M34.3963 114.525L37.7156 109.494C37.7156 109.494 37.82 109.64 37.9244 109.766C38.6133 110.621 39.3231 111.498 40.0328 112.375L36.7136 117.406C36.0038 116.529 35.294 115.653 34.6051 114.797C34.5007 114.671 34.4172 114.588 34.3963 114.525Z" fill="#8FB0AF"/>
<path d="M38.0304 116.675L41.3497 111.644L41.5793 111.874L38.2392 116.926L38.0304 116.675Z" fill="#078E8D"/>
<path d="M29.6166 110.538L32.9359 105.507C33.1447 105.778 33.3534 106.05 33.6248 106.321L30.3055 111.352C30.0341 111.081 29.8254 110.809 29.6166 110.538Z" fill="#8FB0AF"/>
<path d="M30.3052 111.352L33.6244 106.321C33.6244 106.321 33.6662 106.363 33.6871 106.384L30.3678 111.415C30.3678 111.415 30.326 111.373 30.3052 111.352Z" fill="#8AADAC"/>
<path d="M11.9525 98.5341L15.2718 93.503L15.2509 93.5239L11.9316 98.5758L11.9525 98.5341Z" fill="#078A89"/>
<path d="M11.9316 98.5758L15.2509 93.5447C15.2509 93.5447 15.2509 93.6074 15.2926 93.67L11.9734 98.7011C11.9734 98.7011 11.9316 98.6176 11.9316 98.5758Z" fill="#078C8B"/>
<path d="M11.9726 98.6803L15.2919 93.6492C15.2919 93.6492 15.3337 93.691 15.3545 93.7119C15.9391 94.4217 16.5027 95.1314 17.0873 95.8412C17.1081 95.883 17.1498 95.9039 17.1707 95.9247L13.8515 100.956C13.8515 100.956 13.7889 100.893 13.768 100.872L12.0353 98.743C12.0353 98.743 11.9935 98.7012 11.9726 98.6803Z" fill="#078A89"/>
<path d="M13.8322 100.977L17.1514 95.9456C17.1514 95.9456 17.1932 95.9873 17.2141 96.0082L13.8948 101.039C13.8948 101.039 13.853 100.998 13.8322 100.977Z" fill="#068786"/>
<path d="M13.8947 101.039L17.2139 96.0082C17.2139 96.0082 17.3601 96.0708 17.4644 96.0291L14.1452 101.06C14.1452 101.06 13.9782 101.081 13.8947 101.039Z" fill="#068584"/>
<path d="M34.3768 114.442L37.696 109.41C37.696 109.41 37.7587 109.369 37.8213 109.348C37.863 109.348 37.9256 109.327 37.9883 109.306C38.197 109.243 38.4058 109.181 38.6146 109.118C38.719 109.076 38.8233 109.056 38.9277 109.014L35.6085 114.045C35.6085 114.045 35.3997 114.107 35.2953 114.149C35.0866 114.212 34.8778 114.274 34.669 114.337C34.6064 114.358 34.5438 114.379 34.502 114.379C34.4394 114.4 34.3977 114.421 34.3768 114.442Z" fill="#068584"/>
<path d="M35.9384 114.087L39.2577 109.056C39.2577 109.056 39.3203 109.118 39.3412 109.139C40.0092 109.974 40.6773 110.788 41.3453 111.623L38.026 116.654C37.358 115.819 36.6899 115.005 36.0219 114.17C36.001 114.128 35.9593 114.108 35.9384 114.087Z" fill="#078A89"/>
<path d="M35.5878 114.024L38.9071 108.993C39.0323 108.951 39.1159 108.951 39.1994 108.993L35.8801 114.024C35.8801 114.024 35.7131 113.961 35.5878 114.024Z" fill="#068584"/>
<path d="M35.8798 114.045L39.1991 109.014C39.1991 109.014 39.2408 109.056 39.2617 109.076L35.9425 114.107C35.9425 114.107 35.9007 114.066 35.8798 114.045Z" fill="#068786"/>
<path d="M35.9433 114.087L39.2626 109.056C39.2626 109.056 39.3252 109.118 39.3461 109.139C40.0141 109.974 40.6821 110.788 41.3502 111.623L38.0309 116.654C37.3629 115.819 36.6948 115.005 36.0268 114.17C36.0059 114.128 35.9642 114.107 35.9433 114.087Z" fill="#078A89"/>
<path d="M14.1457 101.06L17.4649 96.029C17.5902 95.9873 17.7154 95.9455 17.8407 95.9037C18.0703 95.8411 18.2999 95.7576 18.5505 95.7159C18.8845 95.6532 19.2394 95.7159 19.5525 95.9455L16.2333 100.977C15.9201 100.768 15.5652 100.684 15.2312 100.747C14.9807 100.789 14.7511 100.851 14.5214 100.935C14.3962 100.977 14.2709 101.018 14.1457 101.06Z" fill="#068584"/>
<path d="M16.2337 100.956L19.553 95.9246C19.553 95.9246 19.7409 96.0498 19.8244 96.1333L16.5051 101.164C16.5051 101.164 16.3381 101.018 16.2337 100.956Z" fill="#068786"/>
<path d="M16.5043 101.185L19.8235 96.1541C19.8235 96.1541 19.907 96.2376 19.9279 96.2793C20.1784 96.5716 20.408 96.8221 20.6376 97.1144C23.2889 100.371 25.9402 103.628 28.5705 106.884C28.821 107.177 29.0507 107.49 29.2803 107.803C29.3012 107.845 29.343 107.886 29.3638 107.907L26.0445 112.938C26.0445 112.938 26.0028 112.855 25.961 112.834C25.7523 112.521 25.5018 112.229 25.2513 111.915C22.6209 108.659 19.9696 105.381 17.3184 102.145C17.0887 101.853 16.8591 101.582 16.6086 101.31C16.5669 101.269 16.5251 101.227 16.5043 101.185Z" fill="#078A89"/>
<path d="M26.0451 112.938L29.3644 107.907C29.5105 108.158 29.5731 108.346 29.5314 108.513L26.2121 113.544C26.2539 113.377 26.2121 113.189 26.0451 112.938Z" fill="#078C8B"/>
<path d="M26.2109 113.544L29.5301 108.513C29.5301 108.513 29.5093 108.596 29.4884 108.617L26.1691 113.648C26.1691 113.648 26.2109 113.586 26.2109 113.544Z" fill="#078A89"/>
<path d="M28.3411 108.993L31.6604 103.962C32.0988 104.484 32.4955 104.985 32.9339 105.507L29.6146 110.538C29.1762 110.016 28.7795 109.515 28.3411 108.993Z" fill="#8FB0AF"/>
<path d="M26.549 106.801L29.8683 101.77C30.4737 102.501 31.0582 103.231 31.6636 103.962L28.3443 108.993C27.7389 108.263 27.1753 107.532 26.549 106.801Z" fill="#8FB0AF"/>
<path d="M38.2355 116.926L41.5548 111.895C42.3689 111.623 43.1831 111.373 44.0181 111.101L40.6988 116.132C39.8847 116.404 39.0705 116.654 38.2355 116.926Z" fill="#068584"/>
<path d="M30.3657 111.414L33.685 106.383C33.685 106.383 33.8311 106.509 33.8938 106.55L30.5745 111.581C30.5745 111.581 30.4492 111.477 30.3657 111.414Z" fill="#8AADAC"/>
<path d="M30.5737 111.581L33.893 106.55C34.0809 106.676 34.227 106.696 34.4566 106.634C34.8115 106.571 35.1456 106.467 35.4587 106.362C35.7718 106.258 36.1058 106.133 36.419 106.028C36.9409 105.841 37.4628 105.632 37.8386 105.319L34.5193 110.35C34.1226 110.663 33.6007 110.872 33.0997 111.06C32.7866 111.164 32.4526 111.289 32.1394 111.394C31.8263 111.498 31.4923 111.602 31.1374 111.665C30.9286 111.707 30.7616 111.686 30.5737 111.581Z" fill="#85A9A8"/>
<path d="M30.3022 105.527L33.6215 100.496C34.3939 100.392 35.2081 100.475 36.0848 100.956C36.1683 100.997 36.2519 101.06 36.3562 101.123L33.037 106.154C33.037 106.154 32.87 106.049 32.7656 105.987C31.8888 105.486 31.0746 105.423 30.3022 105.527Z" fill="#068584"/>
<path d="M33.0163 106.154L36.3356 101.123C36.6278 101.311 36.8783 101.519 37.1288 101.749L33.8096 106.78C33.5799 106.55 33.3086 106.342 33.0163 106.154Z" fill="#068786"/>
<path d="M33.8084 106.78L37.1276 101.749C37.4199 102.02 37.6704 102.334 37.8583 102.626L34.539 107.657C34.3512 107.344 34.1006 107.052 33.8084 106.78Z" fill="#078A89"/>
<path d="M34.5399 107.678L37.8591 102.647C38.2767 103.315 38.4645 104.004 38.3184 104.588L34.9992 109.619C35.1453 109.035 34.9574 108.346 34.5399 107.678Z" fill="#078C8B"/>
<path d="M34.9993 109.619L38.3185 104.588C38.2768 104.734 38.2142 104.859 38.1307 105.006L34.8114 110.037C34.8949 109.911 34.9575 109.765 34.9993 109.619Z" fill="#078A89"/>
<path d="M30.304 105.527C31.0764 105.423 31.8905 105.507 32.7673 105.987C34.667 107.072 35.7943 109.306 34.5209 110.35C34.1243 110.663 33.6024 110.872 33.1013 111.06C32.7882 111.164 32.4542 111.289 32.1411 111.394C31.8279 111.498 31.4939 111.602 31.139 111.665C30.8467 111.728 30.6589 111.665 30.3875 111.414C30.0744 111.143 29.8656 110.83 29.6359 110.538C29.1975 110.016 28.801 109.515 28.3834 108.993C27.778 108.262 27.1935 107.531 26.5881 106.801V106.613C27.0682 106.467 27.5483 106.3 28.0076 106.154C28.3625 106.049 28.7174 105.924 29.0932 105.841C29.5107 105.736 29.9073 105.611 30.3457 105.569L30.304 105.527Z" fill="#0BB5B5"/>
<path d="M26.5698 106.592L29.8892 101.561L29.8683 101.749L26.549 106.801L26.5698 106.592Z" fill="#97B6B5"/>
<path d="M38.2374 112.938L41.5567 107.907C41.5567 107.907 41.5567 107.928 41.5567 107.949L38.2374 112.98C38.2374 112.98 38.2374 112.959 38.2374 112.938Z" fill="#8FB0AF"/>
<path d="M38.2368 112.98L41.5561 107.949C41.5561 107.949 41.5561 108.053 41.5978 108.116L38.2786 113.147C38.2786 113.147 38.2159 113.022 38.2368 112.98Z" fill="#94B4B3"/>
<path d="M38.2794 113.147L41.5987 108.116C41.5987 108.116 41.6405 108.179 41.6613 108.2C42.4546 109.16 43.2479 110.12 44.0203 111.08L40.7011 116.112C39.9286 115.151 39.1353 114.191 38.3421 113.231C38.3212 113.189 38.3003 113.168 38.2794 113.147Z" fill="#8FB0AF"/>
<path d="M24.0195 103.649L27.3388 98.6177C27.3388 98.6177 27.4014 98.7012 27.4432 98.7429L24.1239 103.774C24.1239 103.774 24.0613 103.711 24.0195 103.649Z" fill="#8FB0AF"/>
<path d="M24.1025 103.753L27.4218 98.722C27.4218 98.722 27.4635 98.7638 27.4844 98.7638L24.1651 103.795C24.1651 103.795 24.1234 103.774 24.1025 103.753Z" fill="#8AADAC"/>
<path d="M24.167 103.816L27.4862 98.7847C27.4862 98.7847 27.6533 98.8473 27.7785 98.7847L24.4593 103.816C24.334 103.858 24.2505 103.858 24.167 103.816Z" fill="#85A9A8"/>
<path d="M38.2355 112.938L41.5548 107.907C41.5548 107.907 41.6174 107.845 41.6591 107.824C42.348 107.469 42.9117 107.031 43.2874 106.467L39.9682 111.498C39.5924 112.083 39.0079 112.521 38.3398 112.855C38.2772 112.876 38.2564 112.918 38.2355 112.938Z" fill="#068584"/>
<path d="M34.5213 110.35L37.8407 105.319C37.9659 105.215 38.0703 105.11 38.1538 104.985L34.8345 110.016C34.751 110.141 34.6466 110.246 34.5213 110.35Z" fill="#85A9A8"/>
<path d="M26.5685 106.592L29.8879 101.561C30.368 101.415 30.8272 101.248 31.2865 101.102C31.6414 100.997 31.9963 100.872 32.372 100.789L29.0528 105.82C28.677 105.924 28.3221 106.028 27.9673 106.133C27.4871 106.279 27.0278 106.446 26.5685 106.592Z" fill="#068584"/>
<path d="M24.46 103.816L27.7792 98.7848C27.988 98.7013 28.1967 98.6386 28.4055 98.576C28.6142 98.5134 28.8439 98.4299 29.0526 98.3673L25.7334 103.398C25.5246 103.461 25.295 103.524 25.0862 103.607C24.8775 103.67 24.6687 103.753 24.46 103.816Z" fill="#85A9A8"/>
<path d="M20.7413 99.4737L24.0606 94.4426L24.0397 94.4635L20.7204 99.4946L20.7413 99.4737Z" fill="#8FB0AF"/>
<path d="M20.7204 99.4946L24.0397 94.4635C24.0397 94.4635 24.0397 94.547 24.0814 94.6096L20.7621 99.6407C20.7621 99.6407 20.7204 99.5363 20.7204 99.4946Z" fill="#94B4B3"/>
<path d="M20.7614 99.6407L24.0807 94.6096C24.0807 94.6096 24.1225 94.6723 24.1434 94.714C24.6653 95.3612 25.1871 96.0083 25.7299 96.6764C26.2727 97.3235 26.7946 97.9916 27.3165 98.6387L23.9972 103.67C23.4753 103.023 22.9534 102.375 22.4106 101.707C21.8679 101.039 21.346 100.392 20.8241 99.7451C20.8032 99.7034 20.7823 99.6825 20.7614 99.6407Z" fill="#8FB0AF"/>
<path d="M11.9521 98.5342L15.2715 93.5031C15.2715 93.5031 15.3341 93.4405 15.3967 93.4196C16.9207 92.9186 18.4654 92.4176 20.0103 91.9166C20.1146 91.8748 20.1773 91.8539 20.1981 91.8331L16.8789 96.8642C16.8789 96.8642 16.7954 96.9059 16.691 96.9476C15.1462 97.4487 13.6013 97.9497 12.0774 98.4507C12.0148 98.4716 11.973 98.4925 11.9521 98.5342Z" fill="#85A9A8"/>
<path d="M20.7429 99.4736L24.0621 94.4425C24.0621 94.4425 24.1039 94.4008 24.1457 94.4008L20.8263 99.4319C20.8263 99.4319 20.7638 99.4528 20.7429 99.4736Z" fill="#068584"/>
<path d="M20.8288 99.4317L24.1481 94.4006C24.1481 94.4006 24.169 94.4006 24.1899 94.4006L20.8706 99.4317C20.8706 99.4317 20.8497 99.4317 20.8288 99.4317Z" fill="#068584"/>
<path d="M29.0502 105.799L32.3694 100.768C32.787 100.664 33.1836 100.538 33.622 100.497L30.3028 105.528C29.8435 105.569 29.4468 105.695 29.0502 105.799Z" fill="#068584"/>
<path d="M30.3022 105.527L33.6215 100.496C34.3939 100.392 35.2081 100.475 36.0848 100.956C36.1683 100.997 36.2519 101.06 36.3562 101.123L33.037 106.154C33.037 106.154 32.87 106.049 32.7656 105.987C31.8888 105.486 31.0746 105.423 30.3022 105.527Z" fill="#068584"/>
<path d="M14.6242 93.8785L17.9435 88.8475C17.9435 88.8475 17.9435 88.8475 17.9435 88.8683L14.6242 93.8994C14.6242 93.8994 14.6242 93.8994 14.6242 93.8785Z" fill="#078A89"/>
<path d="M14.6041 93.8994L17.9233 88.8683C17.9233 88.8683 17.9233 88.9519 17.9651 89.0145L14.6458 94.0456C14.6458 94.0456 14.5832 93.9412 14.6041 93.8994Z" fill="#078C8B"/>
<path d="M14.6672 94.0455L17.9865 89.0145C17.9865 89.0145 18.0282 89.0771 18.0491 89.098C18.7171 89.9121 19.3851 90.7471 20.0532 91.5613C20.1158 91.6448 20.1575 91.7075 20.1993 91.7492L16.88 96.7803C16.88 96.7803 16.7965 96.6759 16.7339 96.5924C16.0659 95.7782 15.4187 94.9432 14.7298 94.1291C14.7089 94.1082 14.6881 94.0664 14.6672 94.0455Z" fill="#078A89"/>
<path d="M16.8588 96.7803L20.178 91.7492C20.178 91.7492 20.2198 91.8118 20.1989 91.8327L16.8797 96.8638C16.8797 96.8638 16.8797 96.822 16.8588 96.7803Z" fill="#078C8B"/>
<path d="M16.8783 96.8638L20.2185 91.8327L20.1976 91.8536L16.8783 96.8847V96.8638Z" fill="#078A89"/>
<path d="M14.6311 93.8787L17.9504 88.8476C17.9504 88.8476 18.013 88.785 18.0756 88.7641L14.7564 93.7952C14.7564 93.7952 14.6519 93.8369 14.6311 93.8787Z" fill="#85A9A8"/>
<path d="M25.754 103.398L29.0733 98.3669C29.7831 98.1373 30.4511 97.8659 31.0356 97.5319C31.2653 97.3857 31.4532 97.2187 31.5784 97.0309L28.2591 102.062C28.1338 102.25 27.946 102.417 27.7164 102.563C27.1318 102.918 26.4638 103.168 25.754 103.398Z" fill="#85A9A8"/>
<path d="M20.8679 99.411L24.1871 94.3799C24.709 94.2129 25.2518 94.025 25.7737 93.858C26.0451 93.7745 26.2956 93.691 26.567 93.6075L23.2477 98.6386C22.9763 98.7221 22.7258 98.8056 22.4544 98.8891C21.9325 99.0561 21.3898 99.244 20.8679 99.411Z" fill="#068584"/>
<path d="M14.7522 93.7953L18.0714 88.7642C18.4054 88.6598 18.7394 88.5555 19.0734 88.4511C19.4074 88.3467 19.7415 88.2423 20.0546 88.1171L16.7353 93.1482C16.4013 93.2734 16.0882 93.3778 15.7542 93.4822C15.4201 93.5866 15.0862 93.6909 14.7522 93.7953Z" fill="#85A9A8"/>
<path d="M16.7582 93.1481L20.0774 88.117C20.2027 88.0752 20.2653 88.0752 20.3488 88.117L17.0296 93.1481C17.0296 93.1481 16.8626 93.0855 16.7582 93.1481Z" fill="#85A9A8"/>
<path d="M17.0287 93.169L20.348 88.1379C20.348 88.1379 20.3897 88.1797 20.4106 88.2006L17.0913 93.2317C17.0913 93.2317 17.0496 93.1899 17.0287 93.169Z" fill="#8AADAC"/>
<path d="M17.0922 93.2315L20.4115 88.2004C20.4115 88.2004 20.4741 88.263 20.5158 88.3048C21.1838 89.1398 21.8727 89.9749 22.5408 90.8308C22.5617 90.8517 22.5825 90.8934 22.6034 90.9143L19.2841 95.9454C19.2841 95.9454 19.2424 95.9036 19.2215 95.8619C18.5535 95.006 17.8646 94.1709 17.1965 93.3359C17.1548 93.2941 17.1339 93.2524 17.0922 93.2315Z" fill="#8FB0AF"/>
<path d="M19.2838 95.9245L22.603 90.8934C22.603 90.8934 22.6448 90.9352 22.6657 90.956L19.3464 95.9871C19.3464 95.9871 19.3047 95.9454 19.2838 95.9245Z" fill="#8AADAC"/>
<path d="M19.3678 95.9873L22.687 90.9562C22.687 90.9562 22.854 91.0188 22.9584 90.977L19.6392 96.0081C19.5348 96.0499 19.4513 96.0499 19.3678 95.9873Z" fill="#85A9A8"/>
<path d="M19.6373 96.0082L22.9566 90.9771C23.061 90.9354 23.1862 90.8936 23.2906 90.8519C23.5202 90.7684 23.7498 90.7058 23.9795 90.6223C24.0839 90.5805 24.1465 90.5805 24.1674 90.5388L20.8481 95.5699C20.8481 95.5699 20.7646 95.6116 20.6602 95.6534C20.4306 95.7369 20.201 95.7995 19.9713 95.883C19.8461 95.9247 19.7417 95.9665 19.6373 96.0082Z" fill="#85A9A8"/>
<path d="M31.9077 102.835L35.227 97.8035C35.227 97.8035 35.1643 97.9288 35.1226 97.9914L31.8033 103.022C31.8033 103.022 31.8659 102.897 31.9077 102.835Z" fill="#8FB0AF"/>
<path d="M31.9127 102.835L35.232 97.8036C35.3364 97.6575 35.4408 97.5322 35.5452 97.3861L32.2259 102.417C32.1215 102.563 32.0171 102.689 31.9127 102.835Z" fill="#068584"/>
<path d="M23.2489 98.6384L26.5682 93.6073C27.1736 93.4403 27.7582 93.2941 28.4888 93.3359C29.0525 93.3776 29.6161 93.5864 30.1171 93.8995L26.7979 98.9306C26.2968 98.6175 25.7332 98.4087 25.1695 98.367C24.4389 98.3252 23.8543 98.4922 23.2489 98.6384Z" fill="#068584"/>
<path d="M26.7994 98.9306L30.1187 93.8995C30.3483 94.0456 30.5362 94.2126 30.7241 94.3796L27.4048 99.4107C27.2169 99.2229 27.0082 99.0559 26.7785 98.9306" fill="#068786"/>
<path d="M27.4241 99.4106L30.7433 94.3795C30.9939 94.6092 31.2026 94.8805 31.3697 95.1519L28.0504 100.183C27.8834 99.9116 27.6537 99.6403 27.4241 99.4106Z" fill="#078A89"/>
<path d="M28.0491 100.183L31.3684 95.152C31.7442 95.7366 31.8485 96.2376 31.7441 96.676L28.4249 101.707C28.5501 101.269 28.4249 100.768 28.0491 100.183Z" fill="#078C8B"/>
<path d="M28.4271 101.707L31.7464 96.6759C31.7046 96.8011 31.6629 96.9264 31.5794 97.0307L28.2601 102.062C28.3436 101.957 28.3854 101.832 28.4271 101.707Z" fill="#078A89"/>
<path d="M18.5718 92.6052L21.8911 87.5742L18.5718 92.6261V92.6052Z" fill="#078A89"/>
<path d="M18.5718 92.6261L21.8911 87.595C21.8911 87.595 21.891 87.6577 21.9328 87.6994L18.6135 92.7305C18.6135 92.7305 18.5718 92.6679 18.5718 92.6261Z" fill="#078C8B"/>
<path d="M18.5923 92.7096L21.9116 87.6785C21.9116 87.6785 21.9951 87.7829 22.0577 87.8664C22.7049 88.6806 23.3728 89.4739 24.02 90.288C24.0826 90.3507 24.1244 90.4133 24.1453 90.455L20.826 95.4861C20.826 95.4861 20.7634 95.4026 20.7007 95.3191L18.7384 92.8975C18.7384 92.8975 18.6132 92.7514 18.5923 92.7096Z" fill="#078A89"/>
<path d="M20.8464 95.507L24.1657 90.4759C24.1657 90.4759 24.1866 90.5385 24.1866 90.5594L20.8673 95.5905C20.8673 95.5905 20.8673 95.5487 20.8464 95.507Z" fill="#078C8B"/>
<path d="M20.8669 95.5697L24.1862 90.5386V90.5595L20.8669 95.5906V95.5697Z" fill="#078A89"/>
<path d="M31.8033 103.002L35.1226 97.9706C35.4775 97.9706 35.8533 97.9706 36.2499 97.9706C37.085 97.9915 37.9408 98.1585 38.8385 98.5343L35.5192 103.565C34.6216 103.19 33.7657 103.023 32.9307 103.002C32.5549 103.002 32.1791 103.002 31.8033 103.002Z" fill="#85A9A8"/>
<path d="M38.5295 105.611L41.8487 100.58C42.3289 101.06 42.7047 101.54 42.9969 102L39.6776 107.031C39.3853 106.571 38.9887 106.091 38.5295 105.611Z" fill="#8FB0AF"/>
<path d="M39.6965 107.031L43.0158 102C43.7882 103.21 43.997 104.4 43.7256 105.507C43.7256 105.507 43.7256 105.548 43.7256 105.569L40.4063 110.6C40.4063 110.6 40.4063 110.559 40.4063 110.538C40.6777 109.41 40.469 108.241 39.6965 107.031Z" fill="#94B4B3"/>
<path d="M40.3872 110.601L43.7064 105.57C43.6229 105.904 43.4768 106.196 43.3098 106.446L39.9905 111.477C40.1575 111.206 40.3037 110.914 40.3872 110.601Z" fill="#8FB0AF"/>
<path d="M35.5234 103.586L38.8426 98.555C39.3854 98.7638 39.8864 99.0352 40.3666 99.3483L37.0473 104.379C36.5672 104.066 36.0661 103.816 35.5234 103.586Z" fill="#85A9A8"/>
<path d="M37.0254 104.379L40.3447 99.3483C40.804 99.6406 41.2424 99.9954 41.639 100.371L38.3197 105.402C37.9231 105.006 37.4847 104.672 37.0254 104.379Z" fill="#8AADAC"/>
<path d="M38.3195 105.402L41.6387 100.371C41.6387 100.371 41.7849 100.517 41.8475 100.58L38.5283 105.611C38.5283 105.611 38.3821 105.465 38.3195 105.402Z" fill="#8FB0AF"/>
<path d="M18.5718 92.6055L21.8911 87.5744C21.8911 87.5744 21.9955 87.5118 22.1207 87.47C22.747 87.2613 23.3733 87.0734 23.9996 86.8646C24.1666 86.802 24.2292 86.7811 24.3127 86.8437L20.9934 91.8748C20.9934 91.8748 20.8473 91.854 20.6803 91.8957C20.054 92.1045 19.4277 92.2924 18.8014 92.5011C18.6762 92.5429 18.5927 92.5637 18.5718 92.6055Z" fill="#85A9A8"/>
<path d="M20.9939 91.854L24.3131 86.8229C24.3131 86.8229 24.334 86.8437 24.3549 86.8646L21.0356 91.8957C21.0356 91.8957 20.9939 91.8749 20.9939 91.854Z" fill="#8AADAC"/>
<path d="M21.0349 91.8957L24.3542 86.8646C24.3542 86.8646 24.4377 86.969 24.5212 87.0525C25.2101 87.9085 25.9199 88.7852 26.6088 89.6411C26.6297 89.6829 26.6505 89.7038 26.6922 89.7247L23.373 94.7558C23.373 94.7558 23.3313 94.714 23.2895 94.6722C22.6006 93.8163 21.9117 92.9395 21.2019 92.0836C21.1393 92.0001 21.0766 91.9375 21.0349 91.8957Z" fill="#8FB0AF"/>
<path d="M23.3525 94.7558L26.6717 89.7247C26.6717 89.7247 26.7344 89.7665 26.7552 89.7874L23.4359 94.8185C23.4359 94.8185 23.3733 94.7767 23.3525 94.7558Z" fill="#8AADAC"/>
<path d="M23.4365 94.8183L26.7558 89.7872C26.7558 89.7872 26.9436 89.8499 27.0689 89.829L23.7496 94.8601C23.6244 94.8809 23.5408 94.8601 23.4365 94.8183Z" fill="#85A9A8"/>
<path d="M29.9321 96.3424L33.2514 91.3113C33.6062 91.5618 33.9194 91.8332 34.2116 92.1046L30.8924 97.1357C30.6001 96.8643 30.287 96.5929 29.9321 96.3424Z" fill="#8AADAC"/>
<path d="M30.8716 97.1565L34.1909 92.1254C34.6085 92.5221 34.9633 92.9605 35.2556 93.3989L31.9363 98.43C31.6649 97.9916 31.31 97.5741 30.8716 97.1565Z" fill="#8FB0AF"/>
<path d="M31.9362 98.4298L35.2554 93.3987C35.5686 93.8998 35.7982 94.4008 35.9235 94.9436C36.0696 95.5281 36.0487 96.05 35.9235 96.5301L32.6042 101.561C32.7295 101.081 32.7503 100.559 32.6042 99.9747C32.4581 99.4319 32.2493 98.9309 31.9362 98.4298Z" fill="#94B4B3"/>
<path d="M32.6238 101.54L35.9431 96.5093C35.8596 96.8225 35.7343 97.0939 35.5465 97.3653L32.2272 102.396C32.3942 102.125 32.5403 101.833 32.6238 101.54Z" fill="#8FB0AF"/>
<path d="M23.747 94.8601L27.0663 89.829C28.298 89.5994 29.6549 89.6828 31.1788 90.2256C31.7634 90.4344 32.327 90.7267 32.8698 91.0607L29.5505 96.0918C29.0078 95.7369 28.4441 95.4446 27.8596 95.2567C26.3356 94.7139 24.9787 94.6304 23.747 94.8601Z" fill="#85A9A8"/>
<path d="M29.5522 96.0919L32.8714 91.0608C32.9967 91.1443 33.1219 91.2278 33.2472 91.3113L29.9279 96.3424C29.8027 96.2589 29.6774 96.1754 29.5522 96.0919Z" fill="#8AADAC"/>
<path d="M9.55382 82.7521C21.1191 78.9944 38.5505 85.9252 48.5292 98.2003C58.5079 110.496 57.2344 123.502 45.69 127.26C34.1248 131.017 16.6934 124.086 6.71473 111.79C-3.24308 99.5154 -1.99054 86.5098 9.57472 82.7521H9.55382ZM40.4084 110.559C40.7842 108.993 40.2415 107.344 38.5505 105.611C37.6737 104.714 36.6716 104.046 35.5235 103.586C34.6258 103.211 33.7699 103.043 32.9349 103.023C32.5591 103.023 32.1833 103.023 31.8076 103.023C31.9119 102.793 32.079 102.626 32.2251 102.417C32.6635 101.728 32.8514 100.935 32.6217 99.9747C32.2877 98.6387 31.39 97.4279 29.9287 96.3632C29.2816 95.9039 28.5927 95.5282 27.862 95.2777C26.3381 94.7349 24.9812 94.6514 23.7495 94.881C23.5616 94.9228 23.4363 94.881 23.2902 94.6931C22.6013 93.8372 21.9124 92.9604 21.2026 92.1045C21.0495 91.9097 20.8756 91.8471 20.6807 91.9166C20.0544 92.1254 19.4281 92.3133 18.8018 92.522C18.5931 92.5916 18.5722 92.7308 18.7392 92.9395L20.7016 95.3612C20.8407 95.5282 20.8268 95.6395 20.6598 95.6952C20.4302 95.7787 20.2006 95.8413 19.9709 95.9248C19.8457 95.9666 19.7413 96.0083 19.6369 96.0501C19.4699 96.1127 19.3655 96.0501 19.2194 95.883C18.5514 95.0271 17.8624 94.1921 17.1944 93.3571C17.0483 93.1692 16.9439 93.1065 16.756 93.1692C16.422 93.2944 16.1089 93.3988 15.7749 93.5032C15.4409 93.6076 15.1068 93.7119 14.7728 93.8163C14.5849 93.879 14.5849 93.9625 14.7311 94.1503C15.42 94.9645 16.0671 95.7996 16.7351 96.6137C16.8882 96.8086 16.8813 96.9338 16.7142 96.9895C15.1694 97.4905 13.6246 97.9915 12.1007 98.4925C11.9337 98.5552 11.9128 98.6178 12.0381 98.7848L13.7708 100.914C13.9169 101.102 14.0004 101.123 14.1674 101.081C14.2926 101.039 14.4179 100.998 14.5432 100.956C14.7728 100.893 15.0025 100.81 15.253 100.768C15.7122 100.685 16.2341 100.872 16.6308 101.332C16.8813 101.624 17.1109 101.874 17.3406 102.167C19.9918 105.423 22.643 108.68 25.2734 111.937C25.5239 112.229 25.7535 112.542 25.9832 112.855C26.3589 113.377 26.3172 113.711 25.8788 113.899C25.5657 114.045 25.2316 114.149 24.8976 114.254C24.668 114.337 24.668 114.337 24.8767 114.609C25.4195 115.277 25.9832 115.966 26.5259 116.655C26.679 116.836 26.846 116.898 27.027 116.842C28.5509 116.341 30.0957 115.84 31.6197 115.339C31.7728 115.284 31.9189 115.346 32.0581 115.527C32.8096 116.446 33.5402 117.344 34.2709 118.241C35.0851 117.97 35.8992 117.719 36.7134 117.448C36.0036 116.571 35.2938 115.694 34.6049 114.838C34.3335 114.504 34.2709 114.483 34.5006 114.4C34.5423 114.4 34.6049 114.379 34.6675 114.358C34.8763 114.296 35.0851 114.233 35.2939 114.17C35.3982 114.129 35.5026 114.108 35.607 114.066C35.7949 114.003 35.8992 114.066 36.0454 114.233C36.7134 115.068 37.3814 115.882 38.0494 116.717L38.2582 116.968C39.0724 116.696 39.8865 116.446 40.7215 116.174C39.9491 115.214 39.1559 114.254 38.3626 113.294C38.1956 113.085 38.1956 113.001 38.3626 112.918C39.3647 112.396 40.137 111.686 40.4084 110.621" fill="#0BB5B5"/>
<path d="M38.5305 105.611C40.2214 107.344 40.7642 108.993 40.3885 110.559C40.1171 111.623 39.3446 112.354 38.3426 112.855C38.1756 112.939 38.1547 113.043 38.3426 113.231C39.1359 114.191 39.9292 115.151 40.7016 116.112C39.8874 116.383 39.0733 116.634 38.2382 116.905L38.0295 116.654C37.3614 115.819 36.6934 115.005 36.0253 114.17C35.8792 113.982 35.7749 113.941 35.6288 113.982C35.4826 114.045 35.3782 114.066 35.2738 114.108C35.0651 114.17 34.8563 114.233 34.6476 114.296C34.585 114.316 34.5223 114.337 34.4805 114.337C34.2718 114.4 34.3136 114.421 34.585 114.776C35.2739 115.632 35.9836 116.508 36.6934 117.385C35.8792 117.657 35.0651 117.907 34.2509 118.178C33.4994 117.281 32.7688 116.383 32.0381 115.465C31.8989 115.298 31.7527 115.235 31.5997 115.277C30.0548 115.778 28.5309 116.279 27.007 116.78C26.8261 116.835 26.659 116.773 26.5059 116.592C25.9423 115.903 25.3995 115.214 24.8568 114.546C24.648 114.296 24.648 114.275 24.8776 114.191C25.2116 114.087 25.5456 113.982 25.8588 113.836C26.2972 113.648 26.339 113.314 25.9632 112.792C25.7544 112.479 25.5039 112.187 25.2534 111.874C22.6231 108.617 19.9718 105.34 17.3205 102.104C17.0909 101.812 16.8613 101.54 16.6108 101.269C16.2141 100.831 15.7131 100.622 15.2329 100.705C14.9824 100.747 14.7528 100.81 14.5232 100.893C14.3979 100.935 14.2727 100.977 14.1474 101.018C14.0013 101.06 13.8969 101.018 13.7508 100.851L12.018 98.7221C11.8719 98.5342 11.9137 98.4925 12.0807 98.4298C13.6046 97.9288 15.1495 97.4278 16.6943 96.9268C16.8613 96.8711 16.8682 96.7458 16.7151 96.551C16.0471 95.7368 15.3999 94.9018 14.711 94.0876C14.5649 93.8997 14.565 93.8162 14.7528 93.7536C15.0869 93.6492 15.4208 93.5449 15.7548 93.4405C16.0889 93.3361 16.4229 93.2317 16.736 93.1065C16.9239 93.0438 17.0283 93.1065 17.1744 93.2943C17.8424 94.1294 18.5313 94.9644 19.1994 95.8203C19.3455 96.0082 19.4499 96.0291 19.6169 95.9873C19.7213 95.9456 19.8465 95.9038 19.9509 95.8621C20.1806 95.7786 20.4102 95.716 20.6398 95.6325C20.8068 95.5768 20.8208 95.4654 20.6816 95.2984L18.7192 92.8768C18.5522 92.6681 18.5731 92.5289 18.7819 92.4593C19.4082 92.2506 20.0344 92.0627 20.6607 91.8539C20.8555 91.7983 21.0295 91.8609 21.1826 92.0418C21.8715 92.8977 22.5813 93.7745 23.2702 94.6304C23.4163 94.8183 23.5624 94.8601 23.7295 94.8183C24.9611 94.5887 26.3181 94.6721 27.842 95.2149C28.5727 95.4654 29.2407 95.8412 29.9087 96.3005C31.3491 97.3651 32.2677 98.5759 32.6017 99.912C32.8314 100.872 32.6435 101.666 32.2051 102.355C32.0798 102.542 31.9128 102.73 31.7875 102.96C32.1424 102.96 32.5182 102.96 32.9148 102.96C33.7499 102.981 34.6058 103.148 35.5034 103.524C36.6307 103.983 37.6537 104.651 38.5305 105.549V105.611ZM34.5014 110.35C35.7749 109.306 34.6476 107.072 32.7479 105.987C31.8711 105.486 31.0569 105.423 30.2845 105.528C29.8252 105.569 29.4286 105.695 29.032 105.799C28.6562 105.903 28.3013 106.008 27.9464 106.112C27.4662 106.258 27.007 106.425 26.5477 106.571V106.759C27.1322 107.49 27.7168 108.221 28.3222 108.951C28.7606 109.473 29.1572 109.974 29.5956 110.496C29.8252 110.788 30.0548 111.102 30.3471 111.373C30.6185 111.623 30.8064 111.686 31.0987 111.623C31.4535 111.561 31.7876 111.456 32.1007 111.352C32.4139 111.248 32.7479 111.122 33.061 111.018C33.5829 110.83 34.1048 110.621 34.4805 110.308L34.5014 110.35ZM23.98 103.586C24.1261 103.795 24.2513 103.837 24.4392 103.774C24.648 103.691 24.8567 103.628 25.0655 103.565C25.2742 103.503 25.5039 103.419 25.7127 103.357C26.4225 103.127 27.0904 102.856 27.675 102.521C28.5309 102 28.6561 101.185 28.009 100.142C27.3827 99.1605 26.2763 98.3881 25.1281 98.3046C24.3974 98.2628 23.813 98.4298 23.2076 98.5759C22.9362 98.6594 22.6857 98.743 22.4143 98.8265C21.8924 98.9935 21.3496 99.1814 20.8277 99.3484C20.8277 99.3484 20.8068 99.3484 20.7859 99.3484C20.6398 99.3901 20.6607 99.4736 20.8068 99.6615C21.3287 100.309 21.8715 100.956 22.3934 101.624C22.9153 102.292 23.4581 102.939 23.98 103.586Z" fill="#F3F6F6"/>
<path d="M24.4607 103.816C24.2729 103.878 24.1685 103.837 24.0015 103.628C23.4796 102.981 22.9577 102.333 22.4149 101.665C21.8721 100.997 21.3502 100.35 20.8283 99.7031C20.6822 99.5361 20.6613 99.4317 20.8075 99.39C20.8075 99.39 20.8283 99.39 20.8492 99.39C21.3711 99.2229 21.9139 99.0351 22.4358 98.8681C22.7072 98.7845 22.9577 98.7011 23.2291 98.6176C23.8345 98.4505 24.419 98.3044 25.1496 98.3462C26.2978 98.4297 27.4042 99.1812 28.0305 100.183C28.6985 101.206 28.5524 102.041 27.6965 102.563C27.112 102.918 26.4439 103.169 25.7341 103.398C25.5254 103.461 25.2958 103.523 25.087 103.607C24.8782 103.67 24.6695 103.753 24.4607 103.816Z" fill="#0BB5B5"/>
<path d="M2.08025 88.1589L5.39951 83.1278C6.98608 80.7062 9.4912 78.8274 12.8522 77.721L9.53296 82.7521C6.17194 83.8376 3.66681 85.7373 2.08025 88.1589Z" fill="#068584"/>
<path d="M9.55057 82.7518L12.8698 77.7207C20.9697 75.0904 31.9505 77.7207 41.2194 83.7121L37.9001 88.7432C28.6312 82.7309 17.6296 80.1215 9.55057 82.7518Z" fill="#068584"/>
<path d="M37.9015 88.7641L41.2207 83.733C43.705 85.3405 46.064 87.1985 48.2142 89.2652L44.8949 94.2963C42.7446 92.2296 40.3857 90.3716 37.9015 88.7641Z" fill="#068786"/>
<path d="M44.8923 94.2754L48.2116 89.2443C49.5059 90.476 50.7167 91.7912 51.844 93.169C52.7834 94.3172 53.6184 95.4862 54.37 96.6553L51.0507 101.686C50.32 100.517 49.4641 99.3692 48.5247 98.2001C47.3974 96.8223 46.1866 95.5071 44.8923 94.2754Z" fill="#078A89"/>
<path d="M51.0305 101.686L54.3497 96.6552C58.1283 102.584 59.3391 108.45 58.0657 113.168L54.7464 118.199C56.0198 113.481 54.809 107.594 51.0305 101.686Z" fill="#078C8B"/>
<path d="M54.7478 118.22L58.0671 113.189C57.7123 114.504 57.1694 115.736 56.4388 116.842L53.1195 121.873C53.8502 120.767 54.3929 119.535 54.7478 118.22Z" fill="#078A89"/>
<path d="M59.4461 57.3252L56.6696 55.5091C57.2959 55.1333 57.9222 54.7575 58.5485 54.3609L61.325 56.1771C60.6987 56.5528 60.0515 56.9495 59.4461 57.3252Z" fill="#068584"/>
<path d="M59.4472 57.3254L56.6706 55.5301L56.6081 55.3422L59.3846 57.1584L59.4472 57.3254Z" fill="#ABC4C3"/>
<path d="M61.3287 56.1981L58.5522 54.3819C58.3434 53.693 58.1347 53.0041 57.905 52.2943L60.6816 54.1105C60.8903 54.8203 61.0991 55.5092 61.3287 56.1981Z" fill="#089292"/>
<path d="M60.8037 53.7974L58.0271 51.9812C58.7995 51.3758 59.4676 50.6869 59.9895 49.831L62.766 51.6472C62.2441 52.5031 61.5761 53.2129 60.8037 53.7974Z" fill="#068584"/>
<path d="M62.7667 51.6472L59.9902 49.831C59.9902 49.831 60.0737 49.6848 60.1154 49.6013L62.8919 51.4175C62.8919 51.4175 62.8085 51.5637 62.7667 51.6472Z" fill="#068786"/>
<path d="M60.6982 54.1106L57.9216 52.2944L58.0469 52.0021L60.8025 53.7974L60.6982 54.1106Z" fill="#078D8C"/>
<path d="M56.3765 59.1834L53.6 57.3672C54.2263 56.9915 54.8525 56.6157 55.4788 56.2191L58.2553 58.0352C57.629 58.411 57.0028 58.7868 56.3765 59.1834Z" fill="#068584"/>
<path d="M59.384 57.1582L56.6075 55.342C56.4196 54.7366 56.2526 54.1521 56.0856 53.5467L58.8621 55.3629C59.0291 55.9683 59.217 56.5528 59.384 57.1582Z" fill="#A3BFBE"/>
<path d="M58.5906 55.3003L55.8141 53.4841L56.0646 53.5467L58.8411 55.3629L58.5906 55.3003Z" fill="#068382"/>
<path d="M62.9073 51.4174L60.1308 49.6012C60.2561 49.3925 60.3605 49.1628 60.444 48.9541L63.2204 50.7703C63.1369 50.979 63.0326 51.2086 62.9073 51.4174Z" fill="#068786"/>
<path d="M63.2012 50.7703L60.4248 48.9541C60.5292 48.7245 60.5917 48.4948 60.6544 48.286L63.4309 50.1023C63.3683 50.3319 63.2847 50.5615 63.2012 50.7911" fill="#078A89"/>
<path d="M63.4308 50.0812L60.6543 48.265C60.7169 48.0563 60.7587 47.8684 60.7795 47.6805L63.5561 49.4967C63.5352 49.6846 63.4934 49.8934 63.4308 50.0812Z" fill="#078C8B"/>
<path d="M63.5568 49.4969L60.7803 47.6807C60.8011 47.472 60.8221 47.2841 60.8221 47.0753L63.5985 48.8915C63.5985 49.0794 63.5986 49.2882 63.5568 49.4969Z" fill="#078E8D"/>
<path d="M63.5977 48.8914L60.8213 47.0752C60.8213 46.8038 60.7794 46.5324 60.7168 46.2819L63.4933 48.0981C63.5559 48.3486 63.5977 48.62 63.5977 48.8914Z" fill="#07908F"/>
<path d="M63.4727 48.0981L60.6963 46.2819C60.6337 46.0732 60.571 45.8644 60.4666 45.6557C60.3205 45.3216 60.1118 45.0711 59.8613 44.8624L62.6378 46.6786C62.8883 46.8873 63.0761 47.1587 63.2431 47.4719C63.3475 47.6806 63.4101 47.8894 63.4727 48.0981Z" fill="#089292"/>
<path d="M58.2754 58.0351L55.4989 56.2189C55.311 55.5926 55.1231 54.9663 54.9144 54.3192C54.9144 54.2565 54.8726 54.2148 54.8726 54.173L57.6491 55.9892C57.6491 55.9892 57.67 56.0728 57.6909 56.1354L58.2754 58.0351Z" fill="#089292"/>
<path d="M57.6491 55.9892L54.8726 54.173C54.8726 54.173 54.8726 54.1313 54.8726 54.1104L57.6491 55.9266C57.6491 55.9266 57.6491 55.9684 57.6491 55.9892Z" fill="#07908F"/>
<path d="M57.6295 55.9475L54.853 54.1313L54.8739 54.1104L57.6295 55.9266V55.9475Z" fill="#078E8D"/>
<path d="M57.6282 55.9266L54.8726 54.1104L57.6282 55.9058V55.9266Z" fill="#078C8B"/>
<path d="M57.6282 55.9057L54.8726 54.1103V54.0894L57.6282 55.9057Z" fill="#078A89"/>
<path d="M57.6282 55.9057L54.8726 54.0894L57.6491 55.8848L57.6282 55.9057Z" fill="#068786"/>
<path d="M57.6491 55.8848L54.8726 54.0686C54.8726 54.0686 54.9144 54.0269 54.977 53.9851C55.0187 53.9851 55.0605 53.9434 55.1022 53.9016C55.2692 53.7972 55.4363 53.7137 55.5824 53.6094C55.6659 53.5676 55.7285 53.505 55.812 53.4632L58.5885 55.2794C58.5885 55.2794 58.4424 55.3838 58.3589 55.4256C58.2128 55.5299 58.0457 55.6134 57.8787 55.7178C57.8161 55.7596 57.7743 55.7805 57.7535 55.8013C57.6908 55.8431 57.67 55.864 57.6491 55.8848Z" fill="#068584"/>
<path d="M56.3766 59.1833L53.6 57.3671C53.4121 56.72 53.2034 56.0519 52.9946 55.4048C52.9737 55.3213 52.9529 55.2795 52.932 55.2586L55.7085 57.0749C55.7085 57.0749 55.7502 57.1375 55.7711 57.221C55.959 57.8681 56.1678 58.5362 56.3766 59.1833Z" fill="#A3BFBE"/>
<path d="M55.728 57.0749L52.9515 55.2795V55.2586L55.728 57.0749Z" fill="#9EBBBA"/>
<path d="M63.4737 48.0984L60.6973 46.2822C60.6347 46.0735 60.572 45.8647 60.4676 45.656C60.3215 45.322 60.1127 45.0714 59.8622 44.8627L62.6388 46.6789C62.8893 46.8876 63.0771 47.159 63.2441 47.4722C63.3485 47.6809 63.4111 47.8897 63.4737 48.0984Z" fill="#089292"/>
<path d="M62.6601 46.6787L59.8835 44.8626C59.8835 44.8626 59.7373 44.7582 59.6747 44.6955L62.4512 46.5118C62.4512 46.5118 62.5975 46.6161 62.6601 46.6787Z" fill="#07908F"/>
<path d="M57.8815 53.1918L55.105 51.3755C55.5017 51.125 55.9191 50.8536 56.2949 50.4987L59.0714 52.315C58.7165 52.649 58.299 52.9412 57.8815 53.1918Z" fill="#85A9A8"/>
<path d="M56.401 54.0687L53.6244 52.2525C53.8749 52.1272 54.1254 51.981 54.3759 51.8349C54.6264 51.6888 54.877 51.5218 55.1066 51.3756L57.8831 53.1919C57.6326 53.3589 57.3821 53.505 57.1525 53.6511C56.9019 53.7973 56.6515 53.9434 56.401 54.0687Z" fill="#85A9A8"/>
<path d="M56.062 54.1104L53.2855 52.2942C53.2855 52.2942 53.4734 52.3359 53.6195 52.2524L56.3961 54.0686C56.25 54.1521 56.1455 54.1521 56.062 54.1104Z" fill="#85A9A8"/>
<path d="M59.0485 52.3152L56.2721 50.499C56.4809 50.3111 56.6478 50.0815 56.7731 49.8727L59.5495 51.6889C59.4242 51.9185 59.2573 52.1273 59.0485 52.3152Z" fill="#85A9A8"/>
<path d="M59.5495 51.6889L56.7731 49.8727C56.8566 49.7475 56.9192 49.6222 56.9609 49.497L59.7375 51.3131C59.6748 51.4384 59.6121 51.5637 59.5495 51.6889Z" fill="#8AADAC"/>
<path d="M59.7381 51.3132L56.9616 49.497C57.0034 49.3926 57.0451 49.2674 57.0869 49.163L59.8634 50.9792C59.8425 51.0836 59.8008 51.2088 59.7381 51.3132Z" fill="#8FB0AF"/>
<path d="M59.8622 50.9584L57.0856 49.1422C57.1065 49.0169 57.1483 48.9126 57.1483 48.7873L59.9249 50.6035C59.9249 50.7079 59.883 50.8331 59.8622 50.9584Z" fill="#94B4B3"/>
<path d="M59.9266 50.6243L57.1501 48.8081C57.1501 48.6828 57.171 48.5576 57.171 48.4324L59.9474 50.2485C59.9474 50.3738 59.9474 50.4991 59.9474 50.6243" fill="#99B7B7"/>
<path d="M59.9472 50.2277L57.1708 48.4115C57.1708 48.2445 57.1499 48.0775 57.1081 47.9105L59.8846 49.7267C59.9264 49.8728 59.9472 50.0398 59.9472 50.2277Z" fill="#9EBBBA"/>
<path d="M59.8838 49.7474L57.1073 47.9312C57.0238 47.6181 56.8569 47.3467 56.6481 47.1588L59.4245 48.975C59.6541 49.1629 59.8003 49.4343 59.8838 49.7474Z" fill="#A3BFBE"/>
<path d="M59.4247 48.9751L56.6483 47.1589C56.6483 47.1589 56.5648 47.0963 56.5231 47.0546L59.2995 48.8708C59.2995 48.8708 59.383 48.9334 59.4247 48.9751Z" fill="#9EBBBA"/>
<path d="M57.8161 48.8914L55.0396 47.0752C55.5615 46.8664 56.0834 46.7829 56.5218 47.0752L59.2982 48.8914C58.8807 48.62 58.338 48.7035 57.8161 48.8914Z" fill="#068584"/>
<path d="M56.0663 54.1105L53.2898 52.2943L53.2689 52.2734L56.0454 54.0896L56.0663 54.1105Z" fill="#07908F"/>
<path d="M56.045 54.0895L53.2685 52.2733C53.2685 52.2733 53.2059 52.2107 53.185 52.1689C53.0806 51.9811 53.0389 51.7514 52.9554 51.5427L55.732 53.3589C55.8155 53.5676 55.8572 53.7972 55.9616 53.9851C55.9824 54.0269 56.0033 54.0478 56.045 54.0895Z" fill="#089292"/>
<path d="M51.8263 59.3504L49.0498 57.5342C49.0498 57.5342 49.1333 57.5342 49.2377 57.4507C50.4068 56.7409 51.5967 56.0311 52.7866 55.3005C52.891 55.2378 52.9327 55.217 52.9536 55.2378L55.7302 57.054C55.7302 57.054 55.6466 57.054 55.5631 57.1167C54.3941 57.8264 53.2041 58.5363 52.0142 59.2669C51.9098 59.3295 51.8472 59.3713 51.8263 59.3504Z" fill="#068584"/>
<path d="M60.3445 46.2402L57.5681 44.424C58.1109 44.2987 58.6327 44.2778 59.1129 44.424C59.3217 44.4866 59.5095 44.5701 59.6765 44.6953L62.453 46.5116C62.286 46.4072 62.0981 46.3028 61.8893 46.2402C61.4092 46.0731 60.9082 46.1149 60.3445 46.2402Z" fill="#85A9A8"/>
<path d="M59.5926 46.449L56.8161 44.6328C57.0666 44.5701 57.3172 44.4867 57.5677 44.424L60.3441 46.2402C60.0936 46.3029 59.8431 46.3864 59.5926 46.449Z" fill="#85A9A8"/>
<path d="M59.5926 46.449L56.8161 44.6328C56.9622 44.424 57.1293 44.2153 57.2754 44.0483L60.052 45.8645C59.9058 46.0315 59.7387 46.2403 59.5926 46.449Z" fill="#068584"/>
<path d="M57.8161 48.8914L55.0396 47.0752C55.5615 46.8664 56.0834 46.7829 56.5218 47.0752L59.2982 48.8914C58.8807 48.62 58.338 48.7035 57.8161 48.8914Z" fill="#068584"/>
<path d="M51.8234 59.3508L49.0469 57.5555L51.8025 59.3508H51.8234Z" fill="#9EBBBA"/>
<path d="M51.8047 59.3507L49.0281 57.5345C49.0281 57.5345 48.9864 57.4718 48.9655 57.3883C48.8194 56.8873 48.6732 56.4072 48.5062 55.927C48.5062 55.9061 48.5062 55.8644 48.4853 55.8435L51.2619 57.6597C51.2619 57.6597 51.2619 57.7015 51.2828 57.7432C51.4289 58.2442 51.575 58.7244 51.742 59.2045C51.7629 59.288 51.7838 59.3298 51.8047 59.3507Z" fill="#A3BFBE"/>
<path d="M51.2814 57.6598L48.5049 55.8436C48.5049 55.8436 48.5049 55.8018 48.5049 55.7809L51.2814 57.5971C51.2814 57.5971 51.2814 57.6389 51.2814 57.6598Z" fill="#9EBBBA"/>
<path d="M51.2619 57.597L48.4853 55.7808L48.5062 55.7599L51.2619 57.5761V57.597Z" fill="#99B7B7"/>
<path d="M51.2605 57.5761L48.5049 55.7599L51.2605 57.5552V57.5761Z" fill="#94B4B3"/>
<path d="M51.2605 57.5555L48.5049 55.7601V55.7393L51.2814 57.5555H51.2605Z" fill="#8FB0AF"/>
<path d="M51.2814 57.5555L48.5049 55.7393L51.2814 57.5346V57.5555Z" fill="#8AADAC"/>
<path d="M51.2814 57.5344L48.5049 55.7182C48.5049 55.7182 48.5675 55.6556 48.651 55.6139C48.9015 55.4677 49.1729 55.3007 49.4234 55.1337L52.1999 56.9499C51.9494 57.1169 51.6989 57.2839 51.4275 57.4301C51.344 57.4718 51.3023 57.5136 51.2814 57.5344Z" fill="#85A9A8"/>
<path d="M55.7277 53.3591L52.9512 51.5428C52.8468 51.188 52.7215 50.8122 52.6172 50.4364C52.4502 49.8937 52.2831 49.3718 52.137 48.8499L54.9135 50.6661C55.0805 51.188 55.2266 51.7099 55.3936 52.2527C55.498 52.6075 55.6233 52.9833 55.7277 53.3382" fill="#089292"/>
<path d="M54.979 50.499L52.2024 48.6828C52.4738 48.5366 52.7452 48.3696 53.0166 48.2026C53.2463 48.0565 53.4759 47.9104 53.7264 47.7642C53.8517 47.7016 53.9769 47.6181 54.0813 47.5555C54.3945 47.3885 54.7076 47.2214 55.0207 47.0753L57.7972 48.8915C57.4841 49.0377 57.1709 49.2047 56.8578 49.3717C56.7325 49.4343 56.6073 49.5178 56.5029 49.5804C56.2733 49.7266 56.0227 49.8727 55.7931 50.0188C55.5217 50.1858 55.2504 50.3528 54.979 50.499Z" fill="#068584"/>
<path d="M54.9155 50.6868L52.139 48.8706L52.2016 48.6827L54.9781 50.4989L54.9155 50.6868Z" fill="#078E8D"/>
<path d="M57.8173 48.8915C58.3392 48.6827 58.861 48.5992 59.2994 48.8915C60.218 49.476 60.2389 51.2087 59.0698 52.336C58.7149 52.67 58.2974 52.9623 57.8799 53.2128C57.6294 53.3798 57.3789 53.5259 57.1493 53.6721C56.8988 53.8182 56.6483 53.9643 56.3978 54.0896C56.189 54.194 56.0637 54.1731 55.9593 54.0061C55.855 53.8182 55.8132 53.5886 55.7297 53.3798C55.6254 53.0249 55.5 52.6491 55.3956 52.2943C55.2286 51.7515 55.0617 51.2296 54.9155 50.7077L54.9782 50.5198C55.2496 50.3737 55.5209 50.2067 55.7923 50.0397C56.0219 49.8935 56.2516 49.7474 56.5021 49.6013C56.6274 49.5387 56.7526 49.4551 56.857 49.3925C57.1701 49.2255 57.4833 49.0585 57.7964 48.9124L57.8173 48.8915Z" fill="#0BAEAD"/>
<path d="M60.074 45.8644L57.2976 44.0482C57.4646 43.8395 57.6106 43.6098 57.7359 43.4011L60.5124 45.2173C60.3872 45.4469 60.241 45.6557 60.074 45.8644Z" fill="#068584"/>
<path d="M60.5126 45.2173L57.7361 43.4011C57.8613 43.1714 57.9867 42.9418 58.0911 42.7122L60.8675 44.5284C60.7631 44.758 60.6587 44.9876 60.5126 45.2173Z" fill="#068786"/>
<path d="M60.8465 44.5284L58.0701 42.7122C58.1536 42.5243 58.2162 42.3364 58.2579 42.1485L61.0344 43.9648C60.9927 44.1526 60.93 44.3405 60.8465 44.5284Z" fill="#078A89"/>
<path d="M61.0341 43.9648L58.2576 42.1486C58.2576 42.1486 58.2994 41.9398 58.3203 41.8563C58.3203 41.7728 58.3621 41.6684 58.3621 41.5849L61.1385 43.4011C61.1385 43.4011 61.1177 43.589 61.0968 43.6725C61.0968 43.7769 61.055 43.8813 61.0341 43.9648Z" fill="#078C8B"/>
<path d="M61.1582 43.3802L58.3816 41.5639C58.4025 41.3552 58.4234 41.1673 58.4234 40.9794L61.2 42.7957C61.2 42.9835 61.1999 43.1923 61.1582 43.3802Z" fill="#078E8D"/>
<path d="M61.1805 42.7958L58.404 40.9796C58.404 40.729 58.3622 40.4994 58.2996 40.2906L61.0761 42.1069C61.1388 42.3156 61.1596 42.5453 61.1805 42.7958Z" fill="#07908F"/>
<path d="M61.0969 42.1068L58.3203 40.2906C58.216 39.8731 58.0072 39.4973 57.6941 39.1842L60.4705 41.0004C60.7628 41.3135 60.9716 41.6893 61.0969 42.1068Z" fill="#089292"/>
<path d="M60.4692 41.0004L57.6928 39.1842C57.6928 39.1842 57.5884 39.1007 57.5466 39.0589L60.323 40.8751C60.323 40.8751 60.4274 40.9586 60.4692 41.0004Z" fill="#089292"/>
<path d="M60.3231 40.8751L57.5467 39.0589C57.5467 39.0589 57.4006 38.9337 57.3171 38.8919L60.0935 40.7081C60.0935 40.7081 60.2396 40.8125 60.3231 40.8751Z" fill="#07908F"/>
<path d="M54.4565 48.474L51.6799 46.6578C52.0139 46.449 52.348 46.2612 52.682 46.0524L55.4585 47.8686C55.1245 48.0774 54.7905 48.2652 54.4565 48.474Z" fill="#85A9A8"/>
<path d="M55.4565 47.8896L52.68 46.0734C52.68 46.0734 52.847 45.969 52.9514 45.9272C53.4107 45.6559 53.8491 45.3427 54.2666 45.0087C54.5589 44.7582 54.7885 44.5077 54.9555 44.2154L57.7319 46.0316C57.5649 46.3239 57.3354 46.5744 57.0431 46.8249C56.6256 47.1589 56.1872 47.4721 55.7279 47.7434C55.6444 47.8061 55.5609 47.8478 55.4565 47.8896Z" fill="#85A9A8"/>
<path d="M57.7311 46.0107L54.9546 44.1945C54.9546 44.1945 55.059 44.0066 55.1008 43.9023L57.8772 45.7185C57.8772 45.7185 57.7937 45.9272 57.7311 46.0107Z" fill="#8AADAC"/>
<path d="M57.8785 45.7185L55.1021 43.9024C55.1021 43.9024 55.1647 43.7353 55.1856 43.6518L57.9621 45.468C57.9621 45.468 57.9203 45.635 57.8785 45.7185Z" fill="#8FB0AF"/>
<path d="M57.9616 45.4679L55.1851 43.6517C55.1851 43.6517 55.2268 43.4847 55.2268 43.4012L58.0033 45.2174C58.0033 45.2174 57.9825 45.3844 57.9616 45.4679Z" fill="#94B4B3"/>
<path d="M58.0036 45.1964L55.2271 43.3803C55.2271 43.3803 55.2271 43.1924 55.2271 43.088L58.0036 44.9042C58.0036 44.9042 58.0036 45.0921 58.0036 45.1964Z" fill="#99B7B7"/>
<path d="M58.0239 44.9043L55.2474 43.0881C55.2474 43.0881 55.2474 42.942 55.2474 42.8585C55.2474 42.775 55.2265 42.7124 55.2056 42.6288L57.9821 44.445C57.9821 44.445 58.0239 44.5912 58.0239 44.6747C58.0239 44.7582 58.0239 44.8208 58.0239 44.9043Z" fill="#9EBBBA"/>
<path d="M57.9605 44.4657L55.1839 42.6495C55.1213 42.3782 54.9751 42.1694 54.8081 42.0024L57.5846 43.8186C57.7725 43.9647 57.8978 44.1944 57.9605 44.4657Z" fill="#A3BFBE"/>
<path d="M57.587 43.8187L54.8105 42.0025C54.8105 42.0025 54.7479 41.9608 54.727 41.9399L57.5035 43.7561C57.5035 43.7561 57.5661 43.7978 57.587 43.8187Z" fill="#9EBBBA"/>
<path d="M54.4564 48.474L54.2267 48.4113C54.1015 47.9312 53.9345 47.4719 53.7884 46.9918C53.6422 46.5325 53.4961 46.0524 53.35 45.5722L53.4752 45.3008C53.8719 45.0503 54.2894 44.7998 54.686 44.5493C54.8948 44.4241 55.1036 44.2988 55.3123 44.1735C55.7507 43.923 56.21 43.6934 56.6484 43.589C57.3999 43.4429 57.88 43.9022 57.9844 44.6537C58.0888 45.4261 57.7339 46.1776 57.0033 46.783C56.5858 47.117 56.1473 47.4302 55.6881 47.7016C55.6046 47.7642 55.5211 47.806 55.4167 47.8477C55.0827 48.0565 54.7487 48.2443 54.4147 48.4531L54.4564 48.474Z" fill="#0BAEAD"/>
<path d="M54.2269 48.4113L51.4504 46.5951L51.68 46.6786L54.4566 48.4739L54.2269 48.4113Z" fill="#80A6A5"/>
<path d="M56.8599 40.8334L54.0834 39.0172C54.9811 38.5997 55.837 38.4118 56.6929 38.5997C56.9225 38.6623 57.1521 38.7458 57.34 38.8711L60.1165 40.6873C59.9287 40.562 59.7199 40.4576 59.4694 40.4159C58.6344 40.228 57.7576 40.4159 56.8599 40.8334Z" fill="#85A9A8"/>
<path d="M56.6066 40.75L53.851 38.9547L54.0807 39.0382L56.8571 40.8335L56.6066 40.75Z" fill="#80A6A5"/>
<path d="M54.2277 48.4113L51.4512 46.5951C51.3259 46.115 51.1589 45.6557 51.0128 45.1756C50.8667 44.7163 50.7205 44.2362 50.5744 43.756L53.3509 45.5722C53.497 46.0524 53.6431 46.5116 53.7893 46.9918C53.9354 47.4719 54.1024 47.9312 54.2277 48.4113Z" fill="#089292"/>
<path d="M53.3505 45.5931L50.5949 43.7769L50.7201 43.5055L53.4967 45.3217L53.3505 45.5931Z" fill="#078C8B"/>
<path d="M53.4954 45.3215L50.7189 43.5053C51.1156 43.2548 51.5331 43.0043 51.9298 42.7538C52.1385 42.6285 52.3472 42.5033 52.556 42.378C52.9944 42.1275 53.4537 41.8979 53.8921 41.7935C54.2261 41.7309 54.4975 41.7935 54.7271 41.9187L57.5036 43.735C57.2948 43.5888 57.0025 43.5471 56.6685 43.6097C56.2092 43.7141 55.7709 43.9437 55.3325 44.1942C55.1237 44.3195 54.915 44.4447 54.7062 44.57C54.2887 44.8205 53.8921 45.071 53.4954 45.3215Z" fill="#068584"/>
<path d="M53.5175 42.5243L50.7619 40.7081L50.9915 40.7707L53.768 42.5869L53.5175 42.5243Z" fill="#80A6A5"/>
<path d="M56.6092 40.7501L53.8327 38.9339C53.6448 38.3076 53.4569 37.6813 53.269 37.0759C53.2482 36.9924 53.2273 36.9298 53.2064 36.9089L55.983 38.7251C55.983 38.7251 56.0246 38.7877 56.0455 38.8921C56.2334 39.4975 56.4213 40.1238 56.6092 40.7501Z" fill="#089292"/>
<path d="M55.983 38.7458L53.2064 36.9295L55.983 38.7249V38.7458Z" fill="#07908F"/>
<path d="M52.1809 56.9494L49.4044 55.1332C49.5505 55.0288 49.6758 54.9245 49.7384 54.7992L52.5149 56.6154C52.4523 56.7406 52.327 56.845 52.1809 56.9494Z" fill="#85A9A8"/>
<path d="M52.5139 56.6154L49.7374 54.7992C49.7374 54.7992 49.7792 54.7366 49.7792 54.6948L52.5557 56.511C52.5557 56.511 52.5348 56.5736 52.5139 56.6154Z" fill="#8AADAC"/>
<path d="M52.5764 56.5109L49.7999 54.6947C49.7999 54.6947 49.8208 54.6321 49.8208 54.6112L52.5973 56.4274C52.5973 56.4274 52.5973 56.49 52.5764 56.5109Z" fill="#8FB0AF"/>
<path d="M52.5959 56.4275L49.8194 54.6113C49.8194 54.6113 49.8194 54.5487 49.8194 54.5278L52.5959 56.344C52.5959 56.344 52.5959 56.4067 52.5959 56.4275Z" fill="#94B4B3"/>
<path d="M52.6193 56.344L49.8429 54.5278C49.8429 54.5278 49.8429 54.4443 49.8429 54.4026L52.6193 56.2188C52.6193 56.2188 52.6193 56.3023 52.6193 56.344Z" fill="#99B7B7"/>
<path d="M52.6185 56.2188L49.842 54.4026C49.842 54.4026 49.842 54.2773 49.8211 54.2147C49.8211 54.152 49.8003 54.0894 49.7794 54.0477L52.5559 55.8639C52.5559 55.8639 52.5767 55.9891 52.5976 56.0309C52.5976 56.0935 52.6185 56.1561 52.6185 56.2188Z" fill="#9EBBBA"/>
<path d="M52.5556 55.8429L49.7791 54.0267C49.7373 53.8597 49.6747 53.6927 49.6329 53.5257C48.9232 51.1876 48.2134 48.8286 47.4827 46.4905C47.4201 46.2817 47.3575 46.073 47.274 45.8851C47.2322 45.8016 47.1904 45.7181 47.1278 45.6763L49.9043 47.4926C49.9043 47.4926 50.0087 47.6178 50.0504 47.7013C50.1339 47.8892 50.1966 48.098 50.2592 48.3067C50.9899 50.6448 51.6996 52.9829 52.4094 55.3419C52.4512 55.5089 52.5138 55.655 52.5556 55.8429Z" fill="#A3BFBE"/>
<path d="M49.905 47.5135L47.1285 45.6973C47.1285 45.6973 47.1077 45.6764 47.0868 45.6555L49.8633 47.4717C49.8633 47.4717 49.8842 47.4717 49.905 47.4926" fill="#9EBBBA"/>
<path d="M49.3193 47.4929L46.5428 45.6767C46.7724 45.5723 46.9604 45.5723 47.1065 45.6767L49.883 47.4929C49.7368 47.3885 49.549 47.4094 49.3193 47.4929Z" fill="#068584"/>
<path d="M53.7669 42.5871L50.9904 40.7709C50.9904 40.7709 51.1783 40.6457 51.2618 40.6039C51.4288 40.4995 51.6167 40.3951 51.8046 40.2907C51.8881 40.249 51.9298 40.2073 51.9507 40.1864L54.7272 42.0026C54.7272 42.0026 54.6646 42.0652 54.5811 42.107C54.3932 42.2114 54.2262 42.3157 54.0383 42.4201C53.9548 42.4827 53.8713 42.5245 53.7669 42.5871Z" fill="#85A9A8"/>
<path d="M54.7064 42.0026L51.9299 40.1864L54.7064 41.9817V42.0026Z" fill="#8AADAC"/>
<path d="M54.7064 41.9818L51.9299 40.1865L51.9508 40.1656L54.7064 41.9818Z" fill="#8FB0AF"/>
<path d="M54.7061 41.9818L51.9505 40.1656L54.7061 41.9609V41.9818Z" fill="#94B4B3"/>
<path d="M54.7061 41.9608L51.9505 40.1655V40.1446L54.727 41.94L54.7061 41.9608Z" fill="#99B7B7"/>
<path d="M54.727 41.94L51.9505 40.1238C51.9505 40.1238 51.9505 40.082 51.9505 40.0611L54.727 41.8774C54.727 41.8774 54.727 41.9191 54.727 41.94Z" fill="#9EBBBA"/>
<path d="M54.7069 41.8773L51.9304 40.0611C51.9304 40.0611 51.9304 40.0194 51.9095 39.9776L51.3668 38.224C51.3668 38.224 51.3668 38.1614 51.3459 38.1405L54.1224 39.9567C54.1224 39.9567 54.1224 40.0194 54.1433 40.0402L54.686 41.7938C54.686 41.7938 54.686 41.8564 54.7069 41.8773Z" fill="#A3BFBE"/>
<path d="M54.1224 39.9568L51.3459 38.1406C51.3459 38.1406 51.3459 38.0779 51.3459 38.0571L54.1224 39.8733C54.1224 39.8733 54.1224 39.915 54.1224 39.9568Z" fill="#9EBBBA"/>
<path d="M54.1015 39.8941L51.3459 38.0779V38.0571L54.1015 39.8733V39.8941Z" fill="#99B7B7"/>
<path d="M54.1015 39.8733L51.3459 38.0571L54.1224 39.8524L54.1015 39.8733Z" fill="#94B4B3"/>
<path d="M54.1224 39.8524L51.3459 38.0571V38.0362L54.1224 39.8524Z" fill="#8FB0AF"/>
<path d="M54.1224 39.8523L51.3459 38.0361V38.0152L54.1224 39.8314V39.8523Z" fill="#8AADAC"/>
<path d="M54.1224 39.8315L51.3459 38.0153C51.3459 38.0153 51.4294 37.9318 51.5338 37.8692C52.0139 37.5769 52.4941 37.2846 52.9742 36.9923C53.0995 36.9297 53.1412 36.888 53.1829 36.9088L55.9595 38.725C55.9595 38.725 55.876 38.7251 55.7508 38.8086C55.2706 39.1008 54.7904 39.3931 54.3103 39.6853C54.2059 39.748 54.1433 39.7897 54.1224 39.8315Z" fill="#85A9A8"/>
<path d="M48.5057 47.973L45.7293 46.1568C45.8336 46.0733 45.9589 46.0107 46.0633 45.948C46.2303 45.8437 46.3764 45.7601 46.5434 45.6766L49.3199 47.4929C49.1529 47.5764 48.9859 47.6599 48.8397 47.7642C48.7354 47.8269 48.6101 47.9104 48.5057 47.973Z" fill="#068584"/>
<path d="M53.5157 42.5243L50.7392 40.7081C50.5722 40.1027 50.3634 39.4973 50.1964 38.8919L52.9729 40.7081C53.14 41.3135 53.3487 41.9189 53.5157 42.5243Z" fill="#089292"/>
<path d="M63.2475 47.472C63.832 48.6619 63.6651 49.9979 62.8927 51.4175C62.3708 52.3987 61.6401 53.1502 60.8051 53.7974L60.6798 54.1105C60.8886 54.8203 61.0973 55.5092 61.327 56.1981C60.7007 56.5739 60.0535 56.9705 59.4481 57.3463L59.3855 57.1793C59.1976 56.5739 59.0306 55.9893 58.8636 55.3839L58.6131 55.3213C58.6131 55.3213 58.4669 55.4257 58.3834 55.4674C58.2373 55.5718 58.0703 55.6553 57.9033 55.7597C57.8407 55.8014 57.7989 55.8223 57.778 55.8432C57.611 55.9476 57.6318 55.9476 57.7153 56.1772L58.2999 58.0769C57.6737 58.4527 57.0473 58.8285 56.421 59.2251C56.2332 58.5779 56.0245 57.9099 55.8157 57.2628C55.7739 57.1375 55.6904 57.1097 55.5652 57.1793C54.3961 57.8891 53.2062 58.5988 52.0163 59.3295C51.891 59.413 51.8075 59.3851 51.7658 59.246C51.6196 58.7449 51.4735 58.2648 51.3065 57.7847C51.2439 57.5968 51.2439 57.5968 51.4317 57.4715C51.6822 57.3254 51.9536 57.1584 52.2041 56.9914C52.5799 56.7409 52.7052 56.4486 52.6217 56.0728C52.5591 55.8432 52.4964 55.6136 52.4338 55.4048C51.724 53.0667 51.0142 50.7077 50.2836 48.3696C50.221 48.1609 50.1583 47.9521 50.0748 47.7642C49.9496 47.4511 49.6782 47.3676 49.3233 47.5346C49.1563 47.6181 48.9893 47.7016 48.8431 47.806C48.7388 47.8686 48.6135 47.9521 48.5091 48.0147L48.3003 47.9521C48.1542 47.4302 48.0081 46.9292 47.8202 46.4073L47.9455 46.1568C49.1354 45.447 50.3044 44.7372 51.4944 44.0065C51.6196 43.923 51.6614 43.8117 51.6196 43.6726C51.4317 43.088 51.2648 42.5035 51.0769 41.8981L51.2021 41.6058C51.5361 41.3971 51.891 41.2092 52.225 41.0004C52.392 40.8961 52.559 40.7917 52.726 40.6873L52.9557 40.7499C53.1227 41.3553 53.3315 41.9607 53.4985 42.5661L53.7281 42.6288C53.7281 42.6288 53.8951 42.5035 53.9995 42.4617C54.1665 42.3574 54.3544 42.253 54.5423 42.1486C54.6675 42.079 54.7093 41.9816 54.6675 41.8563L54.1247 40.1028C54.083 39.9497 54.1386 39.8244 54.2917 39.727C54.7719 39.4347 55.2521 39.1425 55.7322 38.8502C55.8714 38.7667 55.9619 38.7945 56.0036 38.9337C56.1915 39.5391 56.3793 40.1654 56.5672 40.7917L56.8177 40.8752C57.7154 40.4576 58.5713 40.2698 59.4272 40.4576C59.8238 40.562 60.1579 40.7499 60.4502 41.0422C61.0765 41.6893 61.3061 42.587 61.0765 43.6934C60.9303 44.4867 60.5546 45.1965 60.0327 45.8854C59.8865 46.0524 59.7195 46.2612 59.5733 46.4699C59.8238 46.4073 60.0743 46.3238 60.3248 46.2611C60.8676 46.1359 61.3896 46.115 61.8698 46.2611C62.4752 46.4699 62.9344 46.8666 63.2475 47.472ZM59.0514 52.3152C60.2205 51.1879 60.1996 49.4552 59.281 48.8706C58.8635 48.5992 58.3208 48.6828 57.7989 48.8706C57.4858 49.0168 57.1726 49.1838 56.8595 49.3508C56.7342 49.4134 56.609 49.4969 56.5046 49.5595C56.275 49.7057 56.0244 49.8518 55.7948 49.998C55.5234 50.165 55.2521 50.332 54.9807 50.4781L54.918 50.666C55.0851 51.1879 55.2311 51.7098 55.3981 52.2526C55.5025 52.6074 55.6279 52.9832 55.7322 53.3381C55.8157 53.5468 55.8575 53.7765 55.9618 53.9644C56.0662 54.1314 56.1706 54.1523 56.4003 54.0479C56.6508 53.9226 56.9013 53.7765 57.1518 53.6303C57.4023 53.4842 57.6528 53.3172 57.8824 53.1711C58.279 52.9206 58.6966 52.6492 59.0723 52.2943L59.0514 52.3152ZM53.8116 46.971C53.9578 47.4511 54.1247 47.9104 54.25 48.3905L54.4797 48.4531C54.8137 48.2444 55.1477 48.0565 55.4817 47.8477C55.5652 47.806 55.6488 47.7433 55.7531 47.7016C56.2124 47.4302 56.6507 47.1171 57.0682 46.783C57.7989 46.1776 58.1538 45.4261 58.0494 44.6537C57.9451 43.9231 57.4649 43.4429 56.7133 43.589C56.2541 43.6934 55.8157 43.923 55.3773 44.1736C55.1686 44.2988 54.9598 44.4241 54.751 44.5493C54.3335 44.7998 53.9369 45.0504 53.5402 45.3009L53.415 45.5722C53.5611 46.0524 53.7072 46.5117 53.8534 46.9918" fill="#E2EBEA"/>
<path d="M48.2763 47.9104L45.4997 46.0942L45.7294 46.1568L48.5059 47.973L48.2763 47.9104Z" fill="#068382"/>
<path d="M52.745 40.6247L49.9894 38.8294L50.219 38.892L52.9955 40.7083L52.745 40.6247Z" fill="#80A6A5"/>
<path d="M51.0977 41.8563L48.3213 40.0401L48.4465 39.7479L51.223 41.5641L51.0977 41.8563Z" fill="#95B5B4"/>
<path d="M51.2188 41.5642L48.4424 39.748C48.7764 39.5393 49.1312 39.3514 49.4653 39.1426C49.6323 39.0382 49.7993 38.9339 49.9663 38.8295L52.7428 40.6457C52.5758 40.75 52.4088 40.8544 52.2418 40.9588C51.9078 41.1676 51.5528 41.3555 51.2188 41.5642Z" fill="#85A9A8"/>
<path d="M48.2778 47.9106L45.5013 46.0943C45.3552 45.5724 45.2091 45.0714 45.0212 44.5495L47.7977 46.3657C47.9647 46.8876 48.1317 47.3887 48.2778 47.9106Z" fill="#A3BFBE"/>
<path d="M47.9432 46.0941L45.1667 44.2779C46.3566 43.5681 47.5257 42.8583 48.7156 42.1276C48.7991 42.065 48.8617 42.0441 48.8826 42.0024L51.6592 43.8186C51.6592 43.8186 51.5965 43.8812 51.4921 43.9438C50.3022 44.6536 49.1332 45.3634 47.9432 46.0941Z" fill="#85A9A8"/>
<path d="M51.6594 43.8396L48.8828 42.0234L51.6594 43.8187V43.8396Z" fill="#8AADAC"/>
<path d="M51.6594 43.8186L48.8828 42.0233L48.9037 42.0024L51.6594 43.8186Z" fill="#8FB0AF"/>
<path d="M51.659 43.8186L48.9033 42.0024L51.659 43.7977V43.8186Z" fill="#94B4B3"/>
<path d="M51.659 43.7977L48.9033 42.0024V41.9815L51.6798 43.7768L51.659 43.7977Z" fill="#99B7B7"/>
<path d="M51.6798 43.7769L48.9033 41.9607C48.9033 41.9607 48.9033 41.919 48.9033 41.8981L51.6798 43.7143C51.6798 43.7143 51.6798 43.756 51.6798 43.7769Z" fill="#9EBBBA"/>
<path d="M51.6585 43.7142L48.882 41.898C48.882 41.898 48.882 41.8354 48.8611 41.8145C48.6732 41.23 48.5062 40.6455 48.3183 40.0401L51.0948 41.8563C51.2827 42.4617 51.4497 43.0462 51.6376 43.6307C51.6376 43.6725 51.6376 43.6934 51.6585 43.7142Z" fill="#A3BFBE"/>
<path d="M47.8182 46.3654L45.0417 44.5493L45.167 44.2987L47.9435 46.0941L47.8182 46.3654Z" fill="#92B3B2"/>
<path d="M51.2843 32.9423L48.5078 31.1261C54.2278 27.6815 60.1565 27.598 64.3734 30.3537L67.15 32.1699C62.933 29.4142 57.0043 29.4769 51.2843 32.9423Z" fill="#068584"/>
<path d="M45.2073 65.6968L42.4308 63.8806C42.0341 63.6092 41.6375 63.3379 41.2826 63.0247L44.0591 64.8409C44.4348 65.1541 44.8107 65.4463 45.2073 65.6968Z" fill="#07908F"/>
<path d="M44.058 64.8409L41.2816 63.0246C39.5071 61.5216 38.1293 59.434 37.336 56.8245C37.2734 56.6366 37.2316 56.4487 37.169 56.2609L39.9455 58.0771C39.9872 58.2649 40.0499 58.4528 40.1125 58.6407C40.9058 61.2502 42.2836 63.3378 44.058 64.8409Z" fill="#089292"/>
<path d="M39.9466 58.0769L37.1701 56.2607C36.8153 54.9455 36.6482 53.5886 36.6065 52.2108L39.383 54.027C39.4247 55.4048 39.5917 56.7617 39.9466 58.0769Z" fill="#07908F"/>
<path d="M39.3821 54.0271L36.6055 52.2109C36.5846 51.1671 36.6473 50.1234 36.7726 49.0587L39.549 50.8749C39.4029 51.9396 39.3403 52.9833 39.3821 54.0271Z" fill="#078E8D"/>
<path d="M39.549 50.8748L36.7725 49.0586C36.8977 48.0774 37.1065 47.0963 37.357 46.1151L40.1335 47.9313C39.8621 48.9125 39.6742 49.8936 39.549 50.8748Z" fill="#078C8B"/>
<path d="M40.134 47.9313L37.3575 46.1151C37.6289 45.1131 37.9629 44.0902 38.3804 43.109L41.1569 44.9252C40.7603 45.9064 40.4053 46.9084 40.134 47.9313Z" fill="#078A89"/>
<path d="M41.1566 44.9252L38.38 43.109C38.8602 41.9609 39.403 40.8335 40.0501 39.7689L42.8266 41.5851C42.1795 42.6707 41.6367 43.7771 41.1566 44.9252Z" fill="#068786"/>
<path d="M42.8275 41.585L40.0511 39.7688C42.1178 36.2825 44.9986 33.2346 48.5058 31.1262L51.2823 32.9424C47.796 35.0508 44.8943 38.1196 42.8484 41.585" fill="#068584"/>
<path d="M51.2836 32.9422C60.1559 27.5771 69.55 30.3954 72.2639 39.2259C74.9778 48.0564 69.9467 59.5799 61.0744 64.945C52.2022 70.2892 42.8289 67.4919 40.115 58.6405C37.4011 49.7891 42.4322 38.2865 51.2836 32.9213V32.9422ZM62.9115 51.4174C63.6839 49.9978 63.83 48.6618 63.2664 47.4719C62.9741 46.8456 62.5148 46.4489 61.8885 46.2611C61.4084 46.094 60.9074 46.1358 60.3437 46.2611C60.0932 46.3237 59.8427 46.4072 59.5922 46.4698C59.7383 46.2611 59.9054 46.0523 60.0515 45.8853C60.5734 45.1964 60.9492 44.4657 61.0953 43.6933C61.3041 42.5869 61.0952 41.6892 60.469 41.0421C60.1976 40.7707 59.8636 40.5619 59.4461 40.4575C58.611 40.2697 57.7342 40.4575 56.8366 40.8751L56.5861 40.7916C56.3982 40.1653 56.2103 39.539 56.0224 38.9336C55.9806 38.7944 55.8903 38.7666 55.7511 38.8501C55.271 39.1424 54.7907 39.4346 54.3106 39.7269C54.1436 39.8243 54.088 39.9496 54.1436 40.1027L54.6864 41.8562C54.7281 41.9815 54.6864 42.0789 54.5611 42.1485C54.3732 42.2529 54.2063 42.3573 54.0184 42.4617C53.9349 42.5243 53.8514 42.566 53.747 42.6287L53.5173 42.566C53.3503 41.9606 53.1416 41.3552 52.9746 40.7498L52.7449 40.6872C52.5779 40.7916 52.4109 40.896 52.2439 41.0003C51.9099 41.2091 51.555 41.397 51.2209 41.6057L51.0957 41.898C51.2836 42.5034 51.4506 43.0879 51.6385 43.6725C51.6802 43.8116 51.6385 43.9229 51.5132 44.0064C50.3233 44.7162 49.1542 45.426 47.9643 46.1567L47.8391 46.4072C48.0061 46.9291 48.1731 47.4301 48.3192 47.952L48.528 48.0147C48.6324 47.9311 48.7576 47.8685 48.862 47.8059C49.029 47.7015 49.1751 47.618 49.3421 47.5345C49.6761 47.3675 49.9684 47.451 50.0937 47.7641C50.1772 47.952 50.2398 48.1608 50.3025 48.3695C51.0331 50.7076 51.7429 53.0457 52.4527 55.4047C52.5153 55.6135 52.5779 55.8431 52.6406 56.0727C52.7241 56.4485 52.5988 56.7408 52.223 56.9913C51.9725 57.1583 51.722 57.3253 51.4506 57.4714C51.2627 57.5758 51.2836 57.5967 51.3254 57.7846C51.4715 58.2856 51.6176 58.7657 51.7846 59.2459C51.8264 59.3711 51.9099 59.399 52.0351 59.3294C53.2042 58.6196 54.3941 57.9098 55.5841 57.1792C55.7093 57.1096 55.7928 57.1374 55.8346 57.2627C56.0224 57.9098 56.2312 58.5779 56.4399 59.225C57.0662 58.8492 57.6925 58.4735 58.3188 58.0768L57.7342 56.1771C57.6716 55.9475 57.6299 55.9266 57.7969 55.8431C57.8387 55.8431 57.8804 55.8014 57.9222 55.7596C58.0892 55.6552 58.2561 55.5717 58.4023 55.4673C58.4858 55.4256 58.5484 55.363 58.6319 55.3212L58.8825 55.3838C59.0495 55.9893 59.2374 56.5738 59.4044 57.1792L59.467 57.3462C60.0932 56.9704 60.7196 56.5946 61.3458 56.198C61.1371 55.5091 60.9283 54.8202 60.6987 54.1104L60.8239 53.7973C61.659 53.1501 62.3896 52.3777 62.9115 51.4174Z" fill="#0BAEAD"/>
<path d="M6.75738 13.1101C6.75738 5.86613 12.6235 0 19.8675 0C27.1114 0 32.9775 5.86613 32.9775 13.1101C32.9775 20.354 27.1114 26.2201 19.8675 26.2201C12.6235 26.2201 6.75738 20.354 6.75738 13.1101Z" fill="#0CBABA"/>
<path d="M17.8632 20.2705C17.8632 19.7278 17.8632 19.2058 17.8632 18.6631C17.8632 18.5169 17.8631 18.517 17.717 18.517C16.7567 18.517 15.7964 18.517 14.8361 18.517C14.6691 18.517 14.6691 18.517 14.6691 18.3499C14.6691 17.9533 14.6691 17.5567 14.6691 17.1391C14.6691 16.993 14.6692 16.993 14.8153 16.993C15.0241 16.993 15.2328 16.993 15.4415 16.993C15.7338 16.9721 15.88 16.826 15.9217 16.5129C15.9217 16.325 15.9217 16.158 15.9217 15.9701C15.9217 14.0495 15.9217 12.1289 15.9217 10.2084C15.9217 10.0413 15.9217 9.87433 15.9217 9.70732C15.9217 9.43593 15.7338 9.26892 15.4624 9.24805C15.2328 9.22717 15.024 9.22717 14.7944 9.24805C14.69 9.24805 14.6691 9.2063 14.6691 9.12279C14.6691 8.70528 14.6691 8.28775 14.6691 7.87023C14.6691 7.76585 14.7109 7.74498 14.8153 7.74498C15.7756 7.74498 16.7358 7.74498 17.717 7.74498C17.884 7.74498 17.8841 7.74497 17.8841 7.57797C17.8841 7.09782 17.8841 6.61768 17.8841 6.11666C17.8841 6.01228 17.9258 5.97051 18.0301 5.97051C18.4477 5.97051 18.8652 5.97051 19.2827 5.97051C19.408 5.97051 19.4289 6.01228 19.4289 6.11666C19.4289 6.61768 19.4289 7.09784 19.4289 7.59886C19.4289 7.70324 19.4706 7.74498 19.575 7.74498C19.7838 7.74498 20.0134 7.74498 20.2221 7.74498C20.3683 7.74498 20.3682 7.74499 20.3682 7.59886C20.3682 7.11872 20.3682 6.63856 20.3682 6.15842C20.3682 6.03316 20.4309 5.97051 20.5562 5.97051C20.9528 5.97051 21.3495 5.97051 21.7252 5.97051C21.8922 5.97051 21.8922 5.97051 21.8922 6.13752C21.8922 6.63854 21.8922 7.16047 21.8922 7.66149C21.8922 7.76587 21.934 7.80762 22.0383 7.8285C22.7481 7.912 23.3744 8.14162 23.9172 8.62176C24.1677 8.8514 24.3764 9.1228 24.5017 9.45682C24.7939 10.1666 24.7522 10.8764 24.3764 11.5444C24.105 12.0246 23.6875 12.3794 23.2074 12.6299C23.0613 12.6926 22.9151 12.7552 22.769 12.8387C22.9569 12.9013 23.1447 12.964 23.3117 13.0266C23.7084 13.1727 24.0842 13.3606 24.3764 13.6737C24.7522 14.0704 24.9818 14.5296 25.0653 15.0724C25.2114 16.1371 24.8148 16.993 24.0007 17.661C23.437 18.1203 22.769 18.3291 22.0592 18.4334C21.9549 18.4334 21.9131 18.4752 21.9131 18.6004C21.9131 19.1641 21.9131 19.7278 21.9131 20.3123H20.3891C20.3891 20.3123 20.3891 20.2079 20.3891 20.1661C20.3891 19.686 20.3891 19.185 20.3891 18.7048C20.3891 18.5796 20.3474 18.5587 20.243 18.5587C20.0551 18.5587 19.8463 18.5587 19.6585 18.5587C19.4288 18.5587 19.4497 18.5378 19.4497 18.7675C19.4497 19.2894 19.4497 19.7904 19.4497 20.3123H17.9258L17.8632 20.2705ZM18.6356 15.0724C18.6356 15.3647 18.6356 15.6778 18.6356 15.9701C18.6356 16.1371 18.6356 16.325 18.6565 16.492C18.6982 16.659 18.7608 16.7216 18.9279 16.7216C19.3245 16.7634 19.742 16.7425 20.1386 16.7216C20.4726 16.7216 20.8067 16.7008 21.1407 16.5964C22.1845 16.3041 22.5393 15.0933 22.0174 14.3C21.7878 13.9242 21.3912 13.7781 20.9945 13.7155C20.744 13.6737 20.4935 13.6737 20.2639 13.6529C19.742 13.632 19.241 13.6529 18.7191 13.6529C18.6565 13.6529 18.6356 13.6737 18.6356 13.7364C18.6356 14.1747 18.6356 14.6132 18.6356 15.0307V15.0724ZM18.6356 10.772C18.6356 11.1477 18.6356 11.5444 18.6356 11.9202C18.6356 12.0454 18.6773 12.0663 18.7817 12.0663C19.0531 12.0663 19.3244 12.0663 19.5958 12.0663C20.0342 12.0663 20.4726 12.0663 20.911 11.9828C21.5373 11.8784 21.9548 11.5027 22.0383 10.9181C22.1218 10.3545 21.8922 9.83256 21.3494 9.6238C21.0154 9.49854 20.6605 9.47769 20.2848 9.45682C19.7838 9.45682 19.2827 9.45682 18.7817 9.45682C18.6773 9.45682 18.6356 9.49855 18.6356 9.60293C18.6356 9.9787 18.6356 10.3753 18.6356 10.7511V10.772Z" fill="white"/>
</svg>
