<svg width="24" height="25" viewBox="0 0 24 25" fill="none" xmlns="http://www.w3.org/2000/svg">
<path d="M0 7.4162V24.8824H24V7.4162H0ZM12.2666 18.8801L9.59998 16.1077L12.2666 13.3353L14.9333 16.1077L12.2666 18.8801Z" fill="#8981EF"/>
<path d="M0 10.2025V7.41619L18 0V10.2025H0Z" fill="#291CCB"/>
<path d="M12.2665 10.2025C11.132 10.2025 10.023 10.5525 9.07985 11.2081C8.13672 11.8636 7.40191 12.7954 6.96836 13.8854C6.53481 14.9753 6.42204 16.1745 6.64435 17.3312C6.86665 18.4878 7.41403 19.5499 8.21718 20.3829C9.02034 21.216 10.0432 21.7826 11.1562 22.011C12.2692 22.2395 13.4224 22.1194 14.4698 21.6662C15.5172 21.2129 16.4117 20.4467 17.0401 19.4647C17.6685 18.4826 18.0025 17.3288 17.9999 16.1493C17.9999 15.3672 17.8515 14.5928 17.5632 13.8704C17.2749 13.148 16.8524 12.4918 16.3198 11.9394C15.7872 11.387 15.1551 10.9493 14.4596 10.6512C13.7641 10.3532 13.0188 10.2007 12.2665 10.2025ZM12.2665 18.8802L9.59983 16.1078L12.2665 13.3353L14.9332 16.1078L12.2665 18.8802Z" fill="#291CCB"/>
</svg>
