<svg width="18" height="20" viewBox="0 0 18 20" fill="none" xmlns="http://www.w3.org/2000/svg">
<path d="M0.947351 19.6983C0.696098 19.6983 0.455135 19.5946 0.277473 19.4098C0.0998101 19.2251 0 18.9746 0 18.7134V0.984916C0 0.7237 0.0998101 0.473183 0.277473 0.288475C0.455135 0.103768 0.696098 0 0.947351 0H14.2103C14.4615 0 14.7025 0.103768 14.8801 0.288475C15.0578 0.473183 15.1576 0.7237 15.1576 0.984916V3.93966H13.2629V1.96983H1.8947V17.7285H13.2629V15.7587H15.1576V18.7134C15.1576 18.9746 15.0578 19.2251 14.8801 19.4098C14.7025 19.5946 14.4615 19.6983 14.2103 19.6983H0.947351ZM13.2629 13.7888V10.8341H6.63145V8.86424H13.2629V5.9095L17.9997 9.84916L13.2629 13.7888Z" fill="#9199B1"/>
</svg>
