<svg width="10" height="10" viewBox="0 0 10 10" fill="none" xmlns="http://www.w3.org/2000/svg">
<path d="M7.70807 4.58335C7.61063 4.58335 7.51318 4.54744 7.43626 4.47051C7.28754 4.32179 7.28754 4.07564 7.43626 3.92692L9.07216 2.29103L7.43626 0.655127C7.28754 0.506409 7.28754 0.260256 7.43626 0.111538C7.58498 -0.0371795 7.83113 -0.0371795 7.97985 0.111538L9.88755 2.01925C9.95935 2.09104 10.0004 2.18846 10.0004 2.29103C10.0004 2.39359 9.95935 2.49104 9.88755 2.56284L7.97985 4.47051C7.90292 4.54231 7.8055 4.58335 7.70807 4.58335Z" fill="#292D32"/>
<path d="M9.61539 2.67566H0.384615C0.174359 2.67566 0 2.5013 0 2.29104C0 2.08078 0.174359 1.90643 0.384615 1.90643H9.61539C9.82564 1.90643 10 2.08078 10 2.29104C10 2.5013 9.82564 2.67566 9.61539 2.67566Z" fill="#292D32"/>
<path d="M2.29229 9.9936C2.19486 9.9936 2.09744 9.95772 2.02051 9.88079L0.112805 7.97309C0.0410106 7.90129 0 7.80387 0 7.70131C0 7.59874 0.0410106 7.50129 0.112805 7.4295L2.02051 5.52182C2.16923 5.3731 2.41538 5.3731 2.5641 5.52182C2.71282 5.67054 2.71282 5.91669 2.5641 6.06541L0.928204 7.70131L2.5641 9.33717C2.71282 9.48589 2.71282 9.73208 2.5641 9.88079C2.49231 9.95772 2.39486 9.9936 2.29229 9.9936Z" fill="#292D32"/>
<path d="M9.61539 8.0808H0.384615C0.174359 8.0808 0 7.90645 0 7.69619C0 7.48593 0.174359 7.31157 0.384615 7.31157H9.61539C9.82564 7.31157 10 7.48593 10 7.69619C10 7.90645 9.82564 8.0808 9.61539 8.0808Z" fill="#292D32"/>
</svg>
