<svg width="12" height="16" viewBox="0 0 12 16" fill="none" xmlns="http://www.w3.org/2000/svg">
<path fill-rule="evenodd" clip-rule="evenodd" d="M11.9688 6.38558C12.2181 4.71658 10.9473 3.81936 9.20973 3.22082L9.77338 0.959935L8.39678 0.616961L7.84803 2.81826C7.48663 2.72811 7.11504 2.64305 6.74581 2.55878L7.29848 0.342974L5.92306 0L5.35901 2.2601C5.05955 2.1919 4.76557 2.12448 4.48022 2.05353L4.48179 2.04648L2.58387 1.57258L2.21777 3.04247C2.21777 3.04247 3.23885 3.27648 3.21729 3.29098C3.77467 3.43013 3.8758 3.79897 3.85855 4.09138L3.21651 6.66702C3.25492 6.67682 3.3047 6.69093 3.35958 6.71288L3.21455 6.67682L2.31419 10.2849C2.24599 10.4542 2.07313 10.7082 1.68351 10.6118C1.69723 10.6318 0.683204 10.3621 0.683204 10.3621L0 11.9378L1.7913 12.3843C1.99352 12.435 2.19329 12.4871 2.39086 12.5386C2.5188 12.572 2.64583 12.6052 2.77201 12.6375L2.20248 14.9247L3.57712 15.2676L4.14156 13.0052C4.51667 13.1071 4.8812 13.2012 5.2379 13.2897L4.67581 15.5416L6.05202 15.8846L6.62155 13.6021C8.96828 14.0462 10.7333 13.8671 11.4753 11.745C12.0739 10.036 11.4459 9.0502 10.2112 8.40697C11.1104 8.19884 11.7881 7.60735 11.9688 6.38558ZM8.82403 10.7949C8.43334 12.3634 5.97766 11.7144 4.85508 11.4177C4.75455 11.3911 4.66472 11.3674 4.58801 11.3483L5.34373 8.31878C5.43748 8.34218 5.55202 8.36788 5.68177 8.397C6.84313 8.65761 9.22279 9.19169 8.82403 10.7949ZM5.91521 6.99118C6.85189 7.24107 8.89363 7.78577 9.24931 6.36089C9.61294 4.90318 7.62757 4.46383 6.65794 4.24925C6.54893 4.22513 6.45276 4.20385 6.37421 4.18428L5.68905 6.93199C5.75388 6.94814 5.82997 6.96844 5.91521 6.99118Z" fill="white"/>
</svg>
