<svg width="12" height="75" viewBox="0 0 12 75" fill="none" xmlns="http://www.w3.org/2000/svg">
<path style="mix-blend-mode:screen" d="M3.50776 58.9915C4.15751 58.9915 4.68423 58.4648 4.68423 57.8151C4.68423 57.1653 4.15751 56.6386 3.50776 56.6386C2.85801 56.6386 2.3313 57.1653 2.3313 57.8151C2.3313 58.4648 2.85801 58.9915 3.50776 58.9915Z" fill="url(#paint0_radial_95_6522)"/>
<path style="mix-blend-mode:screen" d="M1.7416 75C2.39135 75 2.91807 74.4733 2.91807 73.8235C2.91807 73.1738 2.39135 72.6471 1.7416 72.6471C1.09185 72.6471 0.565133 73.1738 0.565133 73.8235C0.565133 74.4733 1.09185 75 1.7416 75Z" fill="url(#paint1_radial_95_6522)"/>
<path style="mix-blend-mode:screen" d="M9.17973 71.2814C9.82948 71.2814 10.3562 70.7547 10.3562 70.105C10.3562 69.4552 9.82948 68.9285 9.17973 68.9285C8.52998 68.9285 8.00326 69.4552 8.00326 70.105C8.00326 70.7547 8.52998 71.2814 9.17973 71.2814Z" fill="url(#paint2_radial_95_6522)"/>
<path style="mix-blend-mode:screen" d="M11.5543 52.4159C11.5543 52.7521 11.2812 53.0041 10.966 53.0041C10.6509 53.0041 10.3778 52.7311 10.3778 52.4159C10.3778 52.1008 10.6509 51.8277 10.966 51.8277C11.2812 51.8277 11.5543 52.1008 11.5543 52.4159Z" fill="url(#paint3_radial_95_6522)"/>
<path style="mix-blend-mode:screen" d="M9.17973 44.2648C9.17973 44.6009 8.90662 44.853 8.5915 44.853C8.27637 44.853 8.00326 44.5799 8.00326 44.2648C8.00326 43.9496 8.27637 43.6765 8.5915 43.6765C8.90662 43.6765 9.17973 43.9496 9.17973 44.2648Z" fill="url(#paint4_radial_95_6522)"/>
<path style="mix-blend-mode:screen" d="M4.09648 29.6848C4.09648 30.021 3.82338 30.2731 3.50825 30.2731C3.19312 30.2731 2.92002 30 2.92002 29.6848C2.92002 29.3697 3.19312 29.0966 3.50825 29.0966C3.82338 29.0966 4.09648 29.3697 4.09648 29.6848Z" fill="url(#paint5_radial_95_6522)"/>
<path style="mix-blend-mode:screen" d="M9.76845 11.8069C9.76845 12.143 9.49534 12.3951 9.18022 12.3951C8.86509 12.3951 8.59198 12.122 8.59198 11.8069C8.59198 11.4917 8.86509 11.2186 9.18022 11.2186C9.49534 11.2186 9.76845 11.4917 9.76845 11.8069Z" fill="url(#paint6_radial_95_6522)"/>
<path style="mix-blend-mode:screen" d="M4.09648 47.2688C4.09648 47.6049 3.82338 47.8571 3.50825 47.8571C3.19312 47.8571 2.92002 47.5839 2.92002 47.2688C2.92002 46.9537 3.19312 46.6806 3.50825 46.6806C3.82338 46.6806 4.09648 46.9537 4.09648 47.2688Z" fill="url(#paint7_radial_95_6522)"/>
<path style="mix-blend-mode:screen" d="M8.59199 35.9244C8.59199 36.2605 8.31888 36.5126 8.00376 36.5126C7.68863 36.5126 7.41552 36.2395 7.41552 35.9244C7.41552 35.6093 7.68863 35.3362 8.00376 35.3362C8.31888 35.3362 8.59199 35.6093 8.59199 35.9244Z" fill="url(#paint8_radial_95_6522)"/>
<path style="mix-blend-mode:screen" d="M8.59199 64.4538C8.59199 64.7899 8.31888 65.042 8.00376 65.042C7.68863 65.042 7.41552 64.7689 7.41552 64.4538C7.41552 64.1386 7.68863 63.8655 8.00376 63.8655C8.31888 63.8655 8.59199 64.1386 8.59199 64.4538Z" fill="url(#paint9_radial_95_6522)"/>
<path style="mix-blend-mode:screen" d="M2.47848 63.4874C2.47848 63.6975 2.31038 63.8445 2.1213 63.8445C1.93223 63.8445 1.7642 63.6765 1.7642 63.4874C1.7642 63.2983 1.93223 63.1302 2.1213 63.1302C2.31038 63.1302 2.47848 63.2983 2.47848 63.4874Z" fill="url(#paint10_radial_95_6522)"/>
<path style="mix-blend-mode:screen" d="M8.94909 58.3824C9.14634 58.3824 9.30626 58.2225 9.30626 58.0253C9.30626 57.828 9.14634 57.6681 8.94909 57.6681C8.75185 57.6681 8.59198 57.828 8.59198 58.0253C8.59198 58.2225 8.75185 58.3824 8.94909 58.3824Z" fill="url(#paint11_radial_95_6522)"/>
<path style="mix-blend-mode:screen" d="M2.91937 20.1469C3.11661 20.1469 3.27654 19.987 3.27654 19.7898C3.27654 19.5925 3.11661 19.4326 2.91937 19.4326C2.72213 19.4326 2.56226 19.5925 2.56226 19.7898C2.56226 19.987 2.72213 20.1469 2.91937 20.1469Z" fill="url(#paint12_radial_95_6522)"/>
<path style="mix-blend-mode:screen" d="M2.91937 11.5546C3.11661 11.5546 3.27654 11.3947 3.27654 11.1975C3.27654 11.0002 3.11661 10.8404 2.91937 10.8404C2.72213 10.8404 2.56226 11.0002 2.56226 11.1975C2.56226 11.3947 2.72213 11.5546 2.91937 11.5546Z" fill="url(#paint13_radial_95_6522)"/>
<path style="mix-blend-mode:screen" d="M5.86141 68.5715C5.86141 68.7815 5.69338 68.9286 5.5043 68.9286C5.31523 68.9286 5.14713 68.7605 5.14713 68.5715C5.14713 68.3824 5.31523 68.2144 5.5043 68.2144C5.69338 68.2144 5.86141 68.3824 5.86141 68.5715Z" fill="url(#paint14_radial_95_6522)"/>
<path style="mix-blend-mode:screen" d="M0.714278 52.1849C0.714278 52.3949 0.546183 52.542 0.357107 52.542C0.168031 52.542 0 52.3739 0 52.1849C0 51.9958 0.168031 51.8277 0.357107 51.8277C0.546183 51.8277 0.714278 51.9958 0.714278 52.1849Z" fill="url(#paint15_radial_95_6522)"/>
<path style="mix-blend-mode:screen" d="M2.10107 40.9453C2.10107 41.1554 1.93297 41.3025 1.74389 41.3025C1.55482 41.3025 1.38679 41.1344 1.38679 40.9453C1.38679 40.7563 1.55482 40.5882 1.74389 40.5882C1.93297 40.5882 2.10107 40.7563 2.10107 40.9453Z" fill="url(#paint16_radial_95_6522)"/>
<path style="mix-blend-mode:screen" d="M6.95138 0.357171C6.95138 0.567255 6.78328 0.71431 6.59421 0.71431C6.40513 0.71431 6.2371 0.546247 6.2371 0.357171C6.2371 0.168096 6.40513 0 6.59421 0C6.78328 0 6.95138 0.168096 6.95138 0.357171Z" fill="url(#paint17_radial_95_6522)"/>
<path style="mix-blend-mode:screen" d="M6.59559 53.5083C6.59559 53.7184 6.42756 53.8654 6.23848 53.8654C6.04941 53.8654 5.88131 53.6974 5.88131 53.5083C5.88131 53.3192 6.04941 53.1511 6.23848 53.1511C6.42756 53.1511 6.59559 53.3192 6.59559 53.5083Z" fill="url(#paint18_radial_95_6522)"/>
<path style="mix-blend-mode:screen" d="M3.29816 36.5126C3.29816 36.7227 3.13013 36.8698 2.94106 36.8698C2.75198 36.8698 2.58389 36.7017 2.58389 36.5126C2.58389 36.3235 2.75198 36.1555 2.94106 36.1555C3.13013 36.1555 3.29816 36.3235 3.29816 36.5126Z" fill="url(#paint19_radial_95_6522)"/>
<path style="mix-blend-mode:screen" d="M8.94851 23.8656C8.94851 24.0756 8.78048 24.2227 8.5914 24.2227C8.40233 24.2227 8.23423 24.0546 8.23423 23.8656C8.23423 23.6765 8.40233 23.5084 8.5914 23.5084C8.78048 23.5084 8.94851 23.6765 8.94851 23.8656Z" fill="url(#paint20_radial_95_6522)"/>
<defs>
<radialGradient id="paint0_radial_95_6522" cx="0" cy="0" r="1" gradientUnits="userSpaceOnUse" gradientTransform="translate(3.50776 57.8151) scale(1.05042)">
<stop stop-color="white"/>
<stop offset="0.14" stop-color="#18FFFF"/>
<stop offset="0.18" stop-color="#16F3F3"/>
<stop offset="0.24" stop-color="#14D6D6"/>
<stop offset="0.33" stop-color="#0FA6A6"/>
<stop offset="0.44" stop-color="#096363"/>
<stop offset="0.56" stop-color="#010F0F"/>
<stop offset="0.58"/>
</radialGradient>
<radialGradient id="paint1_radial_95_6522" cx="0" cy="0" r="1" gradientUnits="userSpaceOnUse" gradientTransform="translate(1.7416 73.8235) scale(1.05042)">
<stop stop-color="white"/>
<stop offset="0.14" stop-color="#18FFFF"/>
<stop offset="0.18" stop-color="#16F3F3"/>
<stop offset="0.24" stop-color="#14D6D6"/>
<stop offset="0.33" stop-color="#0FA6A6"/>
<stop offset="0.44" stop-color="#096363"/>
<stop offset="0.56" stop-color="#010F0F"/>
<stop offset="0.58"/>
</radialGradient>
<radialGradient id="paint2_radial_95_6522" cx="0" cy="0" r="1" gradientUnits="userSpaceOnUse" gradientTransform="translate(9.17973 70.105) scale(1.05042)">
<stop stop-color="white"/>
<stop offset="0.14" stop-color="#18FFFF"/>
<stop offset="0.18" stop-color="#16F3F3"/>
<stop offset="0.24" stop-color="#14D6D6"/>
<stop offset="0.33" stop-color="#0FA6A6"/>
<stop offset="0.44" stop-color="#096363"/>
<stop offset="0.56" stop-color="#010F0F"/>
<stop offset="0.58"/>
</radialGradient>
<radialGradient id="paint3_radial_95_6522" cx="0" cy="0" r="1" gradientUnits="userSpaceOnUse" gradientTransform="translate(10.945 52.4159) scale(0.588233 0.588217)">
<stop stop-color="white"/>
<stop offset="0.14" stop-color="#18FFFF"/>
<stop offset="0.18" stop-color="#16F3F3"/>
<stop offset="0.24" stop-color="#14D6D6"/>
<stop offset="0.33" stop-color="#0FA6A6"/>
<stop offset="0.44" stop-color="#096363"/>
<stop offset="0.56" stop-color="#010F0F"/>
<stop offset="0.58"/>
</radialGradient>
<radialGradient id="paint4_radial_95_6522" cx="0" cy="0" r="1" gradientUnits="userSpaceOnUse" gradientTransform="translate(8.5915 44.2648) scale(0.588233)">
<stop stop-color="white"/>
<stop offset="0.14" stop-color="#18FFFF"/>
<stop offset="0.18" stop-color="#16F3F3"/>
<stop offset="0.24" stop-color="#14D6D6"/>
<stop offset="0.33" stop-color="#0FA6A6"/>
<stop offset="0.44" stop-color="#096363"/>
<stop offset="0.56" stop-color="#010F0F"/>
<stop offset="0.58"/>
</radialGradient>
<radialGradient id="paint5_radial_95_6522" cx="0" cy="0" r="1" gradientUnits="userSpaceOnUse" gradientTransform="translate(3.50825 29.6848) scale(0.588233)">
<stop stop-color="white"/>
<stop offset="0.14" stop-color="#18FFFF"/>
<stop offset="0.18" stop-color="#16F3F3"/>
<stop offset="0.24" stop-color="#14D6D6"/>
<stop offset="0.33" stop-color="#0FA6A6"/>
<stop offset="0.44" stop-color="#096363"/>
<stop offset="0.56" stop-color="#010F0F"/>
<stop offset="0.58"/>
</radialGradient>
<radialGradient id="paint6_radial_95_6522" cx="0" cy="0" r="1" gradientUnits="userSpaceOnUse" gradientTransform="translate(9.18022 11.8069) scale(0.588233)">
<stop stop-color="white"/>
<stop offset="0.14" stop-color="#18FFFF"/>
<stop offset="0.18" stop-color="#16F3F3"/>
<stop offset="0.24" stop-color="#14D6D6"/>
<stop offset="0.33" stop-color="#0FA6A6"/>
<stop offset="0.44" stop-color="#096363"/>
<stop offset="0.56" stop-color="#010F0F"/>
<stop offset="0.58"/>
</radialGradient>
<radialGradient id="paint7_radial_95_6522" cx="0" cy="0" r="1" gradientUnits="userSpaceOnUse" gradientTransform="translate(3.50825 47.2688) scale(0.588233 0.588249)">
<stop stop-color="white"/>
<stop offset="0.14" stop-color="#18FFFF"/>
<stop offset="0.18" stop-color="#16F3F3"/>
<stop offset="0.24" stop-color="#14D6D6"/>
<stop offset="0.33" stop-color="#0FA6A6"/>
<stop offset="0.44" stop-color="#096363"/>
<stop offset="0.56" stop-color="#010F0F"/>
<stop offset="0.58"/>
</radialGradient>
<radialGradient id="paint8_radial_95_6522" cx="0" cy="0" r="1" gradientUnits="userSpaceOnUse" gradientTransform="translate(8.00376 35.9244) scale(0.588233)">
<stop stop-color="white"/>
<stop offset="0.14" stop-color="#18FFFF"/>
<stop offset="0.18" stop-color="#16F3F3"/>
<stop offset="0.24" stop-color="#14D6D6"/>
<stop offset="0.33" stop-color="#0FA6A6"/>
<stop offset="0.44" stop-color="#096363"/>
<stop offset="0.56" stop-color="#010F0F"/>
<stop offset="0.58"/>
</radialGradient>
<radialGradient id="paint9_radial_95_6522" cx="0" cy="0" r="1" gradientUnits="userSpaceOnUse" gradientTransform="translate(8.00376 64.4538) scale(0.588233)">
<stop stop-color="white"/>
<stop offset="0.14" stop-color="#18FFFF"/>
<stop offset="0.18" stop-color="#16F3F3"/>
<stop offset="0.24" stop-color="#14D6D6"/>
<stop offset="0.33" stop-color="#0FA6A6"/>
<stop offset="0.44" stop-color="#096363"/>
<stop offset="0.56" stop-color="#010F0F"/>
<stop offset="0.58"/>
</radialGradient>
<radialGradient id="paint10_radial_95_6522" cx="0" cy="0" r="1" gradientUnits="userSpaceOnUse" gradientTransform="translate(2.10033 63.4874) scale(0.357139)">
<stop stop-color="white"/>
<stop offset="0.14" stop-color="#18FFFF"/>
<stop offset="0.18" stop-color="#16F3F3"/>
<stop offset="0.24" stop-color="#14D6D6"/>
<stop offset="0.33" stop-color="#0FA6A6"/>
<stop offset="0.44" stop-color="#096363"/>
<stop offset="0.56" stop-color="#010F0F"/>
<stop offset="0.58"/>
</radialGradient>
<radialGradient id="paint11_radial_95_6522" cx="0" cy="0" r="1" gradientUnits="userSpaceOnUse" gradientTransform="translate(8.94912 58.0253) scale(0.357139)">
<stop stop-color="white"/>
<stop offset="0.14" stop-color="#18FFFF"/>
<stop offset="0.18" stop-color="#16F3F3"/>
<stop offset="0.24" stop-color="#14D6D6"/>
<stop offset="0.33" stop-color="#0FA6A6"/>
<stop offset="0.44" stop-color="#096363"/>
<stop offset="0.56" stop-color="#010F0F"/>
<stop offset="0.58"/>
</radialGradient>
<radialGradient id="paint12_radial_95_6522" cx="0" cy="0" r="1" gradientUnits="userSpaceOnUse" gradientTransform="translate(2.9194 19.7897) scale(0.357139 0.357155)">
<stop stop-color="white"/>
<stop offset="0.14" stop-color="#18FFFF"/>
<stop offset="0.18" stop-color="#16F3F3"/>
<stop offset="0.24" stop-color="#14D6D6"/>
<stop offset="0.33" stop-color="#0FA6A6"/>
<stop offset="0.44" stop-color="#096363"/>
<stop offset="0.56" stop-color="#010F0F"/>
<stop offset="0.58"/>
</radialGradient>
<radialGradient id="paint13_radial_95_6522" cx="0" cy="0" r="1" gradientUnits="userSpaceOnUse" gradientTransform="translate(2.9194 11.1975) scale(0.357139)">
<stop stop-color="white"/>
<stop offset="0.14" stop-color="#18FFFF"/>
<stop offset="0.18" stop-color="#16F3F3"/>
<stop offset="0.24" stop-color="#14D6D6"/>
<stop offset="0.33" stop-color="#0FA6A6"/>
<stop offset="0.44" stop-color="#096363"/>
<stop offset="0.56" stop-color="#010F0F"/>
<stop offset="0.58"/>
</radialGradient>
<radialGradient id="paint14_radial_95_6522" cx="0" cy="0" r="1" gradientUnits="userSpaceOnUse" gradientTransform="translate(5.48326 68.5715) scale(0.357139)">
<stop stop-color="white"/>
<stop offset="0.14" stop-color="#18FFFF"/>
<stop offset="0.18" stop-color="#16F3F3"/>
<stop offset="0.24" stop-color="#14D6D6"/>
<stop offset="0.33" stop-color="#0FA6A6"/>
<stop offset="0.44" stop-color="#096363"/>
<stop offset="0.56" stop-color="#010F0F"/>
<stop offset="0.58"/>
</radialGradient>
<radialGradient id="paint15_radial_95_6522" cx="0" cy="0" r="1" gradientUnits="userSpaceOnUse" gradientTransform="translate(0.336131 52.1849) scale(0.357139)">
<stop stop-color="white"/>
<stop offset="0.14" stop-color="#18FFFF"/>
<stop offset="0.18" stop-color="#16F3F3"/>
<stop offset="0.24" stop-color="#14D6D6"/>
<stop offset="0.33" stop-color="#0FA6A6"/>
<stop offset="0.44" stop-color="#096363"/>
<stop offset="0.56" stop-color="#010F0F"/>
<stop offset="0.58"/>
</radialGradient>
<radialGradient id="paint16_radial_95_6522" cx="0" cy="0" r="1" gradientUnits="userSpaceOnUse" gradientTransform="translate(1.74393 40.9453) scale(0.357139)">
<stop stop-color="white"/>
<stop offset="0.14" stop-color="#18FFFF"/>
<stop offset="0.18" stop-color="#16F3F3"/>
<stop offset="0.24" stop-color="#14D6D6"/>
<stop offset="0.33" stop-color="#0FA6A6"/>
<stop offset="0.44" stop-color="#096363"/>
<stop offset="0.56" stop-color="#010F0F"/>
<stop offset="0.58"/>
</radialGradient>
<radialGradient id="paint17_radial_95_6522" cx="0" cy="0" r="1" gradientUnits="userSpaceOnUse" gradientTransform="translate(6.59424 0.357155) scale(0.357139 0.357155)">
<stop stop-color="white"/>
<stop offset="0.14" stop-color="#18FFFF"/>
<stop offset="0.18" stop-color="#16F3F3"/>
<stop offset="0.24" stop-color="#14D6D6"/>
<stop offset="0.33" stop-color="#0FA6A6"/>
<stop offset="0.44" stop-color="#096363"/>
<stop offset="0.56" stop-color="#010F0F"/>
<stop offset="0.58"/>
</radialGradient>
<radialGradient id="paint18_radial_95_6522" cx="0" cy="0" r="1" gradientUnits="userSpaceOnUse" gradientTransform="translate(6.21744 53.5082) scale(0.357139)">
<stop stop-color="white"/>
<stop offset="0.14" stop-color="#18FFFF"/>
<stop offset="0.18" stop-color="#16F3F3"/>
<stop offset="0.24" stop-color="#14D6D6"/>
<stop offset="0.33" stop-color="#0FA6A6"/>
<stop offset="0.44" stop-color="#096363"/>
<stop offset="0.56" stop-color="#010F0F"/>
<stop offset="0.58"/>
</radialGradient>
<radialGradient id="paint19_radial_95_6522" cx="0" cy="0" r="1" gradientUnits="userSpaceOnUse" gradientTransform="translate(2.92002 36.5126) scale(0.357139)">
<stop stop-color="white"/>
<stop offset="0.14" stop-color="#18FFFF"/>
<stop offset="0.18" stop-color="#16F3F3"/>
<stop offset="0.24" stop-color="#14D6D6"/>
<stop offset="0.33" stop-color="#0FA6A6"/>
<stop offset="0.44" stop-color="#096363"/>
<stop offset="0.56" stop-color="#010F0F"/>
<stop offset="0.58"/>
</radialGradient>
<radialGradient id="paint20_radial_95_6522" cx="0" cy="0" r="1" gradientUnits="userSpaceOnUse" gradientTransform="translate(8.59137 23.8656) scale(0.357139 0.357155)">
<stop stop-color="white"/>
<stop offset="0.14" stop-color="#18FFFF"/>
<stop offset="0.18" stop-color="#16F3F3"/>
<stop offset="0.24" stop-color="#14D6D6"/>
<stop offset="0.33" stop-color="#0FA6A6"/>
<stop offset="0.44" stop-color="#096363"/>
<stop offset="0.56" stop-color="#010F0F"/>
<stop offset="0.58"/>
</radialGradient>
</defs>
</svg>
